<svg width="677" height="246" viewBox="0 0 677 246" fill="none" xmlns="http://www.w3.org/2000/svg">
<g opacity="0.1">
<path d="M18.5543 -28.1487C19.1504 -27.2436 21.2547 -26.0294 23.7339 -24.5195C29.2294 -21.1726 31.9299 -15.6059 36.0009 -7.78594C38.3094 -3.35141 39.9228 -0.880133 41.1285 1.40513C42.2073 3.44982 44.1315 5.79602 47.5928 10.0368C49.6285 12.531 51.9618 13.5363 60.4333 17.4656C66.1282 20.1071 74.2063 16.2878 80.9009 13.1066C86.2956 10.5431 90.6345 6.88748 93.2063 4.82961C96.0984 2.51536 99.368 1.26642 103.055 0.579703C110.131 -0.738144 112.021 -1.61687 114.353 -2.82659C117.155 -4.27957 117.594 -7.06512 118.275 -9.11617C119.026 -11.3743 120.149 -13.5866 120.983 -16.9907C122.318 -22.4457 127.519 -24.2012 130.01 -25.7929C135.322 -27.9849 145.424 -30.8728 149.332 -31.7801C151.005 -32.2371 152.049 -32.6873 153.123 -33.1512" stroke="#F5F5F5" stroke-width="0.98255" stroke-linecap="round"/>
<path d="M77.7104 -29.513C77.7104 -23.4599 78.3065 -20.4266 79.2119 -18.6802C80.322 -16.539 83.1203 -15.8697 85.4527 -15.0397C88.5054 -13.9534 92.4408 -11.6402 95.3128 -9.28221C97.1814 -7.748 99.377 -7.53813 101.56 -6.32388C102.095 -6.02651 102.538 -5.71902 102.843 -5.33928C103.148 -4.95954 103.297 -4.50931 103.373 -3.90218C103.45 -3.29505 103.373 -0.277526 103.373 0.495597" stroke="#F5F5F5" stroke-width="0.98255" stroke-linecap="round"/>
<path d="M116.997 -4.95496C116.997 -1.04386 117.594 6.85109 118.65 9.51382C119.437 11.4975 121.351 14.8825 123.536 18.3001C126.742 23.3129 128.431 25.8063 129.113 28.0824C129.632 29.8147 129.339 31.4228 130.161 32.18C133.122 34.9084 138.05 32.3369 141.446 34.0719C144.609 35.6881 146.639 36.73 150.689 36.2798C161.517 35.0764 163.952 38.3945 166.135 39.9112C166.639 40.2611 167.113 40.3683 167.492 40.7457C169.992 43.2331 168.179 49.3001 168.174 53.6956C168.173 54.6286 168.621 55.0667 168.998 55.3737C170.675 56.7388 173.878 58.2502 176.373 59.6941C178.353 60.84 177.355 64.6171 178.032 67.1934C178.594 69.3285 179.911 70.984 181.191 73.2578C182.512 75.6043 183.225 77.3509 184.128 79.6998C185.088 82.1948 185.032 84.7728 186.31 88.4133C187.427 91.597 189.547 95.542 190.15 97.7408C190.45 98.7254 190.604 101.891 190.678 106.209C190.753 107.826 190.902 108.276 191.959 109.649" stroke="#F5F5F5" stroke-width="0.98255" stroke-linecap="round"/>
<path d="M169.063 46.9603C170.558 46.9603 175.53 46.1348 179.452 46.1303C180.228 46.1294 180.66 46.5805 180.965 46.9603C181.557 47.6971 181.572 48.8544 181.945 49.839C183.016 52.6691 188.183 51.1283 190.22 51.815C190.726 51.9857 191.345 51.8923 191.801 52.1174C192.707 52.5647 193.309 53.5568 193.986 54.3117C195.401 55.8887 193.467 58.2501 193.164 60.0715C192.998 61.0705 192.261 61.8929 192.11 62.8752C191.936 64.0037 192.857 64.6261 193.311 65.0764C195.618 67.3646 191.507 72.6302 192.331 75.609C193.006 78.0468 192.112 80.8344 192.108 90.3598C192.106 93.812 193.16 95.542 194.512 97.8159C195.172 98.9252 195.12 102.796 194.226 108.546C192.907 117.026 187.298 117.217 185.643 119.043C183.971 120.887 180.227 119.354 177.294 118.672C175.149 118.173 173.453 117.235 171.645 116.473C168.027 114.949 157.242 117.217 150.658 117.985C145.449 118.593 140.037 119.945 137.029 122.224C134.424 124.198 131.908 126.167 128.831 127.531C122.265 130.442 117.774 130.869 114.602 132.606C108.291 136.062 103.613 139.055 101.651 140.87C99.9161 142.474 97.7423 144.203 95.4054 146.327C93.6799 147.895 91.7183 149.506 90.1355 151.557C88.2202 154.039 86.1459 154.663 85.6898 156.56C84.9743 159.535 80.1309 160.43 77.794 160.509C75.5494 160.586 67.8391 159.675 63.2669 158.392C60.9624 157.746 52.7926 156.946 45.5178 157.474C40.4811 157.839 38.1345 159.211 34.1494 161.485C30.0456 163.826 21.616 164.677 16.8338 165.355C13.1469 165.877 10.8956 170.735 8.62644 171.949C8.1726 172.254 7.72555 172.554 6.52662 172.709C5.32769 172.863 3.39044 172.863 0.491333 173.318" stroke="#F5F5F5" stroke-width="0.98255" stroke-linecap="round"/>
<path d="M2.29761 151.034C5.5941 147.864 8.91768 144.221 9.14572 140.89C9.38489 137.396 8.92671 132.552 7.9468 130.501C6.50218 127.477 6.06373 123.911 6.13373 121.482C6.21026 118.827 9.21572 117.544 10.1956 115.418C11.5637 112.45 15.8268 112.833 19.2203 111.928C21.5101 111.317 23.359 109.203 25.3211 108.212C27.3409 107.191 29.085 105.565 30.0649 103.366C31.1137 101.013 40.7446 100.554 46.8454 98.8186C49.0535 98.1906 48.5026 94.6506 49.3335 92.3767C50.4428 89.3409 53.1719 86.9193 54.2241 84.5727C56.1799 80.2105 56.3329 77.2235 56.7845 73.8103C57.2784 70.0775 61.5893 67.6731 63.1788 65.0149C65.2153 61.6094 68.2184 61.4426 71.2258 60.4626C72.7345 59.971 73.7908 58.7185 74.7684 57.8112C76.2328 56.4523 75.9041 53.2748 75.5293 50.6144C75.2456 48.6002 75.6016 46.8943 76.0509 46.062C77.1966 43.94 82.0456 41.4506 84.1792 39.1653C85.9291 37.2911 88.3856 35.8295 91.4721 35.6704C93.6432 35.5584 96.5049 37.6305 99.9008 38.7765C101.61 39.3534 105.378 39.6133 110.637 39.3131C119.583 38.8025 125.117 35.8295 130.524 35.2952C131.597 35.07 131.746 34.6198 131.823 34.1628C131.899 33.7057 131.823 33.4724 131.823 33.0085" stroke="#F5F5F5" stroke-width="0.98255" stroke-linecap="round"/>
<path d="M127.835 35.975C127.835 38.8447 128.133 41.8781 130.007 45.057C132.55 49.371 136.253 50.6644 138.215 52.4926C140.172 54.3165 142.421 56.2763 145.359 58.1C149.899 60.919 151.76 63.4073 153.417 65.2992C156.351 68.6483 157.784 72.3391 158.24 78.8516C158.462 82.0279 160.339 84.9183 161.699 88.1131C162.576 90.1761 163.654 91.9037 165.535 94.1025C166.922 95.7246 168.016 97.5157 169.75 99.5599C171.231 101.306 172.532 103.573 173.665 105.774C175.237 108.826 175.702 114.452 175.327 118.433C175.084 121.012 174.799 123.129 175.171 124.948C175.734 127.694 183.487 126.476 186.985 127.003C189.297 127.352 190.748 130.105 195.027 132.304C197.974 133.818 198.877 137.382 199.333 140.335C199.676 142.554 200.837 144.203 201.065 146.025C201.365 148.424 203.095 151.025 204.969 152.469C208.337 155.064 211.963 154.518 214.228 155.275C217.753 156.453 220.995 159.966 223.036 161.564C225.467 163.468 228.825 166.187 231.085 167.401C235.331 169.682 240.268 169.825 248.496 170.89C253.837 171.58 263.416 171.044 268.776 171.194C276.468 171.41 278.2 173.164 280.009 174.073C282.486 175.319 287.819 175.592 291.969 175.14C292.813 175.047 293.4 174.837 293.707 174.535C294.014 174.232 294.014 173.782 293.716 173.325C292.254 171.083 291.007 168.934 290.479 166.958C290.359 166.51 290.402 166.051 290.625 165.669C291.674 163.876 294.457 164.223 297.76 163.845C301.03 163.471 303.493 164.218 304.319 165.125C306.02 166.993 309.494 169.516 313.644 170.89C316.17 171.726 318.39 171.799 321.773 171.729C324.475 171.672 326.356 168.325 329.002 167.106C331.95 165.748 334.647 168.461 339.077 168.393C343.237 168.329 344.586 167.861 345.263 167.561C346.902 166.834 346.849 165.137 347.221 164.455C347.432 164.068 348.339 164.223 348.872 164.448C350.84 165.279 352.854 167.397 355.345 167.936C357.23 168.466 359.33 169.07 366.684 169.903C368.953 170.28 371.188 170.881 373.491 171.954" stroke="#F5F5F5" stroke-width="0.98255" stroke-linecap="round"/>
<path d="M176.072 126.694C175.625 128.204 173.607 129.496 172.469 131.472C171.103 133.844 169.389 137.527 167.355 140.488C165.968 142.506 166.074 145.558 166.513 150.936C167.014 157.097 172.532 157.237 173.516 160.193C174.639 163.564 174.799 166.633 176.072 169.291C177.377 172.015 179.604 174.664 182.315 176.875C186.226 180.062 191.185 183.772 198.238 183.772C201.347 183.772 203.021 183.772 205.412 186.95C206.038 187.782 209.247 193.917 209.477 194.369C210.577 196.53 211.63 196.055 213.304 199.427C213.927 200.683 217.879 201.504 218.326 204.003C218.912 207.282 218.726 205.948 220.239 207.615C221.652 209.172 221.455 211.965 222.661 213.937C224.146 216.365 222.88 218.324 223.108 222.788C223.232 225.206 223.946 228.468 224.998 230.976C225.812 232.917 228.681 233.795 230.261 235.993C231.649 237.925 232.898 240.007 233.876 241.983C234.763 243.776 235.608 245.619 235.91 247.515C236.295 249.927 238.462 252.431 240.121 255.094C241.176 256.993 243.276 258.207 245.612 260.172C246.143 260.781 246.59 261.381 247.051 262" stroke="#F5F5F5" stroke-width="0.98255" stroke-linecap="round"/>
<path d="M219.956 159.22C220.557 161.785 216.34 165.528 216.652 170.526C216.879 174.178 215.87 174.967 214.739 176.788C214.221 177.622 213.277 180.307 212.825 181.364C212.289 182.619 213.107 186.628 213.782 187.385C215.044 188.801 217.154 190.266 219.956 192.924C224.724 197.447 227.902 201.182 228.13 204.966C228.404 209.512 228.229 220.597 229.735 224.015C230.617 226.016 231.39 227.882 233.12 229.326C235.428 231.253 237.261 233.64 238.767 235.993C240.122 238.111 240.575 241.971 240.878 244.257C241.145 246.275 242.679 247.893 244.334 249.412C245.845 251.686 247.042 253.505 249.749 258.114C250.505 259.412 251.25 260.463 252.47 262" stroke="#F5F5F5" stroke-width="0.98255" stroke-linecap="round"/>
<path d="M106.611 259.726C106.611 257.311 106.015 253.377 104.286 250.337C103.885 249.634 103.161 249.275 102.482 249.043C99.6919 248.091 97.7332 250.626 96.7601 251.308C95.3372 252.306 93.52 251.39 92.7682 250.938C92.0176 250.486 92.1608 249.121 92.3098 247.986C92.3821 247.436 92.7569 247.001 93.1339 246.695C94.7105 245.411 98.6093 244.728 101.26 241.624C103.539 238.955 104.046 235.941 104.577 233.811C105.134 231.573 108.553 230.629 112.466 228.733C116.279 226.885 117.891 225.318 120.224 223.806C123.061 221.966 125.866 221.525 127.828 220.242C130.693 218.37 135.494 214.721 139.262 210.324C141.89 207.257 145.121 203.661 147.847 201.142C148.958 200.114 150.558 200.15 151.536 199.925C152.37 199.733 152.22 198.186 152.444 197.201C152.634 196.361 154.171 196.512 155.223 196.287C155.72 196.181 155.977 195.612 155.609 194.404C153.346 186.979 151.317 182.423 151.615 180.833C152.238 177.513 155.679 175.001 157.106 172.04C158.241 169.685 159.138 166.97 160.342 164.309C161.983 162.276 165.144 161.039 168.305 160.439C169.38 159.839 169.38 158.638 169.38 157.401" stroke="#F5F5F5" stroke-width="0.98255" stroke-linecap="round"/>
<path d="M150.789 35.8987C150.789 34.3979 150.712 31.7366 151.164 25.6494C151.57 20.1756 151.317 9.80718 151.094 3.72224C150.652 -8.30697 150.26 -15.2511 150.789 -17.7547C151.435 -20.8175 152.456 -22.3064 153.28 -25.2739C153.508 -25.9583 154.954 -26.2372 154.954 -28.8864C154.954 -29.5168 157.431 -30.8309 157.584 -31.2948" stroke="#F5F5F5" stroke-width="0.98255" stroke-linecap="round"/>
<path d="M151.127 28.6734C152.324 28.8235 161.487 29.7536 167.334 31.3453C171.568 32.4977 178.357 34.6015 184.709 35.8203C194.63 37.7241 197.82 35.5202 199.554 34.315C202.249 32.4425 202.932 28.5621 204.899 26.054C205.567 25.2021 205.655 24.1553 205.955 23.248C206.107 22.7909 206.256 22.3407 207.673 22.1088C211.727 21.4457 217.667 22.3271 222.706 23.0092C227.892 23.7111 232.596 20.6671 233.273 19.9122C234.758 18.2571 235.752 15.6737 237.337 13.4725C238.27 12.1777 238.313 10.3618 239.665 9.37725C241.349 8.15128 245.515 8.08796 249.747 6.8737C252.918 5.96365 254.718 5.35929 256.676 4.2951C259.893 2.5464 264.5 2.17584 266.087 0.509075C268.12 -1.62557 269.774 -4.49122 271.429 -6.23756C272.207 -7.05871 273.088 -7.67921 274.136 -8.43642C278.435 -11.5434 284.075 -8.89802 284.976 -8.82071C286.852 -8.65969 287.385 -12.0678 288.363 -15.7811C289.528 -20.2065 295.663 -16.9294 297.015 -17.4569C298.53 -20.7041 298.381 -24.506 298.155 -25.4133C298.079 -25.8703 298.079 -26.3206 298.079 -26.7845" stroke="#F5F5F5" stroke-width="0.98255" stroke-linecap="round"/>
<path d="M297.481 -17.808C297.481 -16.4528 300.905 -11.522 305.816 -6.70818C306.859 -5.68577 308.903 -6.01465 311.307 -6.39211C313.168 -6.68415 314.182 -7.82921 314.782 -8.96389C315.923 -11.1196 316.142 -13.5867 316.44 -14.801C316.543 -15.2225 317.334 -14.8146 317.864 -14.3598C320.922 -11.7395 318.706 -5.41889 318.474 -1.63513C318.38 -0.102513 319.149 1.25271 319.824 2.4647C320.325 3.36389 321.556 3.53115 322.457 4.13601C323.358 4.74086 323.818 7.45134 324.042 11.3147C324.159 13.3393 328.6 14.4413 334.315 15.5782C341.914 17.0901 349.549 18.3842 351.881 20.4284C354.521 22.1771 356.621 23.6869 358.65 25.1263C359.488 25.6652 359.935 25.8153 360.396 25.9699" stroke="#F5F5F5" stroke-width="0.98255" stroke-linecap="round"/>
<path d="M73.1678 16.8725C74.0665 17.1727 75.8951 17.4747 78.153 19.594C80.4178 21.7198 81.7656 23.9872 83.0503 26.0382C83.4274 27.1706 83.8789 28.2393 84.3305 30.8725C84.4841 33.0554 84.3305 34.5276 84.3305 38.5478" stroke="#F5F5F5" stroke-width="0.98255" stroke-linecap="round"/>
<path d="M75.7983 51.5531C76.2454 52.4581 80.8669 52.6473 81.6188 53.3272C81.9796 53.6535 82.0726 54.1572 82.0004 54.7643C81.68 57.4568 80.8714 59.1598 80.4966 61.5064C80.3412 62.4793 80.4199 63.9895 80.6434 64.9127C81.3137 67.6811 85.2246 68.5646 88.0853 69.3991C92.092 70.5679 102.926 66.9001 107.06 68.2576C108.971 68.885 107.812 72.3483 108.862 74.0197C110.852 77.1875 115.182 75.5409 117.514 77.8034C120.249 80.4557 120.908 82.8082 121.734 84.8548C122.43 86.578 123.766 87.8154 124.891 88.4975C127.449 90.0497 131.719 90.8396 134.602 91.6082C137.072 92.2667 139.269 94.6325 140.549 96.3788C141.853 98.158 144.981 97.825 147.237 98.1252C149.989 98.4915 150.107 101.909 150.563 103.73C150.809 104.712 151.615 105.552 152.29 106.309C152.919 107.014 155.661 107.371 158.971 108.278C160.949 110.1 161.55 111.914 162.227 113.886C162.453 114.493 162.751 115.243 163.058 116.016" stroke="#F5F5F5" stroke-width="0.98255" stroke-linecap="round"/>
<path d="M193.238 129.414C190.987 128.503 188.038 126.239 186.869 125.062C186.304 124.493 185.638 123.884 185.502 123.112C185.173 121.244 185.538 118.624 185.693 117.072C185.836 115.646 186.73 114.371 187.158 113.08C187.729 111.355 189.24 109.403 189.424 108.181C189.706 106.317 188.731 103.781 186.869 100.046C185.825 97.9515 184.002 96.7778 183.188 94.9559C182.907 94.3282 182.888 93.2901 183.003 92.4837C183.474 89.1871 185.017 89.1938 183.188 86.7855C182.61 86.025 182.443 85.9136 181.911 85.839C180.154 85.5923 177.917 84.656 176.906 83.598C175.632 82.2656 175.874 80.6336 174.925 79.4611C174.119 78.4654 171.129 77.5147 168.595 76.2786C167.417 75.7037 167.045 74.4556 166.282 73.3257C165.06 71.5155 164.16 69.1981 165.299 67.2873C165.723 66.5769 166.486 66.3862 166.856 65.8137C167.043 65.5241 166.976 65.0294 167.139 64.6725C167.706 63.4357 168.45 62.2635 167.65 61.4976C166.753 60.6388 168.611 58.4632 165.737 58.3667C164.462 58.3239 165.315 56.7259 165.196 56.1992C165.055 55.5815 165.07 56.2005 164.541 54.7542C163.925 53.0683 163.463 53.6576 163.408 53.0683C163.22 51.0265 162.642 52.0202 163.22 51.0265C163.36 50.7854 163.321 48.8677 163.408 48.4924C163.74 47.0659 164.318 47.2212 163.925 46.0337C163.83 45.747 163.737 45.4646 162.919 45.3233C162.102 45.1821 160.592 45.0624 159.714 45.2306C157.972 45.5644 157.263 46.9867 155.654 47.5615C155.128 47.7498 154.026 47.8431 153.865 46.9738C153.445 44.6914 156.393 39.3451 152.054 38.2792C148.796 37.479 145.356 39.4195 143.382 37.5703C142.773 36.9997 141.047 36.7878 140.081 35.1894C139.847 34.8028 139.92 34.1225 139.75 33.6688C139.467 32.9113 138.276 33.0519 138.097 32.2893C137.864 31.2908 137.806 30.2172 138.245 29.82C138.716 29.3935 139.66 28.7953 139.658 27.8201C139.657 27.0141 139.123 25.8344 139.804 25.0141C140.513 24.1611 144.625 25.0952 145.987 23.3523C146.176 23.1112 146.34 22.7156 146.219 22.4008C145.983 21.7845 144.933 21.03 144.14 19.9286C143.144 18.5463 141.849 16.6987 140.93 15.5065C140.124 14.4608 137.177 14.2776 136.728 12.2212C136.447 10.9374 135.931 9.99749 135.834 9.46805C135.79 9.22839 135.969 8.94175 136.167 8.56221C137.212 6.55797 138.638 4.766 139.804 3.33406C141.371 1.41112 143.816 -5.28976 142.251 -7.74849C141.071 -9.60152 140.605 -11.4636 139.418 -11.737C138.804 -11.8782 138.04 -12.4597 136.963 -13.2605C135.875 -14.0693 134.911 -15.191 133.75 -16.162C132.385 -17.3047 130.302 -17.7853 130.167 -19.3474C130.121 -19.8695 129.661 -21.0921 130.359 -21.8681C130.784 -22.3402 131.589 -22.3868 132.44 -22.7211C133.903 -23.296 135.049 -23.9434 136.405 -24.1947C137.682 -24.4315 138.96 -24.8831 140.134 -25.5271C141.269 -26.149 143.354 -27.0846 143.436 -28.9635C143.53 -31.1019 143.53 -32.517 143.53 -32.7053" stroke="#8FBC5A" stroke-width="2.45637" stroke-linecap="round"/>
<path d="M214.76 183.843C213.865 181.559 208.703 176.522 207.825 175.173C206.926 173.79 204.579 170.079 202.803 169.392C201.575 168.917 199.806 167.527 198.725 166.984C197.494 166.366 195.84 164.32 195.512 162.912C195.179 161.483 195.265 159.897 194.281 158.347C194.04 157.968 193.515 157.851 193.147 157.491C191.683 156.062 192.47 151.402 190.501 149.738C189.321 148.741 187.619 148.148 187.39 147.17C187.156 146.173 186.957 143.85 188.393 142.46C190.941 139.994 192.571 138.565 194.297 137.423C197.174 135.52 198.855 134.059 198.725 132.571C198.26 127.246 194.184 130.623 193.238 129.414" stroke="#8FBC5A" stroke-width="1.9651" stroke-linecap="round"/>
<path d="M215.239 184.565C216.254 186.37 220.458 189.251 220.5 193.476C220.537 197.221 223.289 198.767 224.087 199.979C224.964 201.31 226.676 206.85 227.761 207.7C228.822 208.531 229.082 210.476 229.444 212.883C230.122 217.384 229.406 220.955 229.286 222.08C229.132 223.515 229.72 225.143 230.639 226.392C231.228 227.194 235.134 228.122 240.175 229.854C241.967 230.47 242.204 230.549 242.366 230.71C243.304 231.64 242.531 233.77 242.25 235.696C241.766 239.015 242.288 241.589 242.567 242.232C243.28 243.878 245.085 244.49 246.445 246.299C247.639 247.886 247.731 249.64 247.97 251.178C248.162 252.417 248.768 253.673 249.688 255.086C249.969 255.45 250.285 255.849 250.528 256.174C250.77 256.5 250.929 256.739 251.092 257.227" stroke="#8FBC5A" stroke-width="1.9651" stroke-linecap="round"/>
<path d="M5.06244 191.354C5.87384 191.122 8.42696 190.65 10.709 189.482C13.1787 188.219 13.6871 186.43 16.186 183.207C17.8121 181.11 18.4646 178.681 19.1081 177.213C19.8772 175.457 20.9127 174.102 22.4254 172.75C23.5365 171.756 25.1097 171.75 25.9246 171.223C26.6527 170.753 26.7464 166.153 27.1504 159.989C27.309 157.569 29.8871 157.661 34.7695 155.496C39.3849 153.45 43.632 151.673 49.6318 150.267C54.4583 149.137 58.9157 148.503 65.2513 148.325C70.4389 148.179 78.837 147.566 81.0089 146.918C83.2326 146.254 85.3772 144.396 87.1871 143.105C89.1117 141.732 90.8611 139.937 92.2007 138.877C93.8443 137.576 95.6386 136.879 97.6199 135.825C99.7421 134.695 102.864 133.709 105.022 132.889C106.882 132.181 108.922 130.899 111.839 129.777C114.952 128.58 117.665 128.426 119.886 128.423C123.198 128.417 129.186 128.313 133.523 126.026C137.244 124.062 142.035 121.501 143.613 120.853C145.766 119.969 148.1 119.268 150.599 118.564C156.165 116.995 158.473 119.148 159.703 120.084C160.993 121.065 163.02 121.959 164.83 123.312C166.248 124.372 167.685 125.481 169.376 126.834C171.688 128.683 175.841 130.532 178.409 131.064C180.468 131.491 182.375 130.539 184.41 129.428C189.116 126.859 190.538 125.263 191.702 123.791C193.577 121.421 198.106 122.79 205.146 122.845C208.191 122.869 209.655 124.545 211.171 125.251C213.209 126.2 215.013 127.475 216.767 128.947C219.463 131.211 224.337 132.646 226.384 133.644C228.094 134.478 228.429 136.865 228.896 138.516C229.634 141.124 229.016 145.206 229.07 150.125C229.097 152.528 231.108 153.892 232.332 158.112C232.609 159.068 232.856 159.527 232.975 163.661C233.094 167.794 233.094 175.582 233.152 179.768C233.225 185.037 234.374 186.416 235.653 189.405C236.884 192.284 240.187 193.693 242.182 195.107C243.424 195.987 244.978 196.166 246.321 197.687C247.66 199.203 248.014 200.857 248.597 202.326C249.624 204.918 254.519 207.543 257.393 208.554C258.762 209.035 260.021 208.73 260.719 209.022C262.366 209.712 263.284 212.009 264.45 213.89C264.977 214.739 265.267 215.654 265.965 216.241C267.464 217.501 270.16 217.532 271.561 219.173C273.31 221.222 274.937 223.52 276.224 224.869C277.911 226.636 280.526 227.979 282.983 228.981C284.611 229.645 286.941 230.564 289.104 231.096C291.209 231.613 293.47 231.508 295.509 231.682C297.326 231.838 297.559 234.319 298.493 236.022C299.362 237.607 302.091 239.13 304.55 240.66C307.124 242.263 309.331 243.244 311.08 243.542C312.965 243.862 317.347 244.188 320.813 244.48C321.343 244.525 321.803 244.54 322.214 244.947C324.354 247.065 325.531 249.929 328.558 251.113C334.135 253.293 337.303 253.106 339.293 254.105C339.647 254.399 339.877 254.748 340.227 255.102C340.577 255.456 341.039 255.804 341.864 256.164" stroke="white" stroke-width="1.47382" stroke-linecap="round"/>
<path d="M117.679 254.05C117.679 252.768 118.141 247.626 119.423 242.443C120.16 239.463 123.611 237.51 125.834 235.331C128.981 232.246 126.654 224.59 128.572 222.183C130.083 220.287 132.592 217.666 133.649 214.614C134.617 211.815 134.698 209.564 134.874 205.576C134.963 203.581 136.447 202.28 138.423 199.993C139.713 198.499 140.755 196.765 141.693 192.487C142.238 189.998 142.623 188.311 143.557 185.495C144.33 183.163 144.952 181.034 147.399 175.233C148.437 172.771 150.072 170.355 151.774 168.233C153.892 165.591 155.675 163.888 158.181 163.471C160.71 163.049 166.021 162.007 169.434 161.125C170.379 160.881 171.533 160.595 172.697 160.244C173.57 159.982 173.638 154.072 173.811 146.03C173.895 142.121 178.388 139.014 180.862 136.999C181.098 136.647 181.214 136.182 181.273 135.245C181.332 134.308 181.332 132.913 181.332 131.476" stroke="white" stroke-width="1.47382" stroke-linecap="round"/>
<path d="M127.714 128.209C127.714 130.305 128.284 134.167 128.579 137.51C128.807 140.083 130.263 142.853 132.18 144.503C135.167 147.076 139.126 145.682 139.998 146.032C141.799 146.755 142.966 150.01 144.837 153.42C146.003 155.545 146.239 157.766 146.649 159.763C147.122 162.074 147.289 163.754 147.465 166.162C147.873 167.752 148.222 168.809 148.397 170.325C148.457 171.493 147.465 173.377 147.465 175.413" stroke="white" stroke-width="1.47382" stroke-linecap="round"/>
<path d="M143.975 151.33C144.321 148.286 146.708 141.966 147.171 138.236C147.54 135.269 149.506 132.656 149.794 131.776C150.375 130.004 153.343 130.892 155.09 130.423C155.81 130.23 156.144 129.955 156.322 129.021C157.248 124.175 155.34 121.973 154.754 120.505C153.642 117.717 154.864 113.288 155.794 108.835C157.058 102.787 164.993 102.369 168.439 100.019C170.472 98.6338 174.079 95.4509 178.926 92.6825C182.035 90.9067 183.074 89.4491 184.185 88.2163C185.369 86.9012 187.502 86.0466 188.674 84.3436C189.779 82.7361 192.049 81.2352 197.165 80.3476C201.818 79.5405 204.29 77.4734 208.649 74.2559C214.584 69.8756 218.041 70.0767 219.568 68.8457C221.545 67.2513 218.293 64.6807 218.229 60.6952C218.202 59.0781 219.335 58.2173 219.916 57.5147C221.692 55.3654 227.121 54.3464 230.462 52.9939C231.41 52.6104 232.503 51.8773 233.9 51.1746C236.014 50.1116 236.116 46.365 238.391 43.0242C239.58 41.2787 239.04 38.7358 239.271 36.9747C239.354 36.3379 239.963 36.3759 240.259 36.1435C242.18 34.632 238.809 30.3952 238.748 25.7687C238.718 23.5452 238.697 21.9418 237.875 17.6676C237.148 13.8843 241.831 11.9598 243.522 10.4945C245.483 8.79494 244.986 3.77408 245.391 0.163787C245.512 -0.906662 246.15 -1.8932 246.498 -2.88999C246.785 -3.71233 249.396 -4.24253 253.003 -5.0051C259.662 -6.41261 265.494 -9.28638 267.421 -11.1673C268.123 -11.8518 268.757 -13.6293 270.851 -15.6211C272.832 -17.5069 277.246 -20.1948 282.892 -23.8861C288.7 -28.8982 289.864 -30.772 292.017 -36.98C292.547 -38.292 292.893 -38.6407 293.25 -39" stroke="white" stroke-width="1.47382" stroke-linecap="round"/>
<path d="M303.742 -33.0121C303.973 -33.0121 304.092 -31.7336 303.861 -29.5639C303.586 -26.9798 300.147 -25.0448 298.152 -23.6236C297.206 -22.9498 297.097 -20.3497 297.27 -17.5337C297.409 -15.2768 299.657 -14.4711 302.333 -10.6019C303.598 -8.77218 303.973 -7.07437 304.498 -4.78491C305.182 -1.80011 305.372 0.794312 305.606 3.37435C305.697 4.37483 306.537 4.90829 307.234 5.31863C307.888 5.70276 309.328 5.73249 311.132 5.96496C312.53 6.14505 313.066 7.49009 313.474 8.30901C314.585 10.5426 314.346 13.1222 314.99 14.8252C315.708 16.7266 317.725 18.173 319.764 20.0486C321.566 21.7061 323.202 23.3366 324.431 25.0978C325.624 26.8069 325.776 29.8951 325.428 32.2602C325.082 34.6087 324.615 36.9536 324.492 41.1152C324.425 43.4071 325.657 45.1745 325.718 48.6316C325.759 50.9026 324.146 53.1559 323.737 55.2693C323.177 58.1609 324.608 59.6157 325.365 61.0264C326.171 62.5278 327.056 64.1946 327.465 65.8378C327.804 67.197 327.64 68.4248 327.988 69.1857C328.802 70.9641 330.896 72.2887 332.648 74.0587C334.051 75.4753 337.185 76.29 339.582 76.9381C342.304 77.6739 344.879 78.5161 348.322 79.8704C351.017 80.9305 350.839 83.567 351.248 85.7912C352.269 91.3439 351.888 93.077 352.122 94.78C352.353 96.4563 352.937 98.0081 353.404 99.4769C353.939 101.161 355.259 103.749 357.013 105.583C358.057 106.574 358.998 107.405 359.869 107.99C360.393 108.342 361.086 108.807 361.799 109.286" stroke="white" stroke-width="1.47382" stroke-linecap="round"/>
<path d="M194.972 81.1084C194.972 86.9201 194.972 95.0283 195.03 103.01C195.054 106.346 195.553 107.286 196.076 108.048C197.132 109.589 199.512 111.618 200.797 113.273C201.866 114.65 201.618 117.719 202.254 119.906C202.66 120.318 203.352 120.783 203.882 121.139C204.412 121.494 205.077 122.431 205.434 122.67" stroke="white" stroke-width="1.47382" stroke-linecap="round"/>
<path d="M199.456 111.692C199.914 112.157 203.471 112.569 205.4 113.159C207.852 113.909 211.047 117.381 213.152 117.974C215.215 118.555 216.768 115.281 217.412 113.578C218.063 111.855 220.839 110.702 223.751 110.051C230.95 108.44 232.738 112.217 235.009 113.392C236.736 114.284 239.145 114.57 241.009 114.395C242.781 114.23 242.768 111.759 243.466 110.523C244.445 108.787 247.077 111.16 249.637 111.692C252.739 112.337 254.422 110.463 260.117 108.475C264.234 107.037 265.033 104.715 266.605 104.239C268.263 103.737 269.691 102.594 271.557 102.302C274.791 101.795 276.686 101.89 278.958 101.597C283.528 101.009 287.752 102.242 294.082 102.827C297.832 103.173 304.54 102.946 308.161 102.888C312.861 102.813 313.997 101.773 314.869 101.714C316.87 101.576 318.774 103.764 320.115 104.996C324.055 108.618 332.414 105.299 334.163 104.593C337.253 103.345 340.927 101.545 342.905 100.368C345.25 98.9733 347.565 98.7197 349.781 98.4273C354.332 98.2512 356.427 97.7828 358.236 97.9554C358.876 98.0152 359.799 98.0152 360.75 98.0152" stroke="white" stroke-width="1.47382" stroke-linecap="round"/>
<path d="M145.41 42.9531C149.719 40.3748 148.569 40.8491 149.735 39.1989C150.675 37.8686 151.716 36.3829 152.65 34.0371C152.885 33.4457 153.115 32.9804 153.638 32.6246C156.47 30.6979 160.453 32.9592 163.191 34.0828C165.498 35.0293 169.417 35.6678 173.666 36.1962C178.956 36.854 183.41 34.7345 187.091 34.5566C189.406 34.4447 191.923 32.9804 198.04 31.2157C201.33 30.2664 205.674 28.169 209.126 25.6999C211.072 24.3084 213.376 21.7163 215.31 19.7702C217.766 17.2986 217.817 15.2494 219.447 12.0847C221.276 8.53455 228.184 8.31766 232.902 6.21136C235.752 4.93896 236.704 2.33689 238.276 0.922713C239.883 -0.52276 243.572 -0.255476 245.968 -0.898285" stroke="white" stroke-width="1.47382" stroke-linecap="round"/>
<path d="M172.239 96.6062C171.197 96.1412 169.329 94.4999 167.815 92.7969C166.551 91.3752 165.832 89.5687 164.956 87.8657C164.199 86.3949 162.803 84.5249 161.171 82.4098C158.467 78.9039 158.137 76.5435 157.261 74.7154C155.663 71.3797 156.389 65.1526 155.513 63.4443C154.632 61.7274 153.941 59.517 153.412 56.3505C152.614 51.5636 151.262 50.1196 149.513 47.7738C148.02 45.7716 146.946 44.4841 145.316 43.1315C143.524 41.6446 140.657 41.4267 138.903 40.8984C136.693 40.2326 132.977 39.7854 129.406 38.4945C126.874 37.5791 125.961 34.3893 125.027 31.9237C124.185 29.6997 123.975 23.3929 124.321 14.7176C124.578 8.28661 126.073 3.98886 126.131 0.998478C126.259 -5.62157 126.769 -13.7562 127.467 -13.9904C127.818 -14.1084 128.165 -14.2246 128.285 -14.4589C128.896 -15.6454 127.01 -17.6201 124.51 -19.8549C122.496 -21.6548 120.603 -23.7276 119.605 -26.1351C119.778 -27.9579 119.893 -29.719 120.126 -30.7739C120.243 -31.2476 120.358 -31.5963 120.477 -31.9556" stroke="white" stroke-width="1.47382" stroke-linecap="round"/>
</g>
<g opacity="0.1">
<path d="M339.517 150.353C340.351 150.747 342.023 151.808 345.022 153.788C347.178 155.212 349.278 157.235 351.241 157.309C353.364 157.388 353.618 154.072 354.037 152.147C354.623 149.455 359.621 149.694 360.388 149.493C362.682 148.893 363.53 153.921 364.579 155.578C365.673 157.305 366.596 160.66 367.998 162.865C369.594 165.378 373.437 163.465 375.392 163.269C376.438 163.163 376.659 161.88 377.078 160.694C377.74 158.819 376.944 157.112 376.801 156.319C376.42 154.195 380.144 153.802 380.85 152.346C381.662 150.671 378.485 148.51 377.224 146.783C375.483 144.399 374.288 140.301 373.94 138.374C373.573 136.34 373.45 134.206 373.657 132.551C373.884 130.743 377.488 131.282 379.233 131.544C381.307 131.855 380.848 134.85 381.893 136.64C382.73 138.073 385.033 137.766 386.633 138.298C387.491 138.584 388.648 137.782 389.356 137.315C390.455 136.59 390.626 135.132 390.833 133.807C390.903 133.359 391.455 133.53 391.807 133.795C393.266 134.89 393.416 137.098 394.461 138.825C395.025 139.756 396.067 140.285 396.972 140.682C397.436 140.886 398.015 140.817 398.3 140.031C399.798 135.893 397.747 134.202 397.886 133.012C397.949 132.465 398.3 132.084 398.788 131.816C399.276 131.548 399.968 131.417 400.669 131.677C402.248 132.262 403.189 133.53 404.509 133.928C406.693 134.585 409.603 133.669 411.766 132.877C414.262 131.963 414.085 128.111 414.433 126.059C414.823 123.757 414.923 122.282 415.13 121.158C415.223 120.657 415.753 120.426 416.243 120.226C417.253 119.812 421.173 119.759 426.2 119.497C427.929 119.407 427.91 118.71 427.979 118.243C428.048 117.776 428.186 117.383 428.465 117.049C428.743 116.715 429.158 116.453 429.579 116.384C430 116.314 430.415 116.445 430.697 116.775C431.967 118.255 431.956 120.411 432.446 122.467C432.647 123.308 432.794 124.126 433.49 124.853C435.371 126.82 439.074 125.457 440.398 124.797C444.289 122.858 442.568 115.921 443.68 115.392C446.685 113.964 449.4 113.672 451.641 112.216C453.68 110.891 455.135 109.035 455.764 107.783C458.022 103.284 453.606 99.1057 453.602 96.525C453.599 94.5548 456.388 93.8053 458.066 93.0742C458.493 92.888 458.901 92.6133 459.253 92.2816C463.87 87.9289 460.719 75.0037 461.769 73.2773C462.221 72.5328 461.708 69.4569 460.594 65.4181C460.093 63.605 458.357 63.6043 457.035 62.9467C451.104 59.9959 453.749 49.1772 452.699 46.7257C451.669 44.3184 449.429 41.6279 447.125 39.6452C446.895 35.5408 448.294 30.7729 449.063 27.924C449.136 26.6724 448.998 24.5745 448.856 22.413" stroke="#F5F5F5" stroke-width="1.55882" stroke-linecap="round"/>
<path d="M461.826 67.4871C463.209 67.2249 465.604 66.5207 467.206 65.4658C470.554 63.2621 469.802 57.8073 469.454 54.8035C469.385 54.2072 469.383 53.4208 469.936 52.7532C472.642 49.486 477.887 51.4182 480.057 52.2745C482.858 53.3799 485.838 53.8022 488.157 54.9227C489.683 55.6604 491.715 55.92 495.324 56.1186C502.24 56.4993 507.911 55.9239 510.072 55.3955C512.762 54.7378 514.056 51.0368 514.833 47.1946C515.456 44.1169 519.343 40.587 521.534 37.9149C523.148 35.947 525.51 34.7383 526.354 33.147C526.913 31.1623 527.332 29.1717 528.786 27.5267C530.101 26.2752 532.589 24.1773 535.153 22.0158" stroke="#F5F5F5" stroke-width="1.55882" stroke-linecap="round"/>
<path d="M458.904 93.3606C458.904 93.6228 460.024 95.1206 460.719 95.9132C461.539 96.8478 462.676 97.2423 466.829 97.5065C477.598 98.1916 485.159 98.4303 485.785 99.4217C486.959 101.28 488.092 102.666 488.999 104.587C489.779 106.241 490.329 114.387 489.981 120.538C489.788 123.951 490.048 126.51 490.465 127.368C491.602 129.71 495.339 130.876 497.792 131.941C499.581 132.718 501.908 133.53 503.728 134.587C506.092 135.96 507.22 138.426 507.921 140.017C508.693 141.766 509.448 146.348 510.852 149.155C511.798 151.048 513.78 152.992 515.458 154.323C517.004 155.55 519.083 156.178 528.97 158.489C531.126 158.993 531.651 159.484 532.005 159.883C532.359 160.283 532.497 160.676 532.499 161.075C532.508 162.752 530.83 164.514 530.059 166.372C529.095 168.694 529.012 170.872 528.729 174.839C528.653 175.911 529.28 176.824 530.046 177.362C533.263 179.621 536.401 179.223 538.634 180.411C542.008 182.206 541.99 186.097 541.72 188.094C541.442 190.148 538.932 191.271 538.366 192.862C538.225 193.26 537.951 193.654 537.809 194.25C537.667 194.846 537.667 195.633 538.842 196.301C542.052 198.125 545.203 198.033 545.97 198.23C547.896 198.724 548.274 201.601 549.114 203.391C550.604 206.566 558.881 203.731 560.701 203.991C561.14 204.054 561.537 204.255 561.819 204.519C563.112 205.727 563.217 207.696 564.121 208.556C565.809 210.161 568.382 209.027 569.427 208.96C571.342 208.836 572.429 211.01 574.452 212.265C577.673 214.264 586.194 213.529 590.725 212.343C593.463 211.626 591.565 206.381 592.191 205.719C593.448 204.392 601.141 204.788 605.318 204.261C606.879 204.064 605.951 199.908 606.298 197.511C606.626 195.253 607.207 193.67 608.11 192.079C609.305 189.973 612.226 189.165 613.904 188.171C616.42 186.681 616.7 184.27 618.233 182.148C619.806 179.972 623.512 176.72 627.029 174.269C629.299 172.686 628.991 169.171 629.546 167.641C629.782 166.991 632.326 166.914 634.839 165.726C637.656 164.395 636.532 160.565 637.782 158.109C638.277 157.138 639.46 157.108 645.203 155.141C650.532 153.174 660.762 149.241 666.585 147.149C672.408 145.057 673.514 144.926 675.491 144.791" stroke="#F5F5F5" stroke-width="1.55882" stroke-linecap="round"/>
<path d="M606.017 203.692C606.989 203.823 608.992 205.304 612.505 206.441C614.607 207.121 616.415 208.491 617.676 209.947C619.355 211.886 617.136 216.294 616.355 218.291C615.378 220.786 616.281 224.908 617.326 226.899C618.274 228.704 620.186 230.209 622.695 231.599C625.447 233.125 626.478 235.64 626.339 236.896C626.209 238.081 625.64 239.872 625.847 241.99C626.108 244.653 630.516 245.84 632.198 247.626C632.576 248.027 632.619 248.486 632.621 248.885C632.632 250.955 629.695 252.857 628.715 254.514C627.713 256.207 628.153 259.071 628.778 261.465C629.611 264.662 630.667 268.066 631.57 270.935C632.616 274.259 637.638 274.845 639.667 275.642C641.28 276.275 639.883 287.734 639.188 293.784C638.982 295.575 637.512 297.882 636.536 299.809C635.533 301.789 634.58 303.318 634.159 304.909C633.685 306.697 636.247 308.483 638.825 310.998C640.526 312.657 642.665 314.045 645.317 315.043C650.482 316.831 654.118 317.629 655.997 317.892C657.046 318.154 658.29 318.678 660.41 319.219" stroke="#F5F5F5" stroke-width="1.55882" stroke-linecap="round"/>
<path d="M479.437 279.486C479.299 278.564 479.018 276.712 478.67 274.597C477.915 270.002 480.132 267.574 481.804 265.982C482.225 265.581 482.503 265.19 482.646 264.79C482.788 264.391 482.788 263.998 482.581 263.598C482.121 262.712 481.117 262.138 480.419 261.479C478.598 259.756 480.132 256.448 480.482 254.464C481.128 250.797 481.808 249.297 482.298 246.394C483.736 237.876 483.207 235.39 483.624 233.799C484.082 232.05 485.293 229.438 487.595 226.651C490.295 223.381 494.51 224.13 496.187 223.728C498.03 223.288 498.565 221.086 499.541 219.495C500.046 218.671 500.798 218.035 501.91 217.506C508.045 214.591 517.693 216.576 518.669 216.181C520.522 215.43 520.072 207.76 521.323 203.272C522.143 200.326 528.719 201.482 530.608 200.026C532.584 198.503 533.754 197.64 534.104 196.847C534.778 195.319 533.059 193.408 533.266 191.688C533.53 189.494 537.239 189.427 538.917 188.896C539.753 188.632 540.595 188.366 541.292 187.971C541.575 187.706 541.713 187.313 541.856 186.908" stroke="#F5F5F5" stroke-width="1.55882" stroke-linecap="round"/>
<path d="M339.491 152.905C340.216 153.019 341.668 153.478 343.127 154.34C344.699 155.269 344.829 157.27 344.892 159.63C344.95 161.777 344.348 164.293 344.344 167.109C344.343 168.149 345.072 168.785 345.435 169.36C345.796 169.934 346.769 169.939 347.315 169.826C349.14 169.451 348.229 166.04 348.589 163.968C348.972 161.771 352.226 162.007 353.564 160.507C354.557 159.393 354.534 157.746 355.264 156.363C355.687 155.563 356.479 154.98 357.143 154.405C357.505 154.092 358.168 154.058 358.657 154.114C359.552 154.214 360.119 155.315 361.33 157.042C362.729 159.038 363.52 160.84 364.244 162.223C365.13 163.913 367.393 165.557 369.035 166.37C369.428 166.565 369.942 166.6 370.429 166.487C371.479 166.246 372.253 165.453 372.98 164.937C374.478 163.872 374.318 161.662 374.682 157.123C374.836 155.201 376.262 154.293 376.866 152.51C377.22 151.466 375.788 149.694 374.685 147.791C373.893 146.424 375.17 144.967 375.35 144.335C375.824 142.672 379.167 143.468 380.379 143.124C380.904 142.976 381.111 142.553 381.235 142.149C381.727 140.544 380.754 139.1 380.811 136.683C380.848 135.078 383.66 138.741 384.874 139.837C385.157 140.093 385.24 140.467 385.602 140.643C385.964 140.819 386.565 140.819 386.874 140.649C388.399 139.806 388.276 137.256 388.456 136.508C388.536 136.179 388.997 136.103 389.303 136.215C390.808 136.767 391.421 140.226 393.85 143.342C394.317 143.941 394.581 144.266 394.885 144.1C397.215 142.83 396.642 139.217 397.436 137.717C397.812 137.005 398.226 136.334 398.708 135.93C400.515 134.417 402.831 138.969 403.927 140.583C405.135 142.362 406.111 143.233 406.958 143.58C408.007 144.01 409.024 142.777 409.75 142.377C412.06 141.103 412.18 137.719 412.847 136.336C413.751 134.459 416.425 135.409 417.454 135.524C417.998 135.585 418.602 135.412 418.912 134.613C419.747 132.454 419.341 130.464 419.584 129.775C420.065 128.405 421.762 127.815 423.221 127.125C424.935 126.313 427.223 125.17 428.319 123.905C428.873 123.265 429.051 121.61 428.991 119.54C428.933 117.545 426.99 116.31 427.047 114.297C427.062 113.748 427.587 113.32 427.953 113.028C428.599 112.513 429.772 112.505 430.924 112.733C434.759 113.491 431.84 122.166 432.808 123.606C433.474 124.597 434.749 125.277 435.899 125.738C436.418 125.947 436.929 125.744 437.357 125.457C439.055 124.319 439.361 122.525 439.429 120.856C439.504 118.977 436.944 118.036 436.394 116.597C436.085 115.786 436.573 114.925 437.117 114.35C438.421 112.973 442.74 111.255 445.124 109.746C446.765 108.708 448.696 106.648 450.345 103.199C450.95 101.934 450.531 99.7701 451.011 98.7134C451.733 97.1267 453.924 97.4289 454.772 96.8557C455.194 96.571 455.38 96.0546 455.384 95.6489C455.402 93.631 454.171 90.0809 455.376 87.4221C457.214 83.3667 460.353 83.1611 461.691 81.205C462.195 80.4685 462.181 79.2488 462.001 77.9833C461.891 77.2147 460.728 77.1701 460.122 76.8265C458.707 76.0243 460.113 73.2648 460.541 71.7644C461.1 69.8029 462.173 68.0783 465.869 64.4665C468.582 61.8149 469.819 58.0715 476.414 54.6789C478.128 53.7973 479.284 53.8036 480.617 54.0315C483.77 54.5707 487.767 56.4486 491.053 57.2532C491.692 57.4097 492.027 57.7124 492.393 57.8298C494.864 58.6227 500.742 56.3312 503.072 57.5967C504.039 58.1218 505.013 58.6378 506.103 58.5808C506.596 58.5551 506.953 58.4099 507.259 58.1803C508.527 57.2282 508.657 55.0812 509.081 51.8578C509.351 49.808 513.019 50.8133 514.903 49.9518C516.843 49.0646 522.084 43.3755 524.496 39.4235C525.303 38.1013 524.92 36.8873 525.342 36.2554C526.865 33.9767 532.904 31.0414 534.626 27.5694C535.155 26.5024 537.291 26.5283 538.685 25.7824C539.238 25.3784 539.479 24.9226 539.723 24.1181C539.967 23.3135 540.207 22.174 540.454 21" stroke="#8FBC5A" stroke-width="1.55882" stroke-linecap="round"/>
<path d="M362.427 24.1076C363.152 24.2216 364.604 25.1366 366.425 26.2329C368.388 27.4153 371.267 29.7291 373.102 31.9269C375.363 34.6352 376.378 37.2221 377.653 38.8917C378.692 40.2542 379.531 41.939 380.929 43.4393C382.161 44.7608 383.536 46.4279 385.296 47.8712C386.813 49.1152 388.873 50.3436 390.213 51.8974C392.08 54.0628 392.761 56.0963 394.035 59.6598C394.799 61.7957 395.914 63.8034 396.465 65.5955C397.084 67.6048 398.586 69.2177 400.163 72.1511C401.079 73.8571 401.622 75.2052 402.471 77.7346C403.049 79.4578 404.287 80.958 405.443 83.3181C406.29 85.0466 407.804 86.2549 409.748 87.0076C412.436 88.0482 416.535 89.48 421.63 91.5483C425.031 92.929 428.549 95.4606 431.953 98.4509C433.764 100.042 434.505 102.249 436.023 104.095C437.88 106.353 437.665 108.009 437.909 109.735C438.19 111.729 439.485 113.188 440.273 114.571C441.036 115.909 442.15 117.104 443.306 118.256C444.392 119.338 446.876 120.094 449.247 120.79C451.902 121.569 453.917 121.71 455.984 121.942C457.982 122.165 459.501 123.437 461.445 123.898C463.31 124.34 464.962 125.391 466.604 125.913C468.299 126.451 470.78 126.89 473.035 127.294C474.892 127.626 477.1 127.926 479.465 129.017C482.411 130.377 486.566 131.952 489.715 133.675C492.795 135.36 494.211 136.669 497.3 138.281C499.507 139.433 500.881 141.614 501.922 143.231C503.23 145.263 502.832 148.754 503.016 151.284C503.16 153.26 503.56 155.315 504.288 157.042C504.979 158.68 505.381 160.605 506.591 162.623C507.885 164.78 509.138 166.365 513.434 168.607C517.615 170.79 525.229 170.17 529.283 171.201C531.859 171.855 533.53 173.844 534.806 175.458C537.798 179.243 536.209 186.62 536.266 189.783C536.305 191.981 540.083 192.497 542.264 193.759C546.024 195.935 548.697 195.722 550.581 196.009C552.139 196.246 553.794 197.559 555.98 199.113C557.317 200.064 559.255 197.911 566.818 197.965C571.036 197.995 572.849 199.631 574.307 200.84C575.653 201.955 577.218 202.739 579.398 203.26C581.387 203.736 583.046 203.433 583.532 203.435C583.705 203.435 583.538 202.98 583.956 203.089C587.302 203.958 589.472 205.045 591.476 205.732C593.737 206.508 595.661 207.228 597.303 207.633C599.502 208.177 600.882 209.99 602.642 211.886C604.148 213.508 604.646 215.052 606.465 218.155C607.587 220.069 607.682 222.759 608.229 224.491C608.876 226.542 609.867 228.056 610.051 230.416C610.176 232.022 610.719 234.037 611.323 236.742C612.471 241.883 612.656 244.513 614.05 245.558C615.784 246.857 617.024 248.201 618.238 249.871C618.732 250.549 618.728 251.426 618.548 252.345C618.049 254.888 614.731 256.26 613.273 257.583C611.686 259.022 610.362 259.831 609.024 263.099C607.543 266.716 608.775 271.336 609.201 273.349C609.404 274.309 609.503 275.252 610.107 276.113C612.251 279.169 619.558 279.513 622.24 279.687C623.951 279.799 624.793 281.695 626.064 282.849C627.656 284.294 627.706 286.067 627.89 288.427C628.03 290.232 628.674 292.054 629.706 293.952C631.091 296.496 632.191 298.152 634.192 300.856C636.102 303.437 638.38 303.795 646.726 308.617C650.792 310.965 652.819 312.199 654.521 313.121C655.608 313.58 656.827 313.929 657.918 314.159C658.407 314.274 658.768 314.388 659.139 314.506" stroke="white" stroke-width="2" stroke-linecap="round"/>
</g>
<circle opacity="0.4" cx="192.491" cy="116" r="99.5" fill="#8FBC5A" stroke="#628D32"/>
<circle opacity="0.4" cx="474.491" cy="116" r="99.5" fill="#8FBC5A" stroke="#628D32"/>
<path d="M464.426 106.508C464.367 105.95 464.115 105.515 463.672 105.204C463.233 104.893 462.662 104.737 461.959 104.737C461.465 104.737 461.041 104.812 460.687 104.961C460.333 105.11 460.063 105.312 459.875 105.568C459.688 105.824 459.592 106.116 459.587 106.444C459.587 106.717 459.649 106.953 459.773 107.153C459.901 107.354 460.073 107.524 460.291 107.665C460.508 107.801 460.749 107.916 461.013 108.01C461.277 108.104 461.543 108.182 461.812 108.246L463.039 108.553C463.533 108.668 464.009 108.824 464.465 109.02C464.925 109.216 465.336 109.463 465.698 109.761C466.065 110.06 466.354 110.42 466.568 110.842C466.781 111.263 466.887 111.758 466.887 112.325C466.887 113.092 466.691 113.767 466.299 114.351C465.907 114.93 465.34 115.384 464.599 115.712C463.862 116.036 462.969 116.198 461.92 116.198C460.902 116.198 460.018 116.04 459.268 115.725C458.522 115.41 457.938 114.95 457.516 114.344C457.099 113.739 456.873 113.002 456.839 112.133H459.172C459.206 112.589 459.347 112.968 459.594 113.271C459.841 113.573 460.163 113.799 460.559 113.948C460.96 114.097 461.407 114.172 461.901 114.172C462.417 114.172 462.869 114.095 463.256 113.942C463.648 113.784 463.955 113.567 464.177 113.29C464.398 113.008 464.511 112.68 464.516 112.305C464.511 111.964 464.411 111.683 464.215 111.462C464.019 111.236 463.744 111.048 463.391 110.899C463.041 110.746 462.632 110.609 462.163 110.49L460.674 110.107C459.596 109.83 458.744 109.41 458.117 108.847C457.495 108.281 457.184 107.528 457.184 106.591C457.184 105.82 457.393 105.144 457.81 104.565C458.232 103.985 458.805 103.535 459.53 103.216C460.254 102.892 461.075 102.73 461.991 102.73C462.92 102.73 463.734 102.892 464.433 103.216C465.136 103.535 465.688 103.981 466.088 104.552C466.489 105.119 466.695 105.771 466.708 106.508H464.426ZM468.899 116V106.182H471.213V116H468.899ZM470.062 104.788C469.696 104.788 469.381 104.667 469.116 104.424C468.852 104.177 468.72 103.881 468.72 103.535C468.72 103.186 468.852 102.89 469.116 102.647C469.381 102.4 469.696 102.276 470.062 102.276C470.433 102.276 470.748 102.4 471.008 102.647C471.273 102.89 471.405 103.186 471.405 103.535C471.405 103.881 471.273 104.177 471.008 104.424C470.748 104.667 470.433 104.788 470.062 104.788ZM477.939 116.192C476.955 116.192 476.104 115.987 475.389 115.578C474.677 115.165 474.129 114.581 473.746 113.827C473.362 113.068 473.17 112.175 473.17 111.148C473.17 110.138 473.362 109.252 473.746 108.489C474.134 107.722 474.675 107.126 475.369 106.7C476.064 106.269 476.88 106.054 477.818 106.054C478.423 106.054 478.994 106.152 479.531 106.348C480.072 106.54 480.549 106.838 480.962 107.243C481.38 107.648 481.708 108.163 481.947 108.79C482.185 109.412 482.305 110.153 482.305 111.014V111.724H474.257V110.164H480.087C480.082 109.721 479.987 109.327 479.799 108.982C479.612 108.632 479.349 108.357 479.013 108.157C478.68 107.957 478.293 107.857 477.849 107.857C477.376 107.857 476.961 107.972 476.603 108.202C476.245 108.428 475.966 108.726 475.766 109.097C475.57 109.463 475.469 109.866 475.465 110.305V111.666C475.465 112.237 475.57 112.727 475.778 113.136C475.987 113.541 476.279 113.852 476.654 114.07C477.029 114.283 477.468 114.389 477.971 114.389C478.308 114.389 478.612 114.342 478.885 114.249C479.158 114.151 479.394 114.008 479.594 113.82C479.795 113.633 479.946 113.401 480.048 113.124L482.209 113.366C482.072 113.937 481.813 114.436 481.429 114.862C481.05 115.284 480.564 115.612 479.972 115.847C479.379 116.077 478.702 116.192 477.939 116.192ZM488.532 119.886C487.701 119.886 486.987 119.773 486.391 119.548C485.794 119.326 485.315 119.028 484.953 118.653C484.59 118.278 484.339 117.862 484.198 117.406L486.282 116.901C486.376 117.093 486.512 117.283 486.691 117.47C486.87 117.662 487.111 117.82 487.414 117.943C487.72 118.071 488.106 118.135 488.571 118.135C489.227 118.135 489.77 117.975 490.2 117.656C490.631 117.34 490.846 116.82 490.846 116.096V114.236H490.731C490.612 114.474 490.437 114.719 490.207 114.971C489.981 115.222 489.681 115.433 489.306 115.604C488.935 115.774 488.468 115.859 487.906 115.859C487.151 115.859 486.468 115.682 485.854 115.329C485.245 114.971 484.759 114.438 484.397 113.731C484.039 113.019 483.86 112.129 483.86 111.059C483.86 109.981 484.039 109.071 484.397 108.33C484.759 107.584 485.247 107.019 485.86 106.636C486.474 106.248 487.158 106.054 487.912 106.054C488.487 106.054 488.96 106.152 489.331 106.348C489.706 106.54 490.004 106.772 490.226 107.045C490.448 107.313 490.616 107.567 490.731 107.805H490.859V106.182H493.141V116.16C493.141 116.999 492.941 117.694 492.54 118.244C492.139 118.793 491.592 119.205 490.897 119.477C490.203 119.75 489.414 119.886 488.532 119.886ZM488.551 114.044C489.041 114.044 489.459 113.925 489.804 113.686C490.149 113.447 490.411 113.104 490.59 112.657C490.769 112.209 490.859 111.673 490.859 111.046C490.859 110.428 490.769 109.887 490.59 109.423C490.416 108.958 490.156 108.598 489.811 108.342C489.47 108.082 489.05 107.952 488.551 107.952C488.036 107.952 487.605 108.087 487.26 108.355C486.915 108.624 486.655 108.992 486.48 109.461C486.306 109.925 486.218 110.454 486.218 111.046C486.218 111.647 486.306 112.173 486.48 112.625C486.659 113.072 486.921 113.422 487.267 113.673C487.616 113.92 488.044 114.044 488.551 114.044ZM499.859 116.192C498.875 116.192 498.024 115.987 497.308 115.578C496.597 115.165 496.049 114.581 495.666 113.827C495.282 113.068 495.09 112.175 495.09 111.148C495.09 110.138 495.282 109.252 495.666 108.489C496.053 107.722 496.595 107.126 497.289 106.7C497.984 106.269 498.8 106.054 499.737 106.054C500.343 106.054 500.914 106.152 501.45 106.348C501.992 106.54 502.469 106.838 502.882 107.243C503.3 107.648 503.628 108.163 503.867 108.79C504.105 109.412 504.225 110.153 504.225 111.014V111.724H496.177V110.164H502.007C502.002 109.721 501.906 109.327 501.719 108.982C501.531 108.632 501.269 108.357 500.933 108.157C500.6 107.957 500.213 107.857 499.769 107.857C499.296 107.857 498.881 107.972 498.523 108.202C498.165 108.428 497.886 108.726 497.686 109.097C497.49 109.463 497.389 109.866 497.385 110.305V111.666C497.385 112.237 497.49 112.727 497.698 113.136C497.907 113.541 498.199 113.852 498.574 114.07C498.949 114.283 499.388 114.389 499.891 114.389C500.227 114.389 500.532 114.342 500.805 114.249C501.078 114.151 501.314 114.008 501.514 113.82C501.715 113.633 501.866 113.401 501.968 113.124L504.129 113.366C503.992 113.937 503.732 114.436 503.349 114.862C502.97 115.284 502.484 115.612 501.892 115.847C501.299 116.077 500.622 116.192 499.859 116.192ZM508.496 110.247V116H506.182V106.182H508.394V107.85H508.509C508.735 107.3 509.095 106.864 509.589 106.54C510.088 106.216 510.704 106.054 511.436 106.054C512.114 106.054 512.704 106.199 513.207 106.489C513.714 106.778 514.106 107.198 514.383 107.748C514.664 108.298 514.803 108.964 514.799 109.749V116H512.485V110.107C512.485 109.45 512.314 108.937 511.973 108.566C511.637 108.195 511.17 108.01 510.574 108.01C510.169 108.01 509.809 108.099 509.493 108.278C509.182 108.453 508.937 108.707 508.758 109.039C508.583 109.371 508.496 109.774 508.496 110.247Z" fill="white"/>
<path d="M182.245 120V106.909H184.617V112.924H184.777L189.884 106.909H192.78L187.717 112.783L192.824 120H189.973L186.068 114.388L184.617 116.101V120H182.245ZM197.887 120.192C196.928 120.192 196.097 119.981 195.394 119.559C194.691 119.137 194.145 118.547 193.757 117.788C193.374 117.03 193.182 116.143 193.182 115.129C193.182 114.115 193.374 113.227 193.757 112.464C194.145 111.701 194.691 111.109 195.394 110.687C196.097 110.265 196.928 110.054 197.887 110.054C198.846 110.054 199.677 110.265 200.38 110.687C201.083 111.109 201.626 111.701 202.01 112.464C202.397 113.227 202.591 114.115 202.591 115.129C202.591 116.143 202.397 117.03 202.01 117.788C201.626 118.547 201.083 119.137 200.38 119.559C199.677 119.981 198.846 120.192 197.887 120.192ZM197.9 118.338C198.419 118.338 198.854 118.195 199.204 117.91C199.553 117.62 199.813 117.232 199.983 116.746C200.158 116.261 200.245 115.719 200.245 115.123C200.245 114.522 200.158 113.979 199.983 113.493C199.813 113.003 199.553 112.613 199.204 112.323C198.854 112.033 198.419 111.888 197.9 111.888C197.367 111.888 196.924 112.033 196.57 112.323C196.221 112.613 195.958 113.003 195.784 113.493C195.613 113.979 195.528 114.522 195.528 115.123C195.528 115.719 195.613 116.261 195.784 116.746C195.958 117.232 196.221 117.62 196.57 117.91C196.924 118.195 197.367 118.338 197.9 118.338ZM195.976 108.737C195.639 108.737 195.347 108.618 195.1 108.379C194.857 108.141 194.735 107.859 194.735 107.535C194.735 107.195 194.857 106.909 195.1 106.679C195.347 106.445 195.639 106.327 195.976 106.327C196.321 106.327 196.61 106.445 196.845 106.679C197.083 106.909 197.203 107.195 197.203 107.535C197.203 107.859 197.083 108.141 196.845 108.379C196.61 108.618 196.321 108.737 195.976 108.737ZM199.811 108.737C199.474 108.737 199.182 108.618 198.935 108.379C198.692 108.141 198.571 107.859 198.571 107.535C198.571 107.195 198.692 106.909 198.935 106.679C199.182 106.445 199.474 106.327 199.811 106.327C200.156 106.327 200.446 106.445 200.68 106.679C200.919 106.909 201.038 107.195 201.038 107.535C201.038 107.859 200.919 108.141 200.68 108.379C200.446 108.618 200.156 108.737 199.811 108.737ZM206.869 106.909V120H204.555V106.909H206.869ZM211.563 114.247V120H209.249V110.182H211.46V111.85H211.575C211.801 111.3 212.161 110.864 212.656 110.54C213.154 110.216 213.77 110.054 214.503 110.054C215.18 110.054 215.771 110.199 216.273 110.489C216.781 110.778 217.173 111.198 217.45 111.748C217.731 112.298 217.869 112.964 217.865 113.749V120H215.551V114.107C215.551 113.45 215.381 112.937 215.04 112.566C214.703 112.195 214.237 112.01 213.64 112.01C213.235 112.01 212.875 112.099 212.56 112.278C212.249 112.453 212.004 112.707 211.825 113.039C211.65 113.371 211.563 113.774 211.563 114.247Z" fill="white"/>
<path opacity="0.5" d="M512.389 153L509.207 141.364H510.639L513.071 150.841H513.185L515.662 141.364H517.253L519.73 150.841H519.844L522.275 141.364H523.707L520.525 153H519.071L516.503 143.727H516.412L513.844 153H512.389ZM525.281 153V144.273H526.622V153H525.281ZM525.963 142.818C525.702 142.818 525.476 142.729 525.287 142.551C525.101 142.373 525.008 142.159 525.008 141.909C525.008 141.659 525.101 141.445 525.287 141.267C525.476 141.089 525.702 141 525.963 141C526.224 141 526.448 141.089 526.633 141.267C526.823 141.445 526.917 141.659 526.917 141.909C526.917 142.159 526.823 142.373 526.633 142.551C526.448 142.729 526.224 142.818 525.963 142.818ZM530.419 141.364V153H529.078V141.364H530.419ZM534.216 147.75V153H532.875V144.273H534.17V145.636H534.284C534.488 145.193 534.799 144.837 535.216 144.568C535.632 144.295 536.17 144.159 536.829 144.159C537.42 144.159 537.937 144.28 538.381 144.523C538.824 144.761 539.168 145.125 539.415 145.614C539.661 146.098 539.784 146.712 539.784 147.455V153H538.443V147.545C538.443 146.86 538.265 146.326 537.909 145.943C537.553 145.557 537.064 145.364 536.443 145.364C536.015 145.364 535.632 145.456 535.295 145.642C534.962 145.828 534.699 146.098 534.506 146.455C534.312 146.811 534.216 147.242 534.216 147.75ZM548.416 146.227L547.212 146.568C547.136 146.367 547.024 146.172 546.876 145.983C546.732 145.79 546.535 145.631 546.285 145.506C546.035 145.381 545.715 145.318 545.325 145.318C544.791 145.318 544.346 145.441 543.99 145.687C543.638 145.93 543.462 146.239 543.462 146.614C543.462 146.947 543.583 147.21 543.825 147.403C544.068 147.597 544.446 147.758 544.962 147.886L546.257 148.205C547.037 148.394 547.619 148.684 548.001 149.074C548.384 149.46 548.575 149.958 548.575 150.568C548.575 151.068 548.431 151.515 548.143 151.909C547.859 152.303 547.462 152.614 546.95 152.841C546.439 153.068 545.844 153.182 545.166 153.182C544.276 153.182 543.539 152.989 542.956 152.602C542.372 152.216 542.003 151.651 541.848 150.909L543.121 150.591C543.242 151.061 543.471 151.413 543.808 151.648C544.149 151.883 544.594 152 545.143 152C545.768 152 546.265 151.867 546.632 151.602C547.003 151.333 547.189 151.011 547.189 150.636C547.189 150.333 547.083 150.08 546.871 149.875C546.658 149.667 546.333 149.511 545.893 149.409L544.439 149.068C543.64 148.879 543.052 148.585 542.677 148.187C542.306 147.786 542.121 147.284 542.121 146.682C542.121 146.189 542.259 145.754 542.535 145.375C542.816 144.996 543.196 144.699 543.677 144.483C544.162 144.267 544.712 144.159 545.325 144.159C546.189 144.159 546.867 144.348 547.359 144.727C547.855 145.106 548.208 145.606 548.416 146.227ZM553.889 153.182C553.162 153.182 552.52 152.998 551.963 152.631C551.406 152.259 550.97 151.737 550.656 151.062C550.342 150.384 550.185 149.583 550.185 148.659C550.185 147.742 550.342 146.947 550.656 146.273C550.97 145.598 551.408 145.078 551.969 144.71C552.529 144.343 553.177 144.159 553.912 144.159C554.48 144.159 554.929 144.254 555.258 144.443C555.592 144.629 555.845 144.841 556.02 145.08C556.198 145.314 556.336 145.508 556.435 145.659H556.548V141.364H557.889V153H556.594V151.659H556.435C556.336 151.818 556.196 152.019 556.014 152.261C555.832 152.5 555.573 152.714 555.236 152.903C554.899 153.089 554.45 153.182 553.889 153.182ZM554.071 151.977C554.609 151.977 555.063 151.837 555.435 151.557C555.806 151.273 556.088 150.881 556.281 150.381C556.474 149.877 556.571 149.295 556.571 148.636C556.571 147.985 556.476 147.415 556.287 146.926C556.097 146.434 555.817 146.051 555.446 145.778C555.075 145.502 554.616 145.364 554.071 145.364C553.503 145.364 553.029 145.509 552.65 145.801C552.275 146.089 551.993 146.481 551.804 146.977C551.618 147.47 551.525 148.023 551.525 148.636C551.525 149.258 551.62 149.822 551.81 150.33C552.003 150.833 552.287 151.235 552.662 151.534C553.041 151.83 553.51 151.977 554.071 151.977ZM564.077 153.182C563.289 153.182 562.597 152.994 562.003 152.619C561.412 152.244 560.95 151.72 560.616 151.045C560.287 150.371 560.122 149.583 560.122 148.682C560.122 147.773 560.287 146.979 560.616 146.301C560.95 145.623 561.412 145.097 562.003 144.722C562.597 144.347 563.289 144.159 564.077 144.159C564.864 144.159 565.554 144.347 566.145 144.722C566.739 145.097 567.202 145.623 567.531 146.301C567.864 146.979 568.031 147.773 568.031 148.682C568.031 149.583 567.864 150.371 567.531 151.045C567.202 151.72 566.739 152.244 566.145 152.619C565.554 152.994 564.864 153.182 564.077 153.182ZM564.077 151.977C564.675 151.977 565.167 151.824 565.554 151.517C565.94 151.21 566.226 150.807 566.412 150.307C566.597 149.807 566.69 149.265 566.69 148.682C566.69 148.098 566.597 147.555 566.412 147.051C566.226 146.547 565.94 146.14 565.554 145.83C565.167 145.519 564.675 145.364 564.077 145.364C563.478 145.364 562.986 145.519 562.599 145.83C562.213 146.14 561.927 146.547 561.741 147.051C561.556 147.555 561.463 148.098 561.463 148.682C561.463 149.265 561.556 149.807 561.741 150.307C561.927 150.807 562.213 151.21 562.599 151.517C562.986 151.824 563.478 151.977 564.077 151.977ZM570.078 153V144.273H571.373V145.591H571.464C571.623 145.159 571.911 144.809 572.328 144.54C572.745 144.271 573.214 144.136 573.737 144.136C573.836 144.136 573.959 144.138 574.106 144.142C574.254 144.146 574.366 144.151 574.442 144.159V145.523C574.396 145.511 574.292 145.494 574.129 145.472C573.97 145.445 573.801 145.432 573.623 145.432C573.199 145.432 572.82 145.521 572.487 145.699C572.158 145.873 571.896 146.115 571.703 146.426C571.514 146.733 571.419 147.083 571.419 147.477V153H570.078ZM580.464 144.273V145.409H575.76V144.273H580.464ZM577.169 153V143.068C577.169 142.568 577.286 142.151 577.521 141.818C577.756 141.485 578.061 141.235 578.436 141.068C578.811 140.901 579.207 140.818 579.623 140.818C579.953 140.818 580.222 140.845 580.43 140.898C580.639 140.951 580.794 141 580.896 141.045L580.51 142.205C580.442 142.182 580.347 142.153 580.226 142.119C580.108 142.085 579.953 142.068 579.76 142.068C579.317 142.068 578.997 142.18 578.8 142.403C578.606 142.627 578.51 142.955 578.51 143.386V153H577.169Z" fill="white"/>
<path opacity="0.5" d="M509.564 205V193.364H510.974V198.545H517.178V193.364H518.587V205H517.178V199.795H510.974V205H509.564ZM523.795 205.205C523.242 205.205 522.74 205.1 522.289 204.892C521.838 204.68 521.48 204.375 521.215 203.977C520.95 203.576 520.817 203.091 520.817 202.523C520.817 202.023 520.916 201.617 521.113 201.307C521.31 200.992 521.573 200.746 521.903 200.568C522.232 200.39 522.596 200.258 522.993 200.17C523.395 200.08 523.798 200.008 524.204 199.955C524.734 199.886 525.164 199.835 525.493 199.801C525.827 199.763 526.069 199.701 526.221 199.614C526.376 199.526 526.454 199.375 526.454 199.159V199.114C526.454 198.553 526.3 198.117 525.993 197.807C525.69 197.496 525.23 197.341 524.613 197.341C523.973 197.341 523.471 197.481 523.107 197.761C522.743 198.042 522.488 198.341 522.34 198.659L521.067 198.205C521.295 197.674 521.598 197.261 521.976 196.966C522.359 196.667 522.776 196.458 523.226 196.341C523.681 196.22 524.128 196.159 524.567 196.159C524.848 196.159 525.17 196.193 525.533 196.261C525.901 196.326 526.255 196.46 526.596 196.665C526.94 196.869 527.226 197.178 527.454 197.591C527.681 198.004 527.795 198.557 527.795 199.25V205H526.454V203.818H526.386C526.295 204.008 526.143 204.21 525.931 204.426C525.719 204.642 525.437 204.826 525.084 204.977C524.732 205.129 524.302 205.205 523.795 205.205ZM523.999 204C524.529 204 524.976 203.896 525.34 203.687C525.707 203.479 525.984 203.21 526.17 202.881C526.359 202.551 526.454 202.205 526.454 201.841V200.614C526.397 200.682 526.272 200.744 526.079 200.801C525.889 200.854 525.67 200.901 525.42 200.943C525.173 200.981 524.933 201.015 524.698 201.045C524.467 201.072 524.279 201.095 524.136 201.114C523.787 201.159 523.461 201.233 523.158 201.335C522.859 201.434 522.617 201.583 522.431 201.784C522.249 201.981 522.158 202.25 522.158 202.591C522.158 203.057 522.331 203.409 522.675 203.648C523.024 203.883 523.465 204 523.999 204ZM530.242 205V196.273H531.583V205H530.242ZM530.924 194.818C530.662 194.818 530.437 194.729 530.248 194.551C530.062 194.373 529.969 194.159 529.969 193.909C529.969 193.659 530.062 193.445 530.248 193.267C530.437 193.089 530.662 193 530.924 193C531.185 193 531.409 193.089 531.594 193.267C531.784 193.445 531.878 193.659 531.878 193.909C531.878 194.159 531.784 194.373 531.594 194.551C531.409 194.729 531.185 194.818 530.924 194.818ZM537.562 208.455C536.914 208.455 536.357 208.371 535.891 208.205C535.425 208.042 535.037 207.826 534.726 207.557C534.42 207.292 534.175 207.008 533.993 206.705L535.062 205.955C535.183 206.114 535.336 206.295 535.522 206.5C535.707 206.708 535.961 206.888 536.283 207.04C536.609 207.195 537.035 207.273 537.562 207.273C538.266 207.273 538.848 207.102 539.306 206.761C539.764 206.42 539.993 205.886 539.993 205.159V203.386H539.88C539.781 203.545 539.641 203.742 539.459 203.977C539.281 204.208 539.024 204.415 538.687 204.597C538.353 204.775 537.903 204.864 537.334 204.864C536.63 204.864 535.997 204.697 535.437 204.364C534.88 204.03 534.439 203.545 534.113 202.909C533.791 202.273 533.63 201.5 533.63 200.591C533.63 199.697 533.787 198.919 534.101 198.256C534.416 197.589 534.853 197.074 535.414 196.71C535.975 196.343 536.622 196.159 537.357 196.159C537.925 196.159 538.376 196.254 538.709 196.443C539.046 196.629 539.304 196.841 539.482 197.08C539.664 197.314 539.804 197.508 539.903 197.659H540.039V196.273H541.334V205.25C541.334 206 541.164 206.61 540.823 207.08C540.486 207.553 540.031 207.9 539.459 208.119C538.891 208.343 538.259 208.455 537.562 208.455ZM537.516 203.659C538.054 203.659 538.509 203.536 538.88 203.29C539.251 203.044 539.533 202.689 539.726 202.227C539.92 201.765 540.016 201.212 540.016 200.568C540.016 199.939 539.921 199.384 539.732 198.903C539.543 198.422 539.262 198.045 538.891 197.773C538.52 197.5 538.062 197.364 537.516 197.364C536.948 197.364 536.475 197.508 536.096 197.795C535.721 198.083 535.439 198.47 535.249 198.955C535.064 199.439 534.971 199.977 534.971 200.568C534.971 201.174 535.065 201.71 535.255 202.176C535.448 202.638 535.732 203.002 536.107 203.267C536.486 203.528 536.956 203.659 537.516 203.659ZM547.448 205.182C546.607 205.182 545.882 204.996 545.272 204.625C544.666 204.25 544.198 203.727 543.868 203.057C543.543 202.383 543.38 201.598 543.38 200.705C543.38 199.811 543.543 199.023 543.868 198.341C544.198 197.655 544.656 197.121 545.243 196.739C545.834 196.352 546.524 196.159 547.312 196.159C547.766 196.159 548.215 196.235 548.658 196.386C549.101 196.538 549.505 196.784 549.868 197.125C550.232 197.462 550.522 197.909 550.738 198.466C550.954 199.023 551.062 199.708 551.062 200.523V201.091H544.334V199.932H549.698C549.698 199.439 549.6 199 549.403 198.614C549.209 198.227 548.933 197.922 548.573 197.699C548.217 197.475 547.796 197.364 547.312 197.364C546.778 197.364 546.315 197.496 545.925 197.761C545.539 198.023 545.242 198.364 545.033 198.784C544.825 199.205 544.721 199.655 544.721 200.136V200.909C544.721 201.568 544.834 202.127 545.062 202.585C545.293 203.04 545.613 203.386 546.022 203.625C546.431 203.86 546.906 203.977 547.448 203.977C547.8 203.977 548.118 203.928 548.403 203.83C548.69 203.727 548.939 203.576 549.147 203.375C549.355 203.17 549.516 202.917 549.63 202.614L550.925 202.977C550.789 203.417 550.56 203.803 550.238 204.136C549.916 204.466 549.518 204.723 549.045 204.909C548.571 205.091 548.039 205.182 547.448 205.182ZM553.101 205V196.273H554.397V197.591H554.488C554.647 197.159 554.935 196.809 555.351 196.54C555.768 196.271 556.238 196.136 556.761 196.136C556.859 196.136 556.982 196.138 557.13 196.142C557.278 196.146 557.389 196.151 557.465 196.159V197.523C557.42 197.511 557.315 197.494 557.153 197.472C556.993 197.445 556.825 197.432 556.647 197.432C556.223 197.432 555.844 197.521 555.511 197.699C555.181 197.873 554.92 198.115 554.726 198.426C554.537 198.733 554.442 199.083 554.442 199.477V205H553.101Z" fill="white"/>
<path opacity="0.5" d="M494.104 52.3636V64H492.741L486.4 54.8636H486.286V64H484.877V52.3636H486.241L492.604 61.5227H492.718V52.3636H494.104ZM500.401 64.1818C499.56 64.1818 498.835 63.9962 498.225 63.625C497.619 63.25 497.151 62.7273 496.822 62.0568C496.496 61.3826 496.333 60.5985 496.333 59.7045C496.333 58.8106 496.496 58.0227 496.822 57.3409C497.151 56.6553 497.609 56.1212 498.197 55.7386C498.787 55.3523 499.477 55.1591 500.265 55.1591C500.719 55.1591 501.168 55.2348 501.611 55.3864C502.055 55.5379 502.458 55.7841 502.822 56.125C503.185 56.4621 503.475 56.9091 503.691 57.4659C503.907 58.0227 504.015 58.7083 504.015 59.5227V60.0909H497.287V58.9318H502.651C502.651 58.4394 502.553 58 502.356 57.6136C502.162 57.2273 501.886 56.9223 501.526 56.6989C501.17 56.4754 500.75 56.3636 500.265 56.3636C499.731 56.3636 499.269 56.4962 498.878 56.7614C498.492 57.0227 498.195 57.3636 497.986 57.7841C497.778 58.2045 497.674 58.6553 497.674 59.1364V59.9091C497.674 60.5682 497.787 61.1269 498.015 61.5852C498.246 62.0398 498.566 62.3864 498.975 62.625C499.384 62.8598 499.859 62.9773 500.401 62.9773C500.753 62.9773 501.072 62.928 501.356 62.8295C501.644 62.7273 501.892 62.5758 502.1 62.375C502.308 62.1705 502.469 61.9167 502.583 61.6136L503.878 61.9773C503.742 62.4167 503.513 62.803 503.191 63.1364C502.869 63.4659 502.471 63.7235 501.998 63.9091C501.524 64.0909 500.992 64.1818 500.401 64.1818ZM509.85 55.2727V56.4091H505.327V55.2727H509.85ZM506.645 53.1818H507.986V61.5C507.986 61.8788 508.041 62.1629 508.151 62.3523C508.265 62.5379 508.409 62.6629 508.583 62.7273C508.761 62.7879 508.948 62.8182 509.145 62.8182C509.293 62.8182 509.414 62.8106 509.509 62.7955C509.604 62.7765 509.68 62.7614 509.736 62.75L510.009 63.9545C509.918 63.9886 509.791 64.0227 509.628 64.0568C509.466 64.0947 509.259 64.1136 509.009 64.1136C508.63 64.1136 508.259 64.0322 507.895 63.8693C507.536 63.7064 507.236 63.4583 506.998 63.125C506.763 62.7917 506.645 62.3712 506.645 61.8636V53.1818ZM511.867 67.2727V55.2727H513.162V56.6591H513.322C513.42 56.5076 513.556 56.3144 513.731 56.0795C513.909 55.8409 514.162 55.6288 514.492 55.4432C514.825 55.2538 515.276 55.1591 515.844 55.1591C516.579 55.1591 517.227 55.3428 517.787 55.7102C518.348 56.0777 518.786 56.5985 519.1 57.2727C519.414 57.947 519.572 58.7424 519.572 59.6591C519.572 60.5833 519.414 61.3845 519.1 62.0625C518.786 62.7367 518.35 63.2595 517.793 63.6307C517.236 63.9981 516.594 64.1818 515.867 64.1818C515.306 64.1818 514.858 64.089 514.52 63.9034C514.183 63.714 513.924 63.5 513.742 63.2614C513.56 63.0189 513.42 62.8182 513.322 62.6591H513.208V67.2727H511.867ZM513.185 59.6364C513.185 60.2955 513.282 60.8769 513.475 61.3807C513.668 61.8807 513.95 62.2727 514.322 62.5568C514.693 62.8371 515.147 62.9773 515.685 62.9773C516.246 62.9773 516.714 62.8295 517.089 62.5341C517.467 62.2348 517.752 61.8333 517.941 61.3295C518.134 60.822 518.231 60.2576 518.231 59.6364C518.231 59.0227 518.136 58.4697 517.947 57.9773C517.761 57.4811 517.479 57.089 517.1 56.8011C516.725 56.5095 516.253 56.3636 515.685 56.3636C515.14 56.3636 514.681 56.5019 514.31 56.7784C513.939 57.0511 513.659 57.4337 513.469 57.9261C513.28 58.4148 513.185 58.9848 513.185 59.6364ZM522.958 58.75V64H521.617V52.3636H522.958V56.6364H523.072C523.276 56.1856 523.583 55.8277 523.992 55.5625C524.405 55.2936 524.954 55.1591 525.64 55.1591C526.234 55.1591 526.755 55.2784 527.202 55.517C527.649 55.7519 527.996 56.1136 528.242 56.6023C528.492 57.0871 528.617 57.7045 528.617 58.4545V64H527.276V58.5455C527.276 57.8523 527.096 57.3163 526.736 56.9375C526.38 56.5549 525.886 56.3636 525.253 56.3636C524.814 56.3636 524.42 56.4564 524.072 56.642C523.727 56.8277 523.454 57.0985 523.253 57.4545C523.056 57.8106 522.958 58.2424 522.958 58.75ZM534.729 64.1818C533.888 64.1818 533.163 63.9962 532.553 63.625C531.947 63.25 531.479 62.7273 531.15 62.0568C530.824 61.3826 530.661 60.5985 530.661 59.7045C530.661 58.8106 530.824 58.0227 531.15 57.3409C531.479 56.6553 531.938 56.1212 532.525 55.7386C533.116 55.3523 533.805 55.1591 534.593 55.1591C535.047 55.1591 535.496 55.2348 535.939 55.3864C536.383 55.5379 536.786 55.7841 537.15 56.125C537.513 56.4621 537.803 56.9091 538.019 57.4659C538.235 58.0227 538.343 58.7083 538.343 59.5227V60.0909H531.616V58.9318H536.979C536.979 58.4394 536.881 58 536.684 57.6136C536.491 57.2273 536.214 56.9223 535.854 56.6989C535.498 56.4754 535.078 56.3636 534.593 56.3636C534.059 56.3636 533.597 56.4962 533.207 56.7614C532.82 57.0227 532.523 57.3636 532.314 57.7841C532.106 58.2045 532.002 58.6553 532.002 59.1364V59.9091C532.002 60.5682 532.116 61.1269 532.343 61.5852C532.574 62.0398 532.894 62.3864 533.303 62.625C533.712 62.8598 534.188 62.9773 534.729 62.9773C535.082 62.9773 535.4 62.928 535.684 62.8295C535.972 62.7273 536.22 62.5758 536.428 62.375C536.636 62.1705 536.797 61.9167 536.911 61.6136L538.207 61.9773C538.07 62.4167 537.841 62.803 537.519 63.1364C537.197 63.4659 536.799 63.7235 536.326 63.9091C535.852 64.0909 535.32 64.1818 534.729 64.1818ZM541.724 58.75V64H540.383V55.2727H541.678V56.6364H541.792C541.996 56.1932 542.307 55.8371 542.724 55.5682C543.14 55.2955 543.678 55.1591 544.337 55.1591C544.928 55.1591 545.445 55.2803 545.888 55.5227C546.332 55.7614 546.676 56.125 546.922 56.6136C547.169 57.0985 547.292 57.7121 547.292 58.4545V64H545.951V58.5455C545.951 57.8598 545.773 57.3258 545.417 56.9432C545.061 56.5568 544.572 56.3636 543.951 56.3636C543.523 56.3636 543.14 56.4564 542.803 56.642C542.47 56.8277 542.207 57.0985 542.013 57.4545C541.82 57.8106 541.724 58.2424 541.724 58.75Z" fill="white"/>
<path opacity="0.5" d="M122.804 27H119.213V15.3636H122.963C124.092 15.3636 125.058 15.5966 125.861 16.0625C126.664 16.5246 127.279 17.1894 127.707 18.0568C128.135 18.9205 128.349 19.9545 128.349 21.1591C128.349 22.3712 128.133 23.4148 127.702 24.2898C127.27 25.161 126.641 25.8314 125.815 26.3011C124.989 26.767 123.986 27 122.804 27ZM120.622 25.75H122.713C123.675 25.75 124.472 25.5644 125.105 25.1932C125.738 24.822 126.209 24.2936 126.52 23.608C126.83 22.9223 126.986 22.1061 126.986 21.1591C126.986 20.2197 126.832 19.411 126.525 18.733C126.219 18.0511 125.76 17.5284 125.15 17.1648C124.541 16.7973 123.781 16.6136 122.872 16.6136H120.622V25.75ZM136.031 23.4318V18.2727H137.372V27H136.031V25.5227H135.94C135.736 25.9659 135.417 26.3428 134.986 26.6534C134.554 26.9602 134.008 27.1136 133.349 27.1136C132.804 27.1136 132.319 26.9943 131.895 26.7557C131.47 26.5133 131.137 26.1496 130.895 25.6648C130.652 25.1761 130.531 24.5606 130.531 23.8182V18.2727H131.872V23.7273C131.872 24.3636 132.05 24.8712 132.406 25.25C132.766 25.6288 133.224 25.8182 133.781 25.8182C134.114 25.8182 134.453 25.733 134.798 25.5625C135.147 25.392 135.438 25.1307 135.673 24.7784C135.912 24.4261 136.031 23.9773 136.031 23.4318ZM132.327 16.8182C132.088 16.8182 131.876 16.7273 131.69 16.5455C131.508 16.3598 131.417 16.1477 131.417 15.9091C131.417 15.6477 131.508 15.4318 131.69 15.2614C131.876 15.0871 132.088 15 132.327 15C132.588 15 132.804 15.0871 132.974 15.2614C133.149 15.4318 133.236 15.6477 133.236 15.9091C133.236 16.1477 133.149 16.3598 132.974 16.5455C132.804 16.7273 132.588 16.8182 132.327 16.8182ZM135.599 16.8182C135.361 16.8182 135.149 16.7273 134.963 16.5455C134.781 16.3598 134.69 16.1477 134.69 15.9091C134.69 15.6477 134.781 15.4318 134.963 15.2614C135.149 15.0871 135.361 15 135.599 15C135.861 15 136.077 15.0871 136.247 15.2614C136.421 15.4318 136.508 15.6477 136.508 15.9091C136.508 16.1477 136.421 16.3598 136.247 16.5455C136.077 16.7273 135.861 16.8182 135.599 16.8182ZM146.01 20.2273L144.805 20.5682C144.729 20.3674 144.618 20.1723 144.47 19.983C144.326 19.7898 144.129 19.6307 143.879 19.5057C143.629 19.3807 143.309 19.3182 142.919 19.3182C142.385 19.3182 141.94 19.4413 141.584 19.6875C141.231 19.9299 141.055 20.2386 141.055 20.6136C141.055 20.947 141.176 21.2102 141.419 21.4034C141.661 21.5966 142.04 21.7576 142.555 21.8864L143.851 22.2045C144.631 22.3939 145.212 22.6837 145.595 23.0739C145.978 23.4602 146.169 23.9583 146.169 24.5682C146.169 25.0682 146.025 25.5152 145.737 25.9091C145.453 26.303 145.055 26.6136 144.544 26.8409C144.033 27.0682 143.438 27.1818 142.76 27.1818C141.87 27.1818 141.133 26.9886 140.55 26.6023C139.966 26.2159 139.597 25.6515 139.442 24.9091L140.714 24.5909C140.836 25.0606 141.065 25.4129 141.402 25.6477C141.743 25.8826 142.188 26 142.737 26C143.362 26 143.858 25.8674 144.226 25.6023C144.597 25.3333 144.783 25.0114 144.783 24.6364C144.783 24.3333 144.676 24.0795 144.464 23.875C144.252 23.6667 143.926 23.5114 143.487 23.4091L142.033 23.0682C141.233 22.8788 140.646 22.5852 140.271 22.1875C139.9 21.786 139.714 21.2841 139.714 20.6818C139.714 20.1894 139.853 19.7538 140.129 19.375C140.409 18.9962 140.79 18.6989 141.271 18.483C141.756 18.267 142.305 18.1591 142.919 18.1591C143.783 18.1591 144.461 18.3485 144.953 18.7273C145.449 19.1061 145.801 19.6061 146.01 20.2273ZM154.369 20.2273L153.165 20.5682C153.089 20.3674 152.977 20.1723 152.829 19.983C152.685 19.7898 152.488 19.6307 152.238 19.5057C151.988 19.3807 151.668 19.3182 151.278 19.3182C150.744 19.3182 150.299 19.4413 149.943 19.6875C149.591 19.9299 149.415 20.2386 149.415 20.6136C149.415 20.947 149.536 21.2102 149.778 21.4034C150.021 21.5966 150.399 21.7576 150.915 21.8864L152.21 22.2045C152.99 22.3939 153.572 22.6837 153.954 23.0739C154.337 23.4602 154.528 23.9583 154.528 24.5682C154.528 25.0682 154.384 25.5152 154.096 25.9091C153.812 26.303 153.415 26.6136 152.903 26.8409C152.392 27.0682 151.797 27.1818 151.119 27.1818C150.229 27.1818 149.492 26.9886 148.909 26.6023C148.326 26.2159 147.956 25.6515 147.801 24.9091L149.074 24.5909C149.195 25.0606 149.424 25.4129 149.761 25.6477C150.102 25.8826 150.547 26 151.096 26C151.721 26 152.218 25.8674 152.585 25.6023C152.956 25.3333 153.142 25.0114 153.142 24.6364C153.142 24.3333 153.036 24.0795 152.824 23.875C152.612 23.6667 152.286 23.5114 151.846 23.4091L150.392 23.0682C149.593 22.8788 149.006 22.5852 148.631 22.1875C148.259 21.786 148.074 21.2841 148.074 20.6818C148.074 20.1894 148.212 19.7538 148.488 19.375C148.769 18.9962 149.149 18.6989 149.631 18.483C150.115 18.267 150.665 18.1591 151.278 18.1591C152.142 18.1591 152.82 18.3485 153.312 18.7273C153.809 19.1061 154.161 19.6061 154.369 20.2273ZM160.206 27.1818C159.365 27.1818 158.64 26.9962 158.03 26.625C157.424 26.25 156.956 25.7273 156.626 25.0568C156.301 24.3826 156.138 23.5985 156.138 22.7045C156.138 21.8106 156.301 21.0227 156.626 20.3409C156.956 19.6553 157.414 19.1212 158.001 18.7386C158.592 18.3523 159.282 18.1591 160.069 18.1591C160.524 18.1591 160.973 18.2348 161.416 18.3864C161.859 18.5379 162.263 18.7841 162.626 19.125C162.99 19.4621 163.28 19.9091 163.496 20.4659C163.712 21.0227 163.819 21.7083 163.819 22.5227V23.0909H157.092V21.9318H162.456C162.456 21.4394 162.357 21 162.16 20.6136C161.967 20.2273 161.691 19.9223 161.331 19.6989C160.975 19.4754 160.554 19.3636 160.069 19.3636C159.535 19.3636 159.073 19.4962 158.683 19.7614C158.297 20.0227 157.999 20.3636 157.791 20.7841C157.583 21.2045 157.479 21.6553 157.479 22.1364V22.9091C157.479 23.5682 157.592 24.1269 157.819 24.5852C158.051 25.0398 158.371 25.3864 158.78 25.625C159.189 25.8598 159.664 25.9773 160.206 25.9773C160.558 25.9773 160.876 25.928 161.16 25.8295C161.448 25.7273 161.696 25.5758 161.905 25.375C162.113 25.1705 162.274 24.9167 162.388 24.6136L163.683 24.9773C163.547 25.4167 163.318 25.803 162.996 26.1364C162.674 26.4659 162.276 26.7235 161.802 26.9091C161.329 27.0909 160.797 27.1818 160.206 27.1818ZM167.2 15.3636V27H165.859V15.3636H167.2ZM172.952 27.1818C172.224 27.1818 171.582 26.9981 171.025 26.6307C170.469 26.2595 170.033 25.7367 169.719 25.0625C169.404 24.3845 169.247 23.5833 169.247 22.6591C169.247 21.7424 169.404 20.947 169.719 20.2727C170.033 19.5985 170.47 19.0777 171.031 18.7102C171.592 18.3428 172.239 18.1591 172.974 18.1591C173.542 18.1591 173.991 18.2538 174.321 18.4432C174.654 18.6288 174.908 18.8409 175.082 19.0795C175.26 19.3144 175.399 19.5076 175.497 19.6591H175.611V15.3636H176.952V27H175.656V25.6591H175.497C175.399 25.8182 175.258 26.0189 175.077 26.2614C174.895 26.5 174.635 26.714 174.298 26.9034C173.961 27.089 173.512 27.1818 172.952 27.1818ZM173.133 25.9773C173.671 25.9773 174.126 25.8371 174.497 25.5568C174.868 25.2727 175.15 24.8807 175.344 24.3807C175.537 23.8769 175.633 23.2955 175.633 22.6364C175.633 21.9848 175.539 21.4148 175.349 20.9261C175.16 20.4337 174.88 20.0511 174.508 19.7784C174.137 19.5019 173.679 19.3636 173.133 19.3636C172.565 19.3636 172.092 19.5095 171.713 19.8011C171.338 20.089 171.056 20.4811 170.866 20.9773C170.681 21.4697 170.588 22.0227 170.588 22.6364C170.588 23.2576 170.683 23.822 170.872 24.3295C171.065 24.8333 171.349 25.2348 171.724 25.5341C172.103 25.8295 172.573 25.9773 173.133 25.9773ZM183.139 27.1818C182.351 27.1818 181.66 26.9943 181.065 26.6193C180.474 26.2443 180.012 25.7197 179.679 25.0455C179.349 24.3712 179.185 23.5833 179.185 22.6818C179.185 21.7727 179.349 20.9792 179.679 20.3011C180.012 19.6231 180.474 19.0966 181.065 18.7216C181.66 18.3466 182.351 18.1591 183.139 18.1591C183.927 18.1591 184.616 18.3466 185.207 18.7216C185.802 19.0966 186.264 19.6231 186.594 20.3011C186.927 20.9792 187.094 21.7727 187.094 22.6818C187.094 23.5833 186.927 24.3712 186.594 25.0455C186.264 25.7197 185.802 26.2443 185.207 26.6193C184.616 26.9943 183.927 27.1818 183.139 27.1818ZM183.139 25.9773C183.738 25.9773 184.23 25.8239 184.616 25.517C185.003 25.2102 185.289 24.8068 185.474 24.3068C185.66 23.8068 185.753 23.2652 185.753 22.6818C185.753 22.0985 185.66 21.5549 185.474 21.0511C185.289 20.5473 185.003 20.1402 184.616 19.8295C184.23 19.5189 183.738 19.3636 183.139 19.3636C182.541 19.3636 182.048 19.5189 181.662 19.8295C181.275 20.1402 180.989 20.5473 180.804 21.0511C180.618 21.5549 180.525 22.0985 180.525 22.6818C180.525 23.2652 180.618 23.8068 180.804 24.3068C180.989 24.8068 181.275 25.2102 181.662 25.517C182.048 25.8239 182.541 25.9773 183.139 25.9773ZM189.14 27V18.2727H190.436V19.5909H190.527C190.686 19.1591 190.974 18.8087 191.39 18.5398C191.807 18.2708 192.277 18.1364 192.8 18.1364C192.898 18.1364 193.021 18.1383 193.169 18.142C193.317 18.1458 193.428 18.1515 193.504 18.1591V19.5227C193.459 19.5114 193.354 19.4943 193.192 19.4716C193.033 19.4451 192.864 19.4318 192.686 19.4318C192.262 19.4318 191.883 19.5208 191.55 19.6989C191.22 19.8731 190.959 20.1155 190.765 20.4261C190.576 20.733 190.481 21.0833 190.481 21.4773V27H189.14ZM199.527 18.2727V19.4091H194.822V18.2727H199.527ZM196.231 27V17.0682C196.231 16.5682 196.349 16.1515 196.584 15.8182C196.819 15.4848 197.123 15.2348 197.498 15.0682C197.873 14.9015 198.269 14.8182 198.686 14.8182C199.015 14.8182 199.284 14.8447 199.493 14.8977C199.701 14.9508 199.856 15 199.959 15.0455L199.572 16.2045C199.504 16.1818 199.409 16.1534 199.288 16.1193C199.171 16.0852 199.015 16.0682 198.822 16.0682C198.379 16.0682 198.059 16.1799 197.862 16.4034C197.669 16.6269 197.572 16.9545 197.572 17.3864V27H196.231Z" fill="white"/>
<path opacity="0.5" d="M126.541 106V94.3636H130.473C131.386 94.3636 132.132 94.5284 132.712 94.858C133.295 95.1837 133.727 95.625 134.007 96.1818C134.287 96.7386 134.427 97.3598 134.427 98.0455C134.427 98.7311 134.287 99.3542 134.007 99.9148C133.73 100.475 133.302 100.922 132.723 101.256C132.143 101.585 131.401 101.75 130.496 101.75H127.677V100.5H130.45C131.075 100.5 131.577 100.392 131.956 100.176C132.335 99.9602 132.609 99.6686 132.78 99.3011C132.954 98.9299 133.041 98.5114 133.041 98.0455C133.041 97.5795 132.954 97.1629 132.78 96.7955C132.609 96.428 132.333 96.1402 131.95 95.9318C131.568 95.7197 131.06 95.6136 130.427 95.6136H127.95V106H126.541ZM142.015 102.432V97.2727H143.356V106H142.015V104.523H141.925C141.72 104.966 141.402 105.343 140.97 105.653C140.538 105.96 139.993 106.114 139.334 106.114C138.788 106.114 138.303 105.994 137.879 105.756C137.455 105.513 137.122 105.15 136.879 104.665C136.637 104.176 136.515 103.561 136.515 102.818V97.2727H137.856V102.727C137.856 103.364 138.034 103.871 138.39 104.25C138.75 104.629 139.209 104.818 139.765 104.818C140.099 104.818 140.438 104.733 140.783 104.562C141.131 104.392 141.423 104.131 141.658 103.778C141.896 103.426 142.015 102.977 142.015 102.432ZM147.153 94.3636V106H145.812V94.3636H147.153ZM150.95 100.75V106H149.609V94.3636H150.95V98.6364H151.064C151.268 98.1856 151.575 97.8277 151.984 97.5625C152.397 97.2936 152.946 97.1591 153.632 97.1591C154.227 97.1591 154.747 97.2784 155.194 97.517C155.641 97.7519 155.988 98.1136 156.234 98.6023C156.484 99.0871 156.609 99.7045 156.609 100.455V106H155.268V100.545C155.268 99.8523 155.088 99.3163 154.729 98.9375C154.372 98.5549 153.878 98.3636 153.246 98.3636C152.806 98.3636 152.412 98.4564 152.064 98.642C151.719 98.8277 151.446 99.0985 151.246 99.4545C151.049 99.8106 150.95 100.242 150.95 100.75ZM162.721 106.182C161.881 106.182 161.155 105.996 160.545 105.625C159.939 105.25 159.471 104.727 159.142 104.057C158.816 103.383 158.653 102.598 158.653 101.705C158.653 100.811 158.816 100.023 159.142 99.3409C159.471 98.6553 159.93 98.1212 160.517 97.7386C161.108 97.3523 161.797 97.1591 162.585 97.1591C163.04 97.1591 163.488 97.2348 163.932 97.3864C164.375 97.5379 164.778 97.7841 165.142 98.125C165.506 98.4621 165.795 98.9091 166.011 99.4659C166.227 100.023 166.335 100.708 166.335 101.523V102.091H159.608V100.932H164.971C164.971 100.439 164.873 100 164.676 99.6136C164.483 99.2273 164.206 98.9223 163.846 98.6989C163.49 98.4754 163.07 98.3636 162.585 98.3636C162.051 98.3636 161.589 98.4962 161.199 98.7614C160.812 99.0227 160.515 99.3636 160.307 99.7841C160.098 100.205 159.994 100.655 159.994 101.136V101.909C159.994 102.568 160.108 103.127 160.335 103.585C160.566 104.04 160.886 104.386 161.295 104.625C161.704 104.86 162.18 104.977 162.721 104.977C163.074 104.977 163.392 104.928 163.676 104.83C163.964 104.727 164.212 104.576 164.42 104.375C164.629 104.17 164.79 103.917 164.903 103.614L166.199 103.977C166.062 104.417 165.833 104.803 165.511 105.136C165.189 105.466 164.792 105.723 164.318 105.909C163.845 106.091 163.312 106.182 162.721 106.182ZM168.375 106V97.2727H169.716V106H168.375ZM169.057 95.8182C168.795 95.8182 168.57 95.7292 168.381 95.5511C168.195 95.3731 168.102 95.1591 168.102 94.9091C168.102 94.6591 168.195 94.4451 168.381 94.267C168.57 94.089 168.795 94 169.057 94C169.318 94 169.542 94.089 169.727 94.267C169.917 94.4451 170.011 94.6591 170.011 94.9091C170.011 95.1591 169.917 95.3731 169.727 95.5511C169.542 95.7292 169.318 95.8182 169.057 95.8182ZM172.172 106V97.2727H173.467V98.6364H173.581C173.763 98.1705 174.056 97.8087 174.462 97.5511C174.867 97.2898 175.354 97.1591 175.922 97.1591C176.497 97.1591 176.977 97.2898 177.359 97.5511C177.746 97.8087 178.047 98.1705 178.263 98.6364H178.354C178.577 98.1856 178.912 97.8277 179.359 97.5625C179.806 97.2936 180.342 97.1591 180.967 97.1591C181.747 97.1591 182.386 97.4034 182.882 97.892C183.378 98.3769 183.626 99.1326 183.626 100.159V106H182.285V100.159C182.285 99.5152 182.109 99.0549 181.757 98.7784C181.405 98.5019 180.99 98.3636 180.513 98.3636C179.899 98.3636 179.424 98.5492 179.087 98.9205C178.749 99.2879 178.581 99.7538 178.581 100.318V106H177.217V100.023C177.217 99.5265 177.056 99.1269 176.734 98.8239C176.412 98.517 175.997 98.3636 175.49 98.3636C175.141 98.3636 174.816 98.4564 174.513 98.642C174.213 98.8277 173.971 99.0852 173.785 99.4148C173.604 99.7405 173.513 100.117 173.513 100.545V106H172.172Z" fill="white"/>
<path opacity="0.5" d="M184.064 198V186.364H188.133C188.943 186.364 189.612 186.504 190.138 186.784C190.665 187.061 191.057 187.434 191.314 187.903C191.572 188.369 191.701 188.886 191.701 189.455C191.701 189.955 191.612 190.367 191.434 190.693C191.26 191.019 191.029 191.276 190.741 191.466C190.457 191.655 190.148 191.795 189.814 191.886V192C190.171 192.023 190.529 192.148 190.888 192.375C191.248 192.602 191.549 192.928 191.792 193.352C192.034 193.776 192.155 194.295 192.155 194.909C192.155 195.492 192.023 196.017 191.758 196.483C191.493 196.949 191.074 197.318 190.502 197.591C189.93 197.864 189.186 198 188.269 198H184.064ZM185.474 196.75H188.269C189.189 196.75 189.843 196.572 190.229 196.216C190.619 195.856 190.814 195.42 190.814 194.909C190.814 194.515 190.714 194.151 190.513 193.818C190.313 193.481 190.027 193.212 189.655 193.011C189.284 192.807 188.845 192.705 188.337 192.705H185.474V196.75ZM185.474 191.477H188.087C188.511 191.477 188.894 191.394 189.235 191.227C189.58 191.061 189.852 190.826 190.053 190.523C190.258 190.22 190.36 189.864 190.36 189.455C190.36 188.943 190.182 188.509 189.826 188.153C189.47 187.794 188.905 187.614 188.133 187.614H185.474V191.477ZM197.834 198.182C197.046 198.182 196.355 197.994 195.761 197.619C195.17 197.244 194.707 196.72 194.374 196.045C194.045 195.371 193.88 194.583 193.88 193.682C193.88 192.773 194.045 191.979 194.374 191.301C194.707 190.623 195.17 190.097 195.761 189.722C196.355 189.347 197.046 189.159 197.834 189.159C198.622 189.159 199.312 189.347 199.903 189.722C200.497 190.097 200.959 190.623 201.289 191.301C201.622 191.979 201.789 192.773 201.789 193.682C201.789 194.583 201.622 195.371 201.289 196.045C200.959 196.72 200.497 197.244 199.903 197.619C199.312 197.994 198.622 198.182 197.834 198.182ZM197.834 196.977C198.433 196.977 198.925 196.824 199.312 196.517C199.698 196.21 199.984 195.807 200.17 195.307C200.355 194.807 200.448 194.265 200.448 193.682C200.448 193.098 200.355 192.555 200.17 192.051C199.984 191.547 199.698 191.14 199.312 190.83C198.925 190.519 198.433 190.364 197.834 190.364C197.236 190.364 196.743 190.519 196.357 190.83C195.971 191.14 195.685 191.547 195.499 192.051C195.314 192.555 195.221 193.098 195.221 193.682C195.221 194.265 195.314 194.807 195.499 195.307C195.685 195.807 195.971 196.21 196.357 196.517C196.743 196.824 197.236 196.977 197.834 196.977ZM205.177 192.75V198H203.836V189.273H205.131V190.636H205.245C205.449 190.193 205.76 189.837 206.177 189.568C206.593 189.295 207.131 189.159 207.79 189.159C208.381 189.159 208.898 189.28 209.341 189.523C209.785 189.761 210.129 190.125 210.376 190.614C210.622 191.098 210.745 191.712 210.745 192.455V198H209.404V192.545C209.404 191.86 209.226 191.326 208.87 190.943C208.514 190.557 208.025 190.364 207.404 190.364C206.976 190.364 206.593 190.456 206.256 190.642C205.923 190.828 205.66 191.098 205.466 191.455C205.273 191.811 205.177 192.242 205.177 192.75ZM214.536 192.75V198H213.195V189.273H214.491V190.636H214.604C214.809 190.193 215.119 189.837 215.536 189.568C215.953 189.295 216.491 189.159 217.15 189.159C217.741 189.159 218.258 189.28 218.701 189.523C219.144 189.761 219.489 190.125 219.735 190.614C219.981 191.098 220.104 191.712 220.104 192.455V198H218.763V192.545C218.763 191.86 218.585 191.326 218.229 190.943C217.873 190.557 217.385 190.364 216.763 190.364C216.335 190.364 215.953 190.456 215.616 190.642C215.282 190.828 215.019 191.098 214.826 191.455C214.633 191.811 214.536 192.242 214.536 192.75Z" fill="white"/>
<path opacity="0.5" d="M162.932 91V79.3636H164.341V89.75H169.75V91H162.932ZM175.409 91.1818C174.568 91.1818 173.843 90.9962 173.233 90.625C172.627 90.25 172.159 89.7273 171.829 89.0568C171.504 88.3826 171.341 87.5985 171.341 86.7045C171.341 85.8106 171.504 85.0227 171.829 84.3409C172.159 83.6553 172.617 83.1212 173.204 82.7386C173.795 82.3523 174.485 82.1591 175.273 82.1591C175.727 82.1591 176.176 82.2348 176.619 82.3864C177.062 82.5379 177.466 82.7841 177.829 83.125C178.193 83.4621 178.483 83.9091 178.699 84.4659C178.915 85.0227 179.023 85.7083 179.023 86.5227V87.0909H172.295V85.9318H177.659C177.659 85.4394 177.56 85 177.363 84.6136C177.17 84.2273 176.894 83.9223 176.534 83.6989C176.178 83.4754 175.757 83.3636 175.273 83.3636C174.738 83.3636 174.276 83.4962 173.886 83.7614C173.5 84.0227 173.203 84.3636 172.994 84.7841C172.786 85.2045 172.682 85.6553 172.682 86.1364V86.9091C172.682 87.5682 172.795 88.1269 173.023 88.5852C173.254 89.0398 173.574 89.3864 173.983 89.625C174.392 89.8598 174.867 89.9773 175.409 89.9773C175.761 89.9773 176.079 89.928 176.363 89.8295C176.651 89.7273 176.899 89.5758 177.108 89.375C177.316 89.1705 177.477 88.9167 177.591 88.6136L178.886 88.9773C178.75 89.4167 178.521 89.803 178.199 90.1364C177.877 90.4659 177.479 90.7235 177.006 90.9091C176.532 91.0909 176 91.1818 175.409 91.1818ZM187.933 82.2727L184.706 91H183.342L180.115 82.2727H181.569L183.979 89.2273H184.069L186.479 82.2727H187.933ZM193.05 91.1818C192.209 91.1818 191.483 90.9962 190.873 90.625C190.267 90.25 189.8 89.7273 189.47 89.0568C189.144 88.3826 188.981 87.5985 188.981 86.7045C188.981 85.8106 189.144 85.0227 189.47 84.3409C189.8 83.6553 190.258 83.1212 190.845 82.7386C191.436 82.3523 192.125 82.1591 192.913 82.1591C193.368 82.1591 193.817 82.2348 194.26 82.3864C194.703 82.5379 195.106 82.7841 195.47 83.125C195.834 83.4621 196.123 83.9091 196.339 84.4659C196.555 85.0227 196.663 85.7083 196.663 86.5227V87.0909H189.936V85.9318H195.3C195.3 85.4394 195.201 85 195.004 84.6136C194.811 84.2273 194.534 83.9223 194.175 83.6989C193.819 83.4754 193.398 83.3636 192.913 83.3636C192.379 83.3636 191.917 83.4962 191.527 83.7614C191.14 84.0227 190.843 84.3636 190.635 84.7841C190.426 85.2045 190.322 85.6553 190.322 86.1364V86.9091C190.322 87.5682 190.436 88.1269 190.663 88.5852C190.894 89.0398 191.214 89.3864 191.623 89.625C192.033 89.8598 192.508 89.9773 193.05 89.9773C193.402 89.9773 193.72 89.928 194.004 89.8295C194.292 89.7273 194.54 89.5758 194.748 89.375C194.957 89.1705 195.118 88.9167 195.231 88.6136L196.527 88.9773C196.39 89.4167 196.161 89.803 195.839 90.1364C195.517 90.4659 195.12 90.7235 194.646 90.9091C194.173 91.0909 193.64 91.1818 193.05 91.1818ZM198.703 91V82.2727H199.998V83.5909H200.089C200.248 83.1591 200.536 82.8087 200.953 82.5398C201.37 82.2708 201.839 82.1364 202.362 82.1364C202.461 82.1364 202.584 82.1383 202.731 82.142C202.879 82.1458 202.991 82.1515 203.067 82.1591V83.5227C203.021 83.5114 202.917 83.4943 202.754 83.4716C202.595 83.4451 202.426 83.4318 202.248 83.4318C201.824 83.4318 201.445 83.5208 201.112 83.6989C200.783 83.8731 200.521 84.1155 200.328 84.4261C200.139 84.733 200.044 85.0833 200.044 85.4773V91H198.703ZM205.906 87.8182L205.883 86.1591H206.156L209.974 82.2727H211.633L207.565 86.3864H207.452L205.906 87.8182ZM204.656 91V79.3636H205.997V91H204.656ZM210.202 91L206.792 86.6818L207.747 85.75L211.906 91H210.202ZM218.859 87.4318V82.2727H220.2V91H218.859V89.5227H218.768C218.564 89.9659 218.246 90.3428 217.814 90.6534C217.382 90.9602 216.837 91.1136 216.177 91.1136C215.632 91.1136 215.147 90.9943 214.723 90.7557C214.299 90.5133 213.965 90.1496 213.723 89.6648C213.48 89.1761 213.359 88.5606 213.359 87.8182V82.2727H214.7V87.7273C214.7 88.3636 214.878 88.8712 215.234 89.25C215.594 89.6288 216.052 89.8182 216.609 89.8182C216.943 89.8182 217.282 89.733 217.626 89.5625C217.975 89.392 218.266 89.1307 218.501 88.7784C218.74 88.4261 218.859 87.9773 218.859 87.4318ZM228.838 84.2273L227.633 84.5682C227.558 84.3674 227.446 84.1723 227.298 83.983C227.154 83.7898 226.957 83.6307 226.707 83.5057C226.457 83.3807 226.137 83.3182 225.747 83.3182C225.213 83.3182 224.768 83.4413 224.412 83.6875C224.06 83.9299 223.883 84.2386 223.883 84.6136C223.883 84.947 224.005 85.2102 224.247 85.4034C224.489 85.5966 224.868 85.7576 225.383 85.8864L226.679 86.2045C227.459 86.3939 228.041 86.6837 228.423 87.0739C228.806 87.4602 228.997 87.9583 228.997 88.5682C228.997 89.0682 228.853 89.5152 228.565 89.9091C228.281 90.303 227.883 90.6136 227.372 90.8409C226.861 91.0682 226.266 91.1818 225.588 91.1818C224.698 91.1818 223.961 90.9886 223.378 90.6023C222.794 90.2159 222.425 89.6515 222.27 88.9091L223.542 88.5909C223.664 89.0606 223.893 89.4129 224.23 89.6477C224.571 89.8826 225.016 90 225.565 90C226.19 90 226.686 89.8674 227.054 89.6023C227.425 89.3333 227.611 89.0114 227.611 88.6364C227.611 88.3333 227.505 88.0795 227.292 87.875C227.08 87.6667 226.755 87.5114 226.315 87.4091L224.861 87.0682C224.061 86.8788 223.474 86.5852 223.099 86.1875C222.728 85.786 222.542 85.2841 222.542 84.6818C222.542 84.1894 222.681 83.7538 222.957 83.375C223.238 82.9962 223.618 82.6989 224.099 82.483C224.584 82.267 225.133 82.1591 225.747 82.1591C226.611 82.1591 227.289 82.3485 227.781 82.7273C228.277 83.1061 228.63 83.6061 228.838 84.2273ZM234.675 91.1818C233.834 91.1818 233.108 90.9962 232.498 90.625C231.892 90.25 231.425 89.7273 231.095 89.0568C230.769 88.3826 230.606 87.5985 230.606 86.7045C230.606 85.8106 230.769 85.0227 231.095 84.3409C231.425 83.6553 231.883 83.1212 232.47 82.7386C233.061 82.3523 233.75 82.1591 234.538 82.1591C234.993 82.1591 235.442 82.2348 235.885 82.3864C236.328 82.5379 236.731 82.7841 237.095 83.125C237.459 83.4621 237.748 83.9091 237.964 84.4659C238.18 85.0227 238.288 85.7083 238.288 86.5227V87.0909H231.561V85.9318H236.925C236.925 85.4394 236.826 85 236.629 84.6136C236.436 84.2273 236.159 83.9223 235.8 83.6989C235.444 83.4754 235.023 83.3636 234.538 83.3636C234.004 83.3636 233.542 83.4962 233.152 83.7614C232.765 84.0227 232.468 84.3636 232.26 84.7841C232.051 85.2045 231.947 85.6553 231.947 86.1364V86.9091C231.947 87.5682 232.061 88.1269 232.288 88.5852C232.519 89.0398 232.839 89.3864 233.248 89.625C233.658 89.8598 234.133 89.9773 234.675 89.9773C235.027 89.9773 235.345 89.928 235.629 89.8295C235.917 89.7273 236.165 89.5758 236.373 89.375C236.582 89.1705 236.743 88.9167 236.856 88.6136L238.152 88.9773C238.015 89.4167 237.786 89.803 237.464 90.1364C237.142 90.4659 236.745 90.7235 236.271 90.9091C235.798 91.0909 235.265 91.1818 234.675 91.1818ZM241.669 85.75V91H240.328V82.2727H241.623V83.6364H241.737C241.942 83.1932 242.252 82.8371 242.669 82.5682C243.086 82.2955 243.623 82.1591 244.283 82.1591C244.873 82.1591 245.39 82.2803 245.834 82.5227C246.277 82.7614 246.622 83.125 246.868 83.6136C247.114 84.0985 247.237 84.7121 247.237 85.4545V91H245.896V85.5455C245.896 84.8598 245.718 84.3258 245.362 83.9432C245.006 83.5568 244.517 83.3636 243.896 83.3636C243.468 83.3636 243.086 83.4564 242.748 83.642C242.415 83.8277 242.152 84.0985 241.959 84.4545C241.765 84.8106 241.669 85.2424 241.669 85.75Z" fill="white"/>
</svg>


