<svg width="24" height="24" viewBox="0 0 24 24" fill="none" xmlns="http://www.w3.org/2000/svg">
<path d="M12 0C18.6274 0 24 5.37258 24 12C24 18.6274 18.6274 24 12 24C5.37258 24 0 18.6274 0 12C0 5.37258 5.37258 0 12 0ZM12 0.599609C5.70396 0.599615 0.599615 5.70396 0.599609 12C0.599609 18.296 5.70396 23.4004 12 23.4004C18.296 23.4004 23.4004 18.296 23.4004 12C23.4004 5.70396 18.296 0.599609 12 0.599609Z" fill="#628D32"/>
<path d="M18.1572 19.1862H5.84277V9.20184H18.1572V19.1862ZM9.06055 16.0798H11.6113V13.9724H9.06055V16.0798ZM12.3887 13.9724V16.0798H14.9404V13.9724H12.3887ZM9.06055 13.196H11.6113V11.0876H9.06055V13.196ZM12.3887 13.196H14.9404V11.0876H12.3887V13.196Z" fill="#628D32"/>
<path d="M11.9999 2.54544L20.5027 11.0323H3.49715L11.9999 2.54544Z" fill="#628D32"/>
<rect x="15.3838" y="4.65329" width="2.10786" height="3.55008" fill="#628D32"/>
</svg>
