<svg preserveAspectRatio="none" width="100%" height="100%" overflow="visible" style="display: block;" viewBox="0 0 24 24" fill="none" xmlns="http://www.w3.org/2000/svg">
<path id="Vector 4" d="M0.00150584 6.18872C-0.0445482 4.83524 0.968616 0.99626 2.64955 0.405649C4.33048 -0.184963 5.71207 -0.160354 6.08049 0.676346C6.44892 1.51305 7.96867 5.32742 8.12985 6.18872C8.29104 7.05003 7.80748 7.44378 7.3009 8.20665C6.79432 8.96952 6.28773 9.04335 6.08049 9.75701C5.87326 10.4707 7.3009 12.5132 9.16604 14.5803C11.0312 16.6475 14.37 18.2963 15.0608 18.2963C15.7516 18.2963 17.2483 15.3678 17.87 14.9741C18.4918 14.5803 23.5115 17.1889 23.8569 18.001C24.2023 18.8131 23.8569 20.3142 23.5115 21.1263C23.1661 21.9384 21.278 23.784 19.3207 23.9809C17.3635 24.1778 10.3864 22.9227 5.36667 16.8936C0.346904 10.8644 0.0475599 7.54221 0.00150584 6.18872Z" fill="var(--fill-0, white)"/>
</svg>
