<svg width="24" height="24" viewBox="0 0 24 24" fill="none" xmlns="http://www.w3.org/2000/svg">
<path d="M12 0C18.6274 0 24 5.37258 24 12C24 18.6274 18.6274 24 12 24C5.37258 24 0 18.6274 0 12C0 5.37258 5.37258 0 12 0ZM12 0.599609C5.70396 0.59962 0.599611 5.70396 0.599609 12C0.599609 18.296 5.70396 23.4004 12 23.4004C18.296 23.4004 23.4004 18.296 23.4004 12C23.4004 5.70396 18.296 0.599609 12 0.599609Z" fill="#628D32"/>
<path d="M5.12793 15.5305C5.09534 15.6701 5.07617 15.8156 5.07617 15.9651C5.07621 16.1296 5.09944 16.2885 5.13867 16.4407H4V15.5305H5.12793ZM16.5 7.27274C16.5089 7.27381 16.9217 7.32418 17.1416 7.45926C17.3363 7.57903 17.5557 7.87332 17.5557 7.87332L20.2666 11.7639C20.2743 11.7745 20.4498 12.0187 20.5146 12.1985C20.5668 12.3434 20.5966 12.5821 20.5977 12.5911V15.1165C20.6068 15.1166 20.9698 15.1235 20.9902 15.6956C21.0109 16.2751 20.4111 16.4407 20.4111 16.4407H18.1553C18.1553 16.4407 18.2525 15.9855 18.2178 15.6956C18.099 14.7043 17.2502 14.0436 16.252 14.0608C15.3256 14.077 14.5335 14.7027 14.3887 15.5305C14.3268 15.8853 14.4512 16.4407 14.4512 16.4407H8.82227C8.86146 16.2886 8.88375 16.1295 8.88379 15.9651C8.88379 15.8157 8.86557 15.6701 8.83301 15.5305H13.3545V7.27274H16.5ZM12.8164 15.1165H8.68262C8.37055 14.4913 7.72667 14.061 6.98047 14.0608C6.23407 14.0608 5.58945 14.4912 5.27734 15.1165H4V7.27274H7.93164V7.89383C7.93177 8.32804 8.28451 8.67996 8.71875 8.67996C9.15288 8.67983 9.50475 8.32796 9.50488 7.89383V7.27274H12.8164V15.1165ZM19.2314 12.7571C19.2279 12.7572 19.1671 12.7586 19.0869 12.8186C19.0248 12.8652 19.0244 12.9846 19.0244 12.9846V14.3509C19.0252 14.3589 19.0393 14.4963 19.1074 14.5579C19.1465 14.5931 19.2265 14.6372 19.2314 14.6399H19.873C19.873 14.6399 19.949 14.6173 19.9971 14.5579C20.0511 14.4908 20.0592 14.3589 20.0596 14.3509V12.9846C20.0596 12.9846 20.0386 12.8807 19.9766 12.8186C19.9236 12.7661 19.79 12.7571 19.79 12.7571H19.2314ZM14.6377 8.30789C14.6377 8.30789 14.4847 8.32137 14.4307 8.36942C14.3739 8.42028 14.3682 8.55594 14.3682 8.55594V10.9358C14.3688 10.9377 14.4101 11.0607 14.5127 11.1429C14.5645 11.1843 14.622 11.1992 14.666 11.2044H18.5283C18.5376 11.201 18.6868 11.1449 18.7139 11.0598C18.7457 10.9597 18.6104 10.8118 18.6104 10.8118L17.0586 8.55594C17.0586 8.55594 16.9562 8.43888 16.8721 8.38992C16.7451 8.31629 16.5071 8.30814 16.5 8.30789H14.6377Z" fill="#628D32"/>
<path d="M16.3341 14.4332C17.1799 14.4332 17.8654 15.1096 17.8654 15.944C17.8654 16.7783 17.1799 17.4547 16.3341 17.4547C15.4884 17.4546 14.8029 16.7783 14.8029 15.944C14.8029 15.1097 15.4884 14.4333 16.3341 14.4332ZM16.3341 15.2194C15.9228 15.2194 15.5891 15.5532 15.589 15.9645C15.589 16.3759 15.9227 16.7095 16.3341 16.7096C16.7456 16.7096 17.0792 16.3759 17.0792 15.9645C17.0791 15.5531 16.7455 15.2194 16.3341 15.2194Z" fill="#628D32"/>
<path d="M6.97986 14.4332C7.82565 14.4332 8.51111 15.1096 8.51111 15.944C8.51111 16.7783 7.82565 17.4547 6.97986 17.4547C6.13415 17.4546 5.44861 16.7783 5.44861 15.944C5.44861 15.1097 6.13416 14.4333 6.97986 14.4332ZM6.97986 15.2194C6.56856 15.2195 6.23484 15.5532 6.23474 15.9645C6.23474 16.3759 6.5685 16.7095 6.97986 16.7096C7.39132 16.7096 7.72498 16.3759 7.72498 15.9645C7.72487 15.5531 7.39126 15.2194 6.97986 15.2194Z" fill="#628D32"/>
<path d="M8.2218 7.27274H9.17378V7.87289C9.17378 8.13577 8.96067 8.34888 8.69779 8.34888C8.43491 8.34888 8.2218 8.13577 8.2218 7.87289V7.27274Z" fill="#628D32"/>
</svg>
