<svg preserveAspectRatio="none" width="100%" height="100%" overflow="visible" style="display: block;" viewBox="0 0 31.5781 19" fill="none" xmlns="http://www.w3.org/2000/svg">
<g id="Group 5">
<ellipse id="Ellipse 7" cx="22.8461" cy="16.1923" rx="2.84615" ry="2.80769" fill="var(--fill-0, #628D32)"/>
<path id="Subtract" d="M2.09375 15.3457C2.03308 15.6053 2 15.8762 2 16.1543C2.00004 16.4595 2.03866 16.7556 2.11133 17.0381H0V15.3457H2.09375ZM23.2305 0C23.2305 0 24.0096 0.092066 24.4229 0.345703C24.7826 0.566747 25.1875 1.10869 25.1924 1.11523L30.2305 8.3457C30.2305 8.3457 30.5691 8.81255 30.6924 9.1543C30.7912 9.42868 30.8457 9.88477 30.8457 9.88477V14.5771C30.8457 14.5771 31.5387 14.5774 31.5771 15.6543C31.6151 16.725 30.512 17.0347 30.5 17.0381H26.3076C26.3117 17.0187 26.4865 16.1868 26.4229 15.6543C26.2022 13.8117 24.6249 12.583 22.7695 12.6152C21.0481 12.6453 19.577 13.8075 19.3076 15.3457C19.1936 15.9973 19.4177 17.0148 19.4229 17.0381H8.96582C9.03849 16.7556 9.07711 16.4594 9.07715 16.1543C9.07715 15.8762 9.04406 15.6053 8.9834 15.3457H17.3848V0H23.2305ZM16.3848 14.5771H8.70605C8.12619 13.4145 6.92564 12.6152 5.53809 12.6152C4.15058 12.6154 2.94986 13.4144 2.37012 14.5771H0V0H16.3848V14.5771ZM28.3076 10.1924C28.304 10.1924 28.1894 10.1941 28.0381 10.3076C27.9247 10.3929 27.9229 10.6086 27.9229 10.6152V13.1543C27.9239 13.1661 27.9498 13.4229 28.0771 13.5381C28.1512 13.605 28.3048 13.6908 28.3076 13.6924H29.5C29.5 13.6924 29.6411 13.6491 29.7305 13.5381C29.8314 13.4125 29.8451 13.1665 29.8457 13.1543V10.6152C29.8441 10.6076 29.8054 10.4206 29.6924 10.3076C29.5943 10.2096 29.3457 10.1924 29.3457 10.1924H28.3076ZM19.7695 1.92285C19.7695 1.92285 19.4851 1.94864 19.3848 2.03809C19.2792 2.13263 19.2695 2.38477 19.2695 2.38477V6.80762C19.2702 6.80963 19.3468 7.03921 19.5381 7.19238C19.6343 7.26934 19.7405 7.29802 19.8223 7.30762H27C27.0022 7.30681 27.2941 7.20069 27.3457 7.03809C27.4033 6.85576 27.1641 6.58795 27.1543 6.57715L24.2695 2.38477C24.2695 2.38477 24.0792 2.16813 23.9229 2.07715C23.6835 1.93788 23.2305 1.92285 23.2305 1.92285H19.7695Z" fill="var(--fill-0, #628D32)"/>
<ellipse id="Ellipse 8" cx="5.53845" cy="16.1923" rx="2.84615" ry="2.80769" fill="var(--fill-0, #628D32)"/>
</g>
</svg>
