<svg width="24" height="24" viewBox="0 0 24 24" fill="none" xmlns="http://www.w3.org/2000/svg">
<path d="M12 0C18.6274 0 24 5.37258 24 12C24 18.6274 18.6274 24 12 24C5.37258 24 0 18.6274 0 12C0 5.37258 5.37258 0 12 0ZM12 0.599609C5.70396 0.599615 0.599615 5.70396 0.599609 12C0.599609 18.296 5.70396 23.4004 12 23.4004C18.296 23.4004 23.4004 18.296 23.4004 12C23.4004 5.70396 18.296 0.599609 12 0.599609Z" fill="#628D32"/>
<path d="M13.7634 2.90912C14.7266 2.90912 15.5076 3.6901 15.5076 4.65326V5.69916H8.64819V4.65326C8.64819 3.6901 9.42918 2.90912 10.3923 2.90912H13.7634ZM10.3923 3.60638C9.81444 3.60638 9.34546 4.07536 9.34546 4.65326V5.23431H14.8103V4.65326C14.8103 4.07536 14.3413 3.60638 13.7634 3.60638H10.3923Z" fill="#628D32"/>
<path d="M18.2982 17.6744C18.2982 18.9585 17.2571 19.9994 15.973 19.9996H8.06677C6.7826 19.9995 5.74158 18.9586 5.74158 17.6744V8.60602H18.2982V17.6744ZM8.99744 10.3502C8.7406 10.3502 8.53163 10.5582 8.53162 10.815V17.6744C8.53162 17.9312 8.74059 18.1392 8.99744 18.1392C9.25406 18.139 9.46228 17.9311 9.46228 17.6744V10.815C9.46227 10.5583 9.25406 10.3504 8.99744 10.3502ZM12.0199 10.3502C11.7631 10.3502 11.5551 10.5582 11.5551 10.815V17.6744C11.5551 17.9312 11.7631 18.1392 12.0199 18.1392C12.2767 18.1392 12.4847 17.9312 12.4847 17.6744V10.815C12.4847 10.5582 12.2767 10.3502 12.0199 10.3502ZM15.0424 10.3502C14.7857 10.3503 14.5775 10.5583 14.5775 10.815V17.6744C14.5775 17.9311 14.7857 18.139 15.0424 18.1392C15.2992 18.1392 15.5082 17.9312 15.5082 17.6744V10.815C15.5082 10.5582 15.2992 10.3502 15.0424 10.3502Z" fill="#628D32"/>
<path d="M18.2986 5.23438C19.1331 5.23463 19.8093 5.91151 19.8093 6.74609V7.09473C19.8093 7.92925 19.1331 8.60619 18.2986 8.60645H17.3679C17.4963 8.60645 17.6003 8.50147 17.6003 8.37305C17.6001 8.24482 17.4962 8.14062 17.3679 8.14062H6.67163C6.54339 8.14067 6.43943 8.24484 6.43921 8.37305C6.43921 8.50144 6.54325 8.6064 6.67163 8.60645H5.74194C4.90725 8.60645 4.2303 7.9294 4.23022 7.09473V6.74609C4.23022 5.91136 4.90721 5.23438 5.74194 5.23438H18.2986Z" fill="#628D32"/>
</svg>
