<svg width="66" height="66" viewBox="0 0 66 66" fill="none" xmlns="http://www.w3.org/2000/svg">
<path d="M33 0C51.2254 0 66 14.7746 66 33C66 51.2254 51.2254 66 33 66C14.7746 66 0 51.2254 0 33C0 14.7746 14.7746 0 33 0ZM33 1.65039C15.6859 1.65042 1.6504 15.6859 1.65039 33C1.65039 50.3141 15.6859 64.3496 33 64.3496C50.3141 64.3496 64.3496 50.3141 64.3496 33C64.3496 15.6859 50.3141 1.65039 33 1.65039Z" fill="#628D32"/>
<path d="M14.0977 42.708C14.008 43.0919 13.959 43.4921 13.959 43.9033C13.959 44.3551 14.0164 44.7937 14.124 45.2119H11V42.708H14.0977ZM45.375 20C45.3996 20.0029 46.5339 20.1404 47.1387 20.5117C47.6743 20.8408 48.2773 21.6504 48.2773 21.6504L55.7324 32.3496C55.7324 32.3496 56.2326 33.0393 56.415 33.5449C56.5599 33.9465 56.6418 34.6116 56.6436 34.626V41.5693C56.6685 41.5696 57.6684 41.5894 57.7246 43.1631C57.7815 44.7565 56.1309 45.2119 56.1309 45.2119H49.9277C49.9277 45.2119 50.1941 43.9603 50.0986 43.1631C49.772 40.4365 47.4371 38.6191 44.6914 38.667C42.1441 38.7115 39.9677 40.4316 39.5693 42.708C39.3988 43.6834 39.7402 45.2119 39.7402 45.2119H24.2666C24.3742 44.7937 24.4306 44.3551 24.4307 43.9033C24.4307 43.4922 24.3826 43.0919 24.293 42.708H36.7236V20H45.375ZM35.2441 41.5693H23.8828C23.0248 39.849 21.2484 38.667 19.1953 38.667C17.1423 38.667 15.3659 39.849 14.5078 41.5693H11V20H21.8135V21.707C21.8135 22.9013 22.7813 23.87 23.9756 23.8701C25.17 23.8701 26.1387 22.9014 26.1387 21.707V20H35.2441V41.5693ZM52.8867 35.082C52.8801 35.0821 52.7114 35.0846 52.4883 35.252C52.3175 35.38 52.3174 35.708 52.3174 35.708V39.4639C52.318 39.4702 52.3545 39.8601 52.5459 40.0332C52.6557 40.1323 52.8828 40.2586 52.8867 40.2607H54.6514C54.6569 40.259 54.8618 40.1949 54.9922 40.0332C55.1438 39.8448 55.1627 39.4718 55.1631 39.4639V35.708C55.1631 35.708 55.1063 35.4227 54.9355 35.252C54.7928 35.1096 54.4363 35.0829 54.4238 35.082H52.8867ZM40.2529 22.8457C40.2529 22.8457 39.8317 22.884 39.6836 23.0166C39.5295 23.1547 39.5131 23.5188 39.5127 23.5283V30.0732C39.5127 30.0732 39.6266 30.4149 39.9111 30.6426C40.1939 30.8687 40.533 30.8142 40.5371 30.8135H50.9521C50.9601 30.8106 51.3876 30.6542 51.4639 30.415C51.5513 30.1397 51.1797 29.7314 51.1797 29.7314L46.9111 23.5283C46.9045 23.5207 46.6279 23.2063 46.3994 23.0732C46.0504 22.8701 45.3939 22.8464 45.375 22.8457H40.2529Z" fill="#628D32"/>
<path d="M44.9197 39.6914C47.2453 39.6917 49.1305 41.5515 49.1306 43.8457C49.1306 46.14 47.2454 48.0007 44.9197 48.001C42.5938 48.001 40.7078 46.1402 40.7078 43.8457C40.7079 41.5513 42.5938 39.6914 44.9197 39.6914ZM44.9187 41.8545C43.7874 41.8547 42.8699 42.7719 42.8699 43.9033C42.8701 45.0345 43.7875 45.9519 44.9187 45.9521C46.0501 45.9521 46.9673 45.0346 46.9675 43.9033C46.9675 42.7718 46.0502 41.8545 44.9187 41.8545Z" fill="#628D32"/>
<path d="M19.1958 39.6914C21.5214 39.6917 23.4066 41.5515 23.4067 43.8457C23.4067 46.14 21.5215 48.0007 19.1958 48.001C16.8699 48.001 14.9839 46.1402 14.9839 43.8457C14.984 41.5513 16.87 39.6914 19.1958 39.6914ZM19.1958 41.8545C18.0643 41.8545 17.147 42.7718 17.147 43.9033C17.1472 45.0346 18.0644 45.9521 19.1958 45.9521C20.327 45.952 21.2444 45.0345 21.2446 43.9033C21.2446 42.7719 20.3272 41.8547 19.1958 41.8545Z" fill="#628D32"/>
<path d="M22.6099 20H25.2278V21.6504C25.2278 22.3734 24.6418 22.9594 23.9188 22.9594C23.1959 22.9594 22.6099 22.3734 22.6099 21.6504V20Z" fill="#628D32"/>
</svg>
