<svg width="70" height="70" viewBox="0 0 70 70" fill="none" xmlns="http://www.w3.org/2000/svg">
<path d="M35 0C54.33 0 70 15.67 70 35C70 54.33 54.33 70 35 70C15.67 70 0 54.33 0 35C0 15.67 15.67 0 35 0ZM35 1.75C16.6366 1.75003 1.75001 16.6366 1.75 35C1.75 53.3634 16.6366 68.25 35 68.25C53.3635 68.25 68.25 53.3635 68.25 35C68.25 16.6365 53.3635 1.75 35 1.75Z" fill="#628D32"/>
<path d="M47.2497 12.4624C47.962 11.2823 49.4686 10.8587 50.6915 11.4946C52.0697 12.2113 52.5218 13.965 51.6618 15.2587L38.4679 35.1062C37.8403 36.0504 36.5748 36.323 35.614 35.7211C34.646 35.1146 34.3431 33.844 34.9334 32.8661L47.2497 12.4624Z" fill="#628D32"/>
<path fill-rule="evenodd" clip-rule="evenodd" d="M29.0699 32.5341C29.6985 32.0776 30.5425 32.0514 31.1978 32.4687L33.815 34.1357C33.7109 35.074 34.1352 36.0326 34.9888 36.5673C35.831 37.0949 36.8611 37.0649 37.6558 36.581L40.4634 38.3691C41.0113 38.7179 41.3433 39.3222 41.3433 39.9716C41.3433 41.7205 39.1454 42.5715 37.9136 41.33C36.5459 39.9514 35.0614 38.5664 34.0601 37.9453C33.0595 37.3246 31.2243 36.5695 29.565 35.9453C28.1195 35.4013 27.8201 33.4416 29.0699 32.5341Z" fill="#628D32"/>
<path fill-rule="evenodd" clip-rule="evenodd" d="M26.0703 37.0329C26.0703 37.0329 28.1634 36.4651 29.3047 36.652C31.745 37.0518 34.4407 38.9382 37.2939 41.6012C38.5096 42.7361 39.0003 45.1837 39.0059 45.2116C39.0059 45.2116 38.5936 49.0582 38.2451 50.7311C37.294 55.2963 33.299 59.4817 32.5381 60.0524C31.7771 60.623 29.875 60.9996 29.875 60.9996C29.8859 60.987 30.6418 60.105 30.8262 59.4782C31.0119 58.8467 31.207 57.1989 31.207 57.1989C31.207 57.1989 29.8571 58.3784 29.1143 58.527C28.3758 58.6747 26.662 58.7169 26.6416 58.7174C26.6477 58.7114 27.0232 58.331 27.2119 57.1989C27.3995 56.0732 27.4023 55.6877 27.4023 55.6774C27.3932 55.6812 25.2757 56.5556 23.9785 56.8151C22.6822 57.0743 20.3773 57.0059 20.3643 57.0055C20.3643 57.0055 21.9323 55.9651 22.2666 55.2965C22.5989 54.6318 22.8342 53.7847 22.8369 53.775C22.82 53.7817 21.1772 54.4277 20.3643 54.7233C19.547 55.0204 16.5596 55.2965 16.5596 55.2965C16.5596 55.2965 18.2712 54.5391 19.0322 53.775C19.7841 53.0199 19.7938 52.2712 19.7939 52.2536C19.7939 52.2536 18.1345 53.0143 16.5596 53.0143C15.0022 53.0143 13.7349 52.6388 13.707 52.6305C13.7403 52.6223 15.7492 52.1243 16.5596 51.6823C17.3767 51.2366 17.8916 50.3473 17.8916 50.3473C17.8916 50.3473 14.6576 51.3018 12.375 50.7311C10.0924 50.1604 8 48.0651 8 48.0651C8 48.0651 13.2563 48.1224 16.1797 46.734C20.1698 44.839 20.2799 41.0482 23.7881 38.3639C24.7104 37.6582 26.0404 37.0466 26.0703 37.0329ZM29.5 38.4996C28.5564 38.3451 27.8101 38.7296 27 38.9996C26.19 39.2697 25.7712 39.4096 25 39.9996C22.0994 42.2191 20.7991 46.4327 17.5 47.9997C15.0869 49.1457 12.0103 48.8629 12 48.862C12 48.862 13.4076 49.4997 15.5 49.4997C17.5924 49.4996 19.9834 48.862 19.9834 48.862C19.9834 48.862 19.9998 49.4998 19.5 50.4997C19.1042 51.2912 18.7083 51.4565 18.5605 51.4909C18.775 51.4572 19.5369 51.324 20.5 50.9997C21.6412 50.6154 22 50.4997 22 50.4997C22 50.4997 21.8803 51.0488 21.5 51.9997C21.1237 52.9405 20.5131 53.4879 20.5 53.4996C20.5167 53.4929 21.6963 53.0123 22.5 52.4997C23.3093 51.9834 24 51.4997 24 51.4997C24 51.4997 24.9997 52.4998 24.5 53.9996C24.161 55.0167 23.8218 55.3444 23.6387 55.4498C24.0657 55.2951 25.3691 54.8151 26 54.4996C26.7609 54.1192 28.1631 53.4996 28.1631 53.4996C28.1631 53.4996 29.157 54.5561 29 55.4996C28.8448 56.4309 28.5088 56.9852 28.5 56.9996C28.5157 56.993 29.5561 56.5513 30.5 55.9996C31.4509 55.4439 31.7773 54.9996 31.7773 54.9996C31.7773 54.9996 32.1196 55.3586 32.5 56.4996C32.6702 57.0102 32.5037 57.9782 32.5 57.9996C32.5084 57.9817 32.8721 57.2062 34 55.4996C35.1411 53.7731 35.1685 53.8526 36.5 50.9997C37.0973 49.7191 37 45.4997 37 45.4997C36.9929 45.47 36.5037 43.4364 35.5 42.4996C33.1409 40.2978 31.5177 38.8301 29.5 38.4996Z" fill="#628D32"/>
</svg>
