<svg width="32" height="32" viewBox="0 0 32 32" fill="none" xmlns="http://www.w3.org/2000/svg">
<rect width="32" height="32" rx="3" fill="#628D32"/>
<path d="M16 4C22.6273 4.00008 28 9.35532 28 15.9609C27.9998 22.5664 22.6272 27.9208 16 27.9209C12.9674 27.9209 10.1995 26.7975 8.08691 24.9482L10.5576 24.2812C12.1223 25.2995 13.99 25.8935 15.998 25.8936C21.503 25.8936 25.9658 21.4459 25.9658 15.959C25.9658 10.4721 21.5029 6.02441 15.998 6.02441C10.4933 6.02453 6.03031 10.4722 6.03027 15.959C6.03027 18.0485 6.67974 19.986 7.78516 21.5859L7.1123 23.9971C5.17853 21.8737 4.00008 19.0545 4 15.9609C4 9.35527 9.37267 4 16 4Z" fill="white"/>
<path d="M7.33691 23.1903L6.74609 25.3114L8.91602 24.7255L10.4844 26.2499L4 27.9999L5.76758 21.6649L7.33691 23.1903Z" fill="white"/>
<path d="M9.97683 13.281C9.95375 12.6484 10.4614 10.8543 11.3037 10.5783C12.146 10.3023 12.8383 10.3138 13.0229 10.7048C13.2076 11.0959 13.9691 12.8785 14.0499 13.281C14.1306 13.6835 13.8883 13.8675 13.6345 14.224C13.3806 14.5805 13.1268 14.615 13.0229 14.9486C12.9191 15.2821 13.6345 16.2366 14.5691 17.2027C15.5037 18.1687 17.1767 18.9393 17.5229 18.9393C17.869 18.9393 18.619 17.5707 18.9306 17.3867C19.2421 17.2027 21.7574 18.4217 21.9305 18.8013C22.1036 19.1808 21.9305 19.8823 21.7574 20.2618C21.5844 20.6414 20.6382 21.5039 19.6575 21.5959C18.6767 21.6879 15.1806 21.1014 12.6653 18.2837C10.1499 15.4661 9.99991 13.9135 9.97683 13.281Z" fill="white"/>
</svg>
