<svg width="32" height="32" viewBox="0 0 32 32" fill="none" xmlns="http://www.w3.org/2000/svg">
<path d="M16 0C24.8366 0 32 7.16344 32 16C32 24.8366 24.8366 32 16 32C7.16344 32 0 24.8366 0 16C0 7.16344 7.16344 0 16 0ZM16 0.799805C7.60528 0.799811 0.799811 7.60528 0.799805 16C0.799805 24.3947 7.60528 31.2002 16 31.2002C24.3947 31.2002 31.2002 24.3947 31.2002 16C31.2002 7.60528 24.3947 0.799805 16 0.799805Z" fill="#628D32"/>
<path fill-rule="evenodd" clip-rule="evenodd" d="M27.1785 23.9378L17.6394 26.4026C17.6533 26.2824 17.6619 26.1603 17.6619 26.0364C17.6619 25.5173 17.5339 25.0286 17.3113 24.5969L26.6912 22.2151L27.1785 23.9378ZM9.23218 6.81569C9.25043 6.81248 10.2844 6.63419 10.7302 7.22779C11.0777 7.69108 13.461 18.1578 14.5261 22.8889C14.5224 22.8889 14.5182 22.8889 14.5144 22.8889C13.9641 22.889 13.4468 23.0303 12.9968 23.2786C11.8333 17.6789 9.82761 8.33007 9.38159 8.2776C8.74406 8.20292 5.1853 9.21412 5.1853 9.21412L4.84839 7.8274L9.23218 6.81569Z" fill="#628D32"/>
<path d="M14.4395 23.7132C15.7636 23.7132 16.8377 24.7865 16.8379 26.1106C16.8379 27.4349 15.7638 28.5091 14.4395 28.5091C13.1153 28.5088 12.042 27.4348 12.042 26.1106C12.0422 24.7867 13.1155 23.7134 14.4395 23.7132ZM14.4395 24.6126C13.612 24.6128 12.9416 25.2832 12.9414 26.1106C12.9414 26.9382 13.6119 27.6095 14.4395 27.6096C15.2672 27.6096 15.9385 26.9383 15.9385 26.1106C15.9383 25.2831 15.267 24.6126 14.4395 24.6126Z" fill="#628D32"/>
<path fill-rule="evenodd" clip-rule="evenodd" d="M27.1018 20.6314C27.1619 20.8707 27.0167 21.1133 26.7775 21.1734L16.8702 23.6628C16.7217 23.7002 16.5658 23.6569 16.4469 23.5602C16.2921 23.4344 16.125 23.3232 15.9473 23.2291C15.8255 23.1646 15.7311 23.0557 15.6975 22.922L14.0245 16.2624C13.9645 16.0232 14.1097 15.7805 14.3489 15.7204L24.7502 13.107C24.9894 13.0469 25.2321 13.1921 25.2922 13.4313L27.1018 20.6314Z" fill="#628D32"/>
</svg>
