<svg preserveAspectRatio="none" width="100%" height="100%" overflow="visible" style="display: block;" viewBox="0 0 32 24" fill="none" xmlns="http://www.w3.org/2000/svg">
<path id="Subtract" d="M0.292969 4.42773C0.730189 4.79442 1.32067 5.28326 2.01074 5.84961C3.39155 6.98286 5.17778 8.43516 6.94434 9.86719C7.69664 10.477 8.4471 11.0816 9.16016 11.6582L1.70801 20.7549C1.40296 21.1273 1.45774 21.6773 1.83008 21.9824C2.20252 22.2875 2.75248 22.2328 3.05762 21.8604L10.5156 12.7549C10.9637 13.1168 11.3837 13.4576 11.7666 13.7666C12.42 14.294 12.964 14.732 13.3438 15.0381C13.5335 15.191 13.6827 15.3118 13.7842 15.3936C13.8345 15.4341 13.8733 15.4653 13.8994 15.4863C13.9058 15.4915 13.9121 15.4961 13.917 15.5C13.9226 15.5052 13.9287 15.5113 13.9355 15.5176C13.9664 15.5458 14.0094 15.5846 14.0625 15.6299C14.1679 15.7199 14.3184 15.841 14.4961 15.9639C14.8035 16.1765 15.3756 16.5264 16 16.5264C16.6245 16.5263 17.1965 16.1765 17.5039 15.9639C17.6815 15.841 17.8321 15.7199 17.9375 15.6299C17.9905 15.5846 18.0336 15.5458 18.0645 15.5176C18.0717 15.511 18.0781 15.5045 18.084 15.499C18.0888 15.4951 18.0952 15.4904 18.1016 15.4854C18.1282 15.4639 18.1675 15.4319 18.2188 15.3906C18.322 15.3074 18.474 15.185 18.667 15.0293C19.0529 14.7179 19.6048 14.2724 20.2686 13.7363C20.6411 13.4354 21.0479 13.1044 21.4814 12.7539L28.9424 21.8604C29.2474 22.2326 29.7965 22.2872 30.1689 21.9824C30.5414 21.6773 30.5962 21.1273 30.291 20.7549L22.8379 11.6572C23.5854 11.0524 24.3742 10.4158 25.165 9.77441C26.957 8.32119 28.7666 6.84931 30.1602 5.70605C30.8566 5.13471 31.4515 4.64345 31.8887 4.27734C31.9271 4.24515 31.9639 4.21296 32 4.18262V19.8975C31.9999 22.1631 30.1631 23.9998 27.8975 24H4.10254C1.8368 23.9999 6.97952e-05 22.1632 0 19.8975V4.17871C0.0917436 4.25653 0.189542 4.34099 0.292969 4.42773ZM27.8975 0C29.469 0.000117451 30.8335 0.884099 31.5225 2.18164C31.5149 2.26561 31.4903 2.31575 31.4609 2.34766C31.4693 2.33858 31.4272 2.38025 31.2832 2.50488C31.1574 2.6138 30.9838 2.76016 30.7686 2.94043C30.3382 3.30086 29.7487 3.7882 29.0537 4.3584C27.6642 5.49838 25.8584 6.96744 24.0674 8.41992C22.2765 9.8723 20.5013 11.3077 19.1738 12.3799C18.5102 12.9159 17.9581 13.3616 17.5723 13.6729C17.3797 13.8282 17.2281 13.95 17.125 14.0332C17.0736 14.0746 17.0334 14.1065 17.0068 14.1279C16.9937 14.1386 16.9833 14.1469 16.9766 14.1523C16.9732 14.155 16.9704 14.1578 16.9688 14.1592L16.9668 14.1602V14.1611C16.9471 14.177 16.9274 14.1934 16.9092 14.2109C16.9088 14.2113 16.9077 14.2125 16.9062 14.2139C16.9028 14.2171 16.8965 14.2234 16.8877 14.2314C16.8699 14.2478 16.8418 14.2729 16.8057 14.3037C16.732 14.3665 16.6286 14.4495 16.5117 14.5303C16.393 14.6124 16.2744 14.6825 16.168 14.7295C16.116 14.7524 16.0736 14.7673 16.042 14.7754C16.0101 14.7835 15.9968 14.7832 16 14.7832C16.003 14.7832 15.9897 14.7835 15.958 14.7754C15.9264 14.7673 15.8842 14.7525 15.832 14.7295C15.7254 14.6825 15.6063 14.6125 15.4873 14.5303C15.3705 14.4495 15.2679 14.3665 15.1943 14.3037C15.1582 14.2729 15.1302 14.2478 15.1123 14.2314C15.1035 14.2234 15.0972 14.2171 15.0938 14.2139L15.0918 14.2129V14.2119H15.0908L15.0918 14.2129L15.0332 14.1602H15.0322L15.0303 14.1582C15.0287 14.1569 15.0264 14.1548 15.0234 14.1523C15.0168 14.147 15.0062 14.1394 14.9932 14.1289C14.967 14.1078 14.9286 14.0759 14.8779 14.0352C14.7765 13.9534 14.6272 13.8336 14.4375 13.6807C14.0581 13.3748 13.5153 12.9372 12.8623 12.4102C11.556 11.3558 9.80753 9.9439 8.04199 8.5127C6.27622 7.08131 4.49381 5.63079 3.11719 4.50098C2.42876 3.93597 1.84313 3.45247 1.41309 3.0918C1.19792 2.91134 1.02409 2.76308 0.896484 2.65234C0.758782 2.53285 0.7067 2.48379 0.704102 2.48145C0.599872 2.37 0.551998 2.22755 0.537109 2.07324C1.24334 0.835109 2.57514 4.08455e-05 4.10254 0H27.8975Z" fill="var(--fill-0, white)"/>
</svg>
