<svg width="66" height="66" viewBox="0 0 66 66" fill="none" xmlns="http://www.w3.org/2000/svg">
<path d="M33 0C51.2254 0 66 14.7746 66 33C66 51.2254 51.2254 66 33 66C14.7746 66 0 51.2254 0 33C0 14.7746 14.7746 0 33 0ZM33 1.65039C15.6859 1.65042 1.6504 15.6859 1.65039 33C1.65039 50.3141 15.6859 64.3496 33 64.3496C50.3141 64.3496 64.3496 50.3141 64.3496 33C64.3496 15.6859 50.3141 1.65039 33 1.65039Z" fill="#628D32"/>
<path d="M37.8508 8C40.4993 8.00025 42.6458 10.1474 42.6458 12.7959V15.6738H23.7825V12.7959C23.7825 10.1472 25.9297 8 28.5784 8H37.8508ZM28.5784 9.91797C26.9892 9.91797 25.7004 11.2067 25.7004 12.7959V14.3945H40.7278V12.7959C40.7278 11.2067 39.4391 9.91797 37.8499 9.91797H28.5784Z" fill="#628D32"/>
<path d="M50.3198 48.605C50.3198 52.1366 47.4569 54.9996 43.9253 54.9996H22.1841C18.6525 54.9996 15.7896 52.1366 15.7896 48.605V23.6666H50.3198V48.605ZM24.7417 28.4625C24.0354 28.4625 23.4624 29.0355 23.4624 29.7418V48.605C23.4624 49.3113 24.0354 49.8843 24.7417 49.8843C25.448 49.8843 26.021 49.3114 26.021 48.605V29.7418C26.021 29.0354 25.448 28.4625 24.7417 28.4625ZM33.0552 28.4625C32.3489 28.4625 31.7759 29.0354 31.7759 29.7418V48.605C31.7759 49.3114 32.3489 49.8843 33.0552 49.8843C33.7613 49.8841 34.3335 49.3112 34.3335 48.605V29.7418C34.3335 29.0356 33.7613 28.4627 33.0552 28.4625ZM41.3677 28.4625C40.6614 28.4625 40.0884 29.0354 40.0884 29.7418V48.605C40.0884 49.3114 40.6614 49.8843 41.3677 49.8843C42.0739 49.8843 42.646 49.3113 42.646 48.605V29.7418C42.646 29.0355 42.0739 28.4625 41.3677 28.4625Z" fill="#628D32"/>
<path d="M50.3196 14.3945C52.6151 14.3945 54.4757 16.2553 54.4758 18.5508V19.5098C54.4758 21.8053 52.6151 23.667 50.3196 23.667H15.7893C13.4939 23.6669 11.6331 21.8052 11.6331 19.5098V18.5508C11.6332 16.2554 13.4939 14.3946 15.7893 14.3945H50.3196ZM18.3469 22.3877C17.9939 22.3879 17.7083 22.6743 17.7083 23.0273C17.7084 23.3803 17.994 23.6658 18.3469 23.666H47.762C48.115 23.666 48.4015 23.3804 48.4016 23.0273C48.4016 22.6742 48.1151 22.3877 47.762 22.3877H18.3469Z" fill="#628D32"/>
</svg>
