<svg width="45" height="45" viewBox="0 0 45 45" fill="none" xmlns="http://www.w3.org/2000/svg">
<circle cx="22.5" cy="22.5" r="22.5" fill="#628D32"/>
<path d="M15.0009 19.5528C14.9721 18.7621 15.6067 16.5195 16.6596 16.1745C17.7124 15.8295 18.5778 15.8438 18.8086 16.3326C19.0394 16.8214 19.9913 19.0496 20.0922 19.5528C20.1932 20.0559 19.8903 20.2859 19.573 20.7316C19.2557 21.1772 18.9384 21.2204 18.8086 21.6373C18.6788 22.0541 19.573 23.2473 20.7413 24.4549C21.9095 25.6625 24.0008 26.6256 24.4335 26.6256C24.8662 26.6256 25.8037 24.9149 26.1931 24.6849C26.5825 24.4549 29.7267 25.9787 29.9431 26.4531C30.1594 26.9275 29.9431 27.8044 29.7267 28.2788C29.5104 28.7532 28.3277 29.8314 27.1017 29.9464C25.8758 30.0614 21.5057 29.3283 18.3615 25.8062C15.2173 22.2842 15.0298 20.3434 15.0009 19.5528Z" fill="white"/>
<path d="M22.5 7.5C30.7841 7.5001 37.5 14.1941 37.5 22.4512C37.4998 30.708 30.7839 37.4013 22.5 37.4014C18.7087 37.4014 15.2463 35.9988 12.6055 33.6865L15.6973 32.8525C17.653 34.1252 19.9881 34.8672 22.498 34.8672C29.3789 34.8671 34.9568 29.3076 34.957 22.4492C34.957 15.5906 29.3791 10.0304 22.498 10.0303C15.6169 10.0303 10.0381 15.5906 10.0381 22.4492C10.0382 25.061 10.8487 27.4836 12.2305 29.4834L11.3906 32.4961C8.97341 29.8419 7.5001 26.3181 7.5 22.4512C7.5 14.1941 14.2158 7.5 22.5 7.5Z" fill="white"/>
<path d="M11.6709 31.4884L10.9326 34.1387L13.6445 33.4063L15.6055 35.3126L7.5 37.5001L9.70898 29.5811L11.6709 31.4884Z" fill="white"/>
</svg>
