<svg width="66" height="66" viewBox="0 0 66 66" fill="none" xmlns="http://www.w3.org/2000/svg">
<path d="M33 0C51.2254 0 66 14.7746 66 33C66 51.2254 51.2254 66 33 66C14.7746 66 0 51.2254 0 33C0 14.7746 14.7746 0 33 0ZM33 1.65039C15.6859 1.65042 1.6504 15.6859 1.65039 33C1.65039 50.3141 15.6859 64.3496 33 64.3496C50.3141 64.3496 64.3496 50.3141 64.3496 33C64.3496 15.6859 50.3141 1.65039 33 1.65039Z" fill="#628D32"/>
<path fill-rule="evenodd" clip-rule="evenodd" d="M56.0557 49.3721L36.3828 54.4561C36.4116 54.2078 36.4277 53.9552 36.4277 53.6992C36.4277 52.629 36.1668 51.6204 35.708 50.7305L55.0518 45.8174L56.0557 49.3721ZM19.041 14.0576C19.041 14.0576 21.2043 13.6714 22.1318 14.9072C22.8485 15.8628 27.7641 37.4499 29.9609 47.208C29.953 47.208 29.9445 47.208 29.9365 47.208C28.802 47.2081 27.7356 47.5001 26.8076 48.0117C24.4081 36.4634 20.271 17.1832 19.3506 17.0713C18.0369 16.9167 10.6953 19.0029 10.6953 19.0029L10 16.1445L19.041 14.0576Z" fill="#628D32"/>
<path d="M29.7822 48.9086C32.5135 48.9086 34.7284 51.1226 34.7285 53.8539C34.7285 56.5853 32.5136 58.8002 29.7822 58.8002C27.051 58.8 24.8369 56.5851 24.8369 53.8539C24.8371 51.1227 27.0511 48.9087 29.7822 48.9086ZM29.7822 50.7631C28.0753 50.7632 26.6916 52.147 26.6914 53.8539C26.6914 55.5609 28.0752 56.9446 29.7822 56.9447C31.4893 56.9447 32.873 55.561 32.873 53.8539C32.8729 52.1469 31.4893 50.7631 29.7822 50.7631Z" fill="#628D32"/>
<path fill-rule="evenodd" clip-rule="evenodd" d="M55.8976 42.552C56.0216 43.0454 55.7221 43.5459 55.2287 43.6699L34.8002 48.8031C34.4936 48.8801 34.172 48.7907 33.9265 48.5915C33.6058 48.3314 33.2592 48.1022 32.8912 47.908C32.6397 47.7753 32.4449 47.5507 32.3756 47.2749L28.9247 33.5419C28.8007 33.0485 29.1002 32.548 29.5935 32.424L51.0472 27.0322C51.5405 26.9082 52.041 27.2077 52.165 27.7011L55.8976 42.552Z" fill="#628D32"/>
</svg>
