<svg width="66" height="66" viewBox="0 0 66 66" fill="none" xmlns="http://www.w3.org/2000/svg">
<path d="M33 0C51.2254 0 66 14.7746 66 33C66 51.2254 51.2254 66 33 66C14.7746 66 0 51.2254 0 33C0 14.7746 14.7746 0 33 0ZM33 1.65039C15.6859 1.65042 1.6504 15.6859 1.65039 33C1.65039 50.3141 15.6859 64.3496 33 64.3496C50.3141 64.3496 64.3496 50.3141 64.3496 33C64.3496 15.6859 50.3141 1.65039 33 1.65039Z" fill="#628D32"/>
<path d="M49.9321 52.7631H16.0679V25.3051H49.9321V52.7631ZM24.9155 44.2202H31.9321V38.4243H24.9155V44.2202ZM34.0679 38.4243V44.2202H41.0854V38.4243H34.0679ZM24.9155 36.2885H31.9321V30.4916H24.9155V36.2885ZM34.0679 36.2885H41.0854V30.4916H34.0679V36.2885Z" fill="#628D32"/>
<path d="M33 7L56.3827 30.339H9.61731L33 7Z" fill="#628D32"/>
<rect x="42.3054" y="12.7966" width="5.79661" height="9.76271" fill="#628D32"/>
</svg>
