<svg width="24" height="24" viewBox="0 0 24 24" fill="none" xmlns="http://www.w3.org/2000/svg">
<path d="M12 0C18.6273 8.2708e-05 24 5.35532 24 11.9609C23.9998 18.5664 18.6272 23.9208 12 23.9209C8.96739 23.9209 6.1995 22.7975 4.08691 20.9482L6.55762 20.2812C8.12226 21.2995 9.98999 21.8935 11.998 21.8936C17.503 21.8936 21.9658 17.4459 21.9658 11.959C21.9658 6.4721 17.5029 2.02441 11.998 2.02441C6.49326 2.02453 2.03031 6.47217 2.03027 11.959C2.03027 14.0485 2.67974 15.986 3.78516 17.5859L3.1123 19.9971C1.17853 17.8737 8.01594e-05 15.0545 0 11.9609C0 5.35527 5.37267 0 12 0Z" fill="white"/>
<path d="M3.33691 19.1903L2.74609 21.3114L4.91602 20.7255L6.48438 22.2499L0 23.9999L1.76758 17.6649L3.33691 19.1903Z" fill="white"/>
<path d="M5.97683 9.28097C5.95375 8.64844 6.46144 6.85434 7.30373 6.57833C8.14603 6.30232 8.83833 6.31382 9.02294 6.70484C9.20756 7.09586 9.96909 8.87845 10.0499 9.28097C10.1306 9.68349 9.88832 9.8675 9.63447 10.224C9.38063 10.5805 9.12679 10.615 9.02294 10.9486C8.9191 11.2821 9.63447 12.2366 10.5691 13.2027C11.5037 14.1687 13.1767 14.9393 13.5229 14.9393C13.869 14.9393 14.619 13.5707 14.9306 13.3867C15.2421 13.2027 17.7574 14.4217 17.9305 14.8013C18.1036 15.1808 17.9305 15.8823 17.7574 16.2618C17.5844 16.6414 16.6382 17.5039 15.6575 17.5959C14.6767 17.6879 11.1806 17.1014 8.66526 14.2837C6.1499 11.4661 5.99991 9.9135 5.97683 9.28097Z" fill="white"/>
</svg>
