<svg preserveAspectRatio="none" width="100%" height="100%" overflow="visible" style="display: block;" viewBox="0 0 46.726 25.2119" fill="none" xmlns="http://www.w3.org/2000/svg">
<path id="Subtract" d="M3.09766 22.708C3.00803 23.0919 2.95898 23.4921 2.95898 23.9033C2.95902 24.3551 3.01638 24.7937 3.12402 25.2119H0V22.708H3.09766ZM34.375 0C34.3996 0.00294954 35.5339 0.140402 36.1387 0.511719C36.6743 0.840788 37.2773 1.65039 37.2773 1.65039L44.7324 12.3496C44.7324 12.3496 45.2326 13.0393 45.415 13.5449C45.5599 13.9465 45.6418 14.6116 45.6436 14.626V21.5693C45.6685 21.5696 46.6684 21.5894 46.7246 23.1631C46.7815 24.7565 45.1309 25.2119 45.1309 25.2119H38.9277C38.9277 25.2119 39.1941 23.9603 39.0986 23.1631C38.772 20.4365 36.4371 18.6191 33.6914 18.667C31.1441 18.7115 28.9677 20.4316 28.5693 22.708C28.3988 23.6834 28.7402 25.2119 28.7402 25.2119H13.2666C13.3742 24.7937 13.4306 24.3551 13.4307 23.9033C13.4307 23.4922 13.3826 23.0919 13.293 22.708H25.7236V0H34.375ZM24.2441 21.5693H12.8828C12.0248 19.849 10.2484 18.667 8.19531 18.667C6.14225 18.667 4.36588 19.849 3.50781 21.5693H0V0H10.8135V1.70703C10.8135 2.90132 11.7813 3.86995 12.9756 3.87012C14.17 3.87012 15.1387 2.90142 15.1387 1.70703V0H24.2441V21.5693ZM41.8867 15.082C41.8802 15.0821 41.7114 15.0846 41.4883 15.252C41.3175 15.38 41.3174 15.708 41.3174 15.708V19.4639C41.3179 19.4702 41.3545 19.8601 41.5459 20.0332C41.6557 20.1323 41.8828 20.2586 41.8867 20.2607H43.6514C43.6569 20.259 43.8618 20.1949 43.9922 20.0332C44.1438 19.8448 44.1627 19.4718 44.1631 19.4639V15.708C44.1631 15.708 44.1063 15.4227 43.9355 15.252C43.7928 15.1096 43.4363 15.0829 43.4238 15.082H41.8867ZM29.2529 2.8457C29.2529 2.8457 28.8317 2.88397 28.6836 3.0166C28.5295 3.1547 28.5131 3.51879 28.5127 3.52832V10.0732C28.5127 10.0732 28.6266 10.4149 28.9111 10.6426C29.1939 10.8688 29.533 10.8142 29.5371 10.8135H39.9521C39.9601 10.8106 40.3876 10.6542 40.4639 10.415C40.5513 10.1397 40.1797 9.73145 40.1797 9.73145L35.9111 3.52832C35.9045 3.52073 35.6279 3.20634 35.3994 3.07324C35.0503 2.87008 34.3939 2.84635 34.375 2.8457H29.2529Z" fill="var(--fill-0, #628D32)"/>
</svg>
