<svg width="44" height="44" viewBox="0 0 44 44" fill="none" xmlns="http://www.w3.org/2000/svg">
<path d="M22 0C34.1503 0 44 9.84974 44 22C44 34.1503 34.1503 44 22 44C9.84974 44 0 34.1503 0 22C0 9.84974 9.84974 0 22 0ZM22 1.09961C10.4573 1.09962 1.09962 10.4573 1.09961 22C1.09961 33.5427 10.4573 42.9004 22 42.9004C33.5428 42.9004 42.9004 33.5428 42.9004 22C42.9004 10.4573 33.5427 1.09961 22 1.09961Z" fill="#628D32"/>
<path fill-rule="evenodd" clip-rule="evenodd" d="M37.3708 32.9148L24.2546 36.3034C24.2738 36.1381 24.2859 35.97 24.2859 35.7995C24.2859 35.0859 24.1114 34.4134 23.8054 33.82L36.7009 30.5446L37.3708 32.9148ZM12.6941 9.37179C12.6941 9.37179 14.1363 9.11434 14.7546 9.9382C15.2324 10.5752 18.5099 24.9673 19.9744 31.4724C19.969 31.4724 19.9632 31.4724 19.9578 31.4724C19.2014 31.4725 18.4904 31.6665 17.8718 32.0075C16.272 24.308 13.5134 11.4527 12.9001 11.3806C12.0272 11.2782 7.16886 12.6578 7.13062 12.6687L6.66675 10.7624L12.6941 9.37179Z" fill="#628D32"/>
<path d="M19.855 32.6057C21.6759 32.6057 23.1518 34.0817 23.1519 35.9025C23.1519 37.7234 21.6759 39.1994 19.855 39.1994C18.0341 39.1993 16.5581 37.7234 16.5581 35.9025C16.5582 34.0818 18.0342 32.6058 19.855 32.6057ZM19.855 33.842C18.717 33.8421 17.7945 34.7646 17.7944 35.9025C17.7944 37.0405 18.717 37.963 19.855 37.9631C20.9931 37.9631 21.9155 37.0406 21.9155 35.9025C21.9154 34.7646 20.993 33.842 19.855 33.842Z" fill="#628D32"/>
<path fill-rule="evenodd" clip-rule="evenodd" d="M37.2652 28.368C37.3479 28.6969 37.1482 29.0306 36.8193 29.1132L23.1992 32.5354C22.9949 32.5867 22.7805 32.5271 22.617 32.3943C22.4034 32.2208 22.1727 32.0677 21.9276 31.9381C21.76 31.8495 21.6301 31.6998 21.5839 31.5159L19.2833 22.3609C19.2007 22.032 19.4003 21.6983 19.7292 21.6157L34.0313 18.0214C34.3602 17.9388 34.6938 18.1384 34.7765 18.4673L37.2652 28.368Z" fill="#628D32"/>
</svg>
