<svg width="70" height="70" viewBox="0 0 70 70" fill="none" xmlns="http://www.w3.org/2000/svg">
<path d="M35 0C54.33 0 70 15.67 70 35C70 54.33 54.33 70 35 70C15.67 70 0 54.33 0 35C0 15.67 15.67 0 35 0ZM35 1.75C16.6366 1.75003 1.75001 16.6366 1.75 35C1.75 53.3634 16.6366 68.25 35 68.25C53.3635 68.25 68.25 53.3635 68.25 35C68.25 16.6365 53.3635 1.75 35 1.75Z" fill="#628D32"/>
<path fill-rule="evenodd" clip-rule="evenodd" d="M35.7365 21.4541C37.686 20.9275 38.8952 21.1614 40.8879 21.4541C44.5198 21.9876 48.1364 24.2516 49.5715 25.2431C51.0066 26.2347 51.7361 27.1368 52.8098 28.6416C54.4246 30.9047 55.5227 32.4081 55.6799 35.2422C55.7784 37.0195 55.7201 38.1559 54.9445 39.7343C54.3556 40.9329 53.6929 41.7656 52.8098 42.3515C51.9267 42.9374 51.3753 43.8485 50.1242 42.7031C48.8731 41.5576 38.0178 31.9218 38.0178 31.9218C38.007 31.911 37.1982 31.1075 35.7365 31.9218C34.2648 32.7421 33.3297 35.0713 31.1369 35.6718C28.648 36.3532 25.3753 36.8585 24.6975 34.2265C24.3491 32.873 25.3957 30.7109 25.3957 30.7109C25.4164 30.6845 30.3678 24.3813 32.3508 23.0947C34.3378 21.8056 34.3281 21.8345 35.7365 21.4541ZM40.4856 23.2881C38.8488 23.106 37.8553 22.9607 36.2541 23.2881C35.0973 23.5246 34.8558 23.7187 33.6047 24.7343C32.3536 25.75 28.968 29.7978 28.968 29.7978C28.9637 29.8025 26.5852 32.4076 26.8703 33.249C27.4271 34.8856 29.9193 34.5833 31.5803 33.249C32.9416 32.1554 34.6028 30.3081 35.8117 29.7978C37.0207 29.2877 38.1281 29.7978 38.1281 29.7978C38.1967 29.8581 49.7276 39.9997 50.7522 40.7099C51.7798 41.422 53.1071 39.8895 53.7326 38.3662C54.358 36.843 54.1534 35.6522 53.9533 34.7724C53.6069 33.2492 53.0555 32.2893 52.592 31.2959C51.8929 29.7975 51.1214 29.1102 49.7951 27.7031C48.9133 26.7675 47.8829 25.9368 46.7043 25.3203C45.5256 24.7037 43.4686 23.6198 40.4856 23.2881Z" fill="#628D32"/>
<path fill-rule="evenodd" clip-rule="evenodd" d="M52.6371 42.1357C52.9343 42.4292 53.1257 42.6256 53.1859 42.7079C53.8883 43.6695 54.7794 45.8507 53.1859 47.8661C52.3437 48.9311 51.0656 49.3965 49.8431 48.872L49.5999 48.7538L49.6576 48.8847C49.9188 49.6034 49.7926 51.2108 49.0081 51.9696C48.197 52.7539 46.9748 53.3392 45.9398 52.8573C45.7072 52.7489 45.292 52.4356 44.7874 52.0175C45.085 52.3692 45.2806 52.6642 45.3109 52.8573C45.4732 53.8923 45.0099 54.905 44.2757 55.6298C43.461 56.4339 41.9101 56.806 40.9857 56.3329C40.8733 56.2753 40.7303 56.1729 40.5667 56.039C40.7981 56.7767 40.2743 58.213 39.4691 58.8466C38.0643 59.9516 36.1786 59.8445 34.7738 58.8466C34.4984 58.6509 33.6333 57.8972 32.4154 56.8046L33.6146 55.6298C33.6769 55.5687 33.7345 55.5043 33.7904 55.4394C34.097 55.7027 34.3137 55.8845 34.4232 55.9618C35.6262 56.8116 38.105 57.4507 38.4437 55.9618C38.6019 55.2661 37.4764 53.9174 37.1595 53.3437C36.8443 52.7727 37.2305 52.1284 37.2337 52.123C37.2621 52.1195 38.7186 51.9448 39.3412 52.6034C39.97 53.2688 41.8613 53.9083 42.5589 53.2236C43.1874 52.6065 42.7626 51.7734 42.2992 50.9403C41.8399 50.1149 40.8031 47.8042 40.7835 47.7607C40.8316 47.7738 42.8273 48.3236 43.7406 49.0175C44.6648 49.7198 45.6734 50.0667 46.4769 49.5351C47.4515 48.8892 46.8101 44.2039 46.6986 43.9892C47.2908 44.5813 49.7382 46.8421 50.5072 45.8749C51.6477 44.4402 50.7579 43.444 50.0843 42.6777C51.1971 43.4972 51.7379 42.7015 52.5746 42.1786C52.596 42.1652 52.6159 42.1493 52.6371 42.1357ZM45.2201 43.8046C45.2429 43.7943 46.0658 43.4287 46.6478 43.9443C46.3787 43.7873 45.2528 43.8041 45.2201 43.8046ZM25.0912 23.8144C27.4485 23.322 29.3799 23.406 31.6869 24.1777C31.1423 24.579 30.4509 25.2194 29.721 25.954C28.5552 25.7995 27.4184 25.8689 26.1341 26.1357C23.6556 26.6506 21.2636 28.087 19.8343 29.8183C18.4051 31.5496 16.9852 34.6348 16.6371 36.2402C16.2891 37.8452 16.6379 38.6011 16.9544 39.1991C17.2597 39.7755 17.6815 40.2069 18.222 40.9706L16.8529 42.3144C16.3354 41.8027 16.0052 41.4594 15.9222 41.3398C15.2568 40.3787 14.7392 39.8604 14.3695 39.1581C13.9998 38.4557 13.5927 37.5679 13.9994 35.6825C14.4061 33.7969 16.0644 30.1739 17.7337 28.1405C19.4031 26.1071 22.1963 24.4192 25.0912 23.8144Z" fill="#628D32"/>
<path fill-rule="evenodd" clip-rule="evenodd" d="M18.7281 40.2831C20.0329 38.9955 22.1274 39.0162 23.4069 40.329C24.6863 41.6418 24.6663 43.75 23.3619 45.0379L20.4166 47.9452C19.1119 49.2328 17.0174 49.2121 15.7379 47.8993C14.4585 46.5864 14.4783 44.4782 15.7828 43.1903L18.7281 40.2831ZM21.9195 41.7713C21.3635 41.2008 20.4534 41.1914 19.8863 41.7508L17.4664 44.1395C16.8995 44.6993 16.8909 45.6158 17.4469 46.1864C18.003 46.757 18.914 46.7657 19.4811 46.2059L21.9 43.8182C22.4671 43.2584 22.4757 42.342 21.9195 41.7713Z" fill="#628D32"/>
<path fill-rule="evenodd" clip-rule="evenodd" d="M22.935 43.7959C24.1944 42.5527 26.2164 42.5725 27.4516 43.8399C28.6867 45.1073 28.6671 47.1425 27.4076 48.3858L23.8197 51.9277C22.5602 53.1711 20.5374 53.1512 19.3021 51.8838C18.0673 50.6164 18.0868 48.5811 19.3461 47.3379L22.935 43.7959ZM25.8783 45.1162C25.418 44.644 24.664 44.6363 24.1947 45.0996L20.6586 48.5908C20.1893 49.0541 20.1819 49.8129 20.642 50.2852C21.1023 50.7574 21.8562 50.765 22.3256 50.3018L25.8617 46.8106C26.3311 46.3472 26.3386 45.5885 25.8783 45.1162Z" fill="#628D32"/>
<path fill-rule="evenodd" clip-rule="evenodd" d="M26.3577 47.3222C27.5917 46.104 29.5733 46.1234 30.7835 47.3651C31.9936 48.6069 31.9745 50.6011 30.7406 51.8192L27.4564 55.0605C26.2224 56.2784 24.2417 56.2592 23.0316 55.0175C21.8214 53.7757 21.8406 51.7815 23.0745 50.5634L26.3577 47.3222ZM29.1986 48.6708C28.7212 48.181 27.9394 48.173 27.4525 48.6532L24.3372 51.7284C23.8504 52.209 23.8423 52.9962 24.3197 53.4862C24.7972 53.9762 25.5788 53.9835 26.0658 53.5028L29.181 50.4276C29.6678 49.9471 29.6758 49.1608 29.1986 48.6708Z" fill="#628D32"/>
<path fill-rule="evenodd" clip-rule="evenodd" d="M29.5372 51.3026C30.7474 50.1078 32.691 50.1267 33.878 51.3446C35.0649 52.5624 35.0461 54.5179 33.836 55.7127L31.8516 57.6717C30.6413 58.8665 28.6978 58.8477 27.5108 57.6297C26.3241 56.4118 26.3426 54.4563 27.5528 53.2616L29.5372 51.3026ZM32.2803 52.7713C31.8101 52.289 31.0401 52.2815 30.5606 52.7547L29.0782 54.2186C28.5987 54.6919 28.5903 55.4675 29.0606 55.95C29.5307 56.4324 30.3008 56.4395 30.7803 55.9666L32.2637 54.5028C32.7432 54.0294 32.7506 53.2538 32.2803 52.7713Z" fill="#628D32"/>
<rect x="35.9999" y="52.7574" width="2.29227" height="5.22483" rx="1.14613" transform="rotate(-49.1468 35.9999 52.7574)" fill="#628D32"/>
<rect x="39.704" y="48.4552" width="2.29227" height="6.14069" rx="1.14613" transform="rotate(-49.9597 39.704 48.4552)" fill="#628D32"/>
<rect x="43.454" y="44.207" width="2.29227" height="6.6773" rx="1.14613" transform="rotate(-49.5382 43.454 44.207)" fill="#628D32"/>
<path fill-rule="evenodd" clip-rule="evenodd" d="M53.1927 18.4482C53.7089 18.1185 54.3947 18.2702 54.7245 18.7864L63.6794 32.8038C64.0091 33.32 63.8585 34.0066 63.3423 34.3364L57.7846 37.8864C57.2683 38.2161 56.5825 38.0644 56.2528 37.5482L47.2977 23.5299C46.9682 23.0137 47.1197 22.3278 47.6359 21.9981L53.1927 18.4482ZM54.0092 21.495C53.7894 21.1508 53.3318 21.0494 52.9876 21.2693L50.1766 23.0647C49.8325 23.2846 49.7321 23.742 49.9519 24.0861L56.9221 34.9973C57.1419 35.3413 57.5986 35.4427 57.9428 35.2232L60.7538 33.4277C61.0978 33.2079 61.1991 32.7503 60.9795 32.4061L54.0092 21.495Z" fill="#628D32"/>
<path fill-rule="evenodd" clip-rule="evenodd" d="M22.3163 22.6874C22.8322 23.0178 22.9825 23.7048 22.6521 24.2207L13.6803 38.2267C13.35 38.7425 12.6635 38.8937 12.1477 38.5633L6.59451 35.0061C6.07868 34.6757 5.92886 33.9895 6.25927 33.4736L15.2313 19.4662C15.5618 18.9506 16.248 18.8006 16.7637 19.131L22.3163 22.6874ZM19.8935 24.7055C20.1134 24.3617 20.013 23.9042 19.6692 23.684L16.8606 21.8848C16.5168 21.6646 16.0594 21.7652 15.8391 22.109L8.85579 33.0118C8.63561 33.3556 8.7351 33.8127 9.07864 34.0331L11.8881 35.8318C12.2319 36.052 12.689 35.9525 12.9093 35.6089L19.8935 24.7055Z" fill="#628D32"/>
</svg>
