<svg width="32" height="32" viewBox="0 0 32 32" fill="none" xmlns="http://www.w3.org/2000/svg">
<path d="M16 0C24.8366 0 32 7.16344 32 16C32 24.8366 24.8366 32 16 32C7.16344 32 0 24.8366 0 16C0 7.16344 7.16344 0 16 0ZM16 0.799805C7.60529 0.799819 0.799807 7.60528 0.799805 16C0.799805 24.3947 7.60528 31.2002 16 31.2002C24.3947 31.2002 31.2002 24.3947 31.2002 16C31.2002 7.60527 24.3947 0.799805 16 0.799805Z" fill="#628D32"/>
<path d="M6.83716 20.7067C6.79364 20.8929 6.76785 21.0864 6.76782 21.2858C6.76782 21.5051 6.79855 21.7176 6.85083 21.9206H5.33325V20.7067H6.83716ZM21.9993 9.69696C21.9993 9.69696 22.5583 9.76311 22.8547 9.94501C23.1131 10.1038 23.4046 10.4929 23.4075 10.4968L27.0217 15.6843C27.0217 15.6843 27.2644 16.0192 27.3528 16.2643C27.4237 16.4612 27.4631 16.7888 27.4631 16.7888V20.155C27.4631 20.155 27.9599 20.1549 27.9875 20.9274C28.0149 21.692 27.2314 21.916 27.2151 21.9206H24.2073C24.2104 21.9056 24.336 21.3091 24.2903 20.9274C24.1319 19.6055 22.9994 18.7245 21.6682 18.7477C20.4333 18.7695 19.3779 19.6031 19.1848 20.7067C19.103 21.1741 19.2641 21.9037 19.2678 21.9206H11.762C11.8143 21.7176 11.845 21.5052 11.845 21.2858C11.8449 21.0864 11.8201 20.8929 11.7766 20.7067H17.8059V9.69696H21.9993ZM17.0881 20.155H11.5774C11.1613 19.3213 10.302 18.7478 9.30688 18.7477C8.31179 18.7477 7.45257 19.3213 7.03638 20.155H5.33325V9.69696H10.5764V10.5251C10.5766 11.1039 11.0454 11.5728 11.6243 11.5729C12.2033 11.5729 12.6729 11.104 12.6731 10.5251V9.69696H17.0881V20.155ZM25.6418 17.0095C25.6371 17.0095 25.5556 17.0121 25.4485 17.0925C25.3662 17.1548 25.3665 17.3132 25.3665 17.3132V19.1335C25.3665 19.1335 25.3833 19.3253 25.4768 19.4099C25.5292 19.4572 25.6369 19.5174 25.6418 19.5202H26.4973C26.4973 19.5202 26.5992 19.4895 26.6633 19.4099C26.7375 19.3175 26.7454 19.1335 26.7454 19.1335V17.3132C26.7454 17.3132 26.7178 17.1753 26.635 17.0925C26.5647 17.0221 26.387 17.0095 26.387 17.0095H25.6418ZM19.5159 11.0768C19.5053 11.0778 19.3103 11.0973 19.2405 11.1599C19.1649 11.2278 19.1575 11.4079 19.1575 11.4079V14.5807C19.1575 14.5807 19.2129 14.7467 19.3508 14.8571C19.4197 14.9121 19.4954 14.9332 19.554 14.9401H24.7043C24.7129 14.937 24.9159 14.8613 24.9524 14.7468C24.9937 14.6166 24.8232 14.4252 24.8147 14.4157L22.7444 11.4079C22.7406 11.4035 22.6069 11.2515 22.4963 11.1872C22.3246 11.0872 21.9993 11.0768 21.9993 11.0768H19.5159Z" fill="#628D32"/>
<path d="M21.7791 19.2443C22.9067 19.2443 23.821 20.1465 23.821 21.2589C23.8209 22.3712 22.9066 23.2726 21.7791 23.2726C20.6514 23.2726 19.7372 22.3713 19.7371 21.2589C19.7371 20.1465 20.6513 19.2443 21.7791 19.2443ZM21.7791 20.2931C21.2304 20.2931 20.7859 20.7377 20.7859 21.2863C20.7859 21.8349 21.2305 22.2794 21.7791 22.2794C22.3276 22.2794 22.7722 21.8348 22.7722 21.2863C22.7722 20.7377 22.3276 20.2932 21.7791 20.2931Z" fill="#628D32"/>
<path d="M9.30688 19.2443C10.4346 19.2443 11.3489 20.1465 11.3489 21.2589C11.3487 22.3712 10.4345 23.2726 9.30688 23.2726C8.17927 23.2726 7.26507 22.3713 7.26489 21.2589C7.26489 20.1465 8.17916 19.2443 9.30688 19.2443ZM9.30688 20.2931C8.75826 20.2931 8.31372 20.7377 8.31372 21.2863C8.31376 21.8349 8.75829 22.2794 9.30688 22.2794C9.85547 22.2794 10.3 21.8349 10.3 21.2863C10.3 20.7377 9.85549 20.2931 9.30688 20.2931Z" fill="#628D32"/>
<path d="M10.9624 9.69696H12.2317V10.4972C12.2317 10.8477 11.9476 11.1318 11.5971 11.1318C11.2465 11.1318 10.9624 10.8477 10.9624 10.4972V9.69696Z" fill="#628D32"/>
</svg>
