<svg preserveAspectRatio="none" width="100%" height="100%" overflow="visible" style="display: block;" viewBox="0 0 66 66" fill="none" xmlns="http://www.w3.org/2000/svg">
<g id="Icon/Entr&#195;&#188;mpelung/66">
<path id="Subtract" d="M33 0C51.2254 0 66 14.7746 66 33C66 51.2254 51.2254 66 33 66C14.7746 66 0 51.2254 0 33C0 14.7746 14.7746 0 33 0ZM33 1.65039C15.6859 1.65042 1.6504 15.6859 1.65039 33C1.65039 50.3141 15.6859 64.3496 33 64.3496C50.3141 64.3496 64.3496 50.3141 64.3496 33C64.3496 15.6859 50.3141 1.65039 33 1.65039Z" fill="var(--fill-0, #628D32)"/>
<g id="Group 3022">
<path id="Subtract_2" d="M37.8509 8C40.4994 8.00025 42.6458 10.1474 42.6458 12.7959V15.6738H23.7825V12.7959C23.7825 10.1472 25.9298 8 28.5784 8H37.8509ZM28.5784 9.91797C26.9892 9.91797 25.7005 11.2067 25.7005 12.7959V14.3945H40.7279V12.7959C40.7279 11.2067 39.4391 9.91797 37.8499 9.91797H28.5784Z" fill="var(--fill-0, #628D32)"/>
<path id="Subtract_3" d="M50.3197 48.605C50.3197 52.1366 47.4568 54.9995 43.9252 54.9995H22.184C18.6524 54.9995 15.7894 52.1366 15.7894 48.605V23.6665H50.3197V48.605ZM24.7416 28.4624C24.0353 28.4625 23.4623 29.0354 23.4623 29.7417V48.605C23.4623 49.3113 24.0353 49.8843 24.7416 49.8843C25.4479 49.8843 26.0209 49.3113 26.0209 48.605V29.7417C26.0209 29.0354 25.4479 28.4624 24.7416 28.4624ZM33.0551 28.4624C32.3488 28.4624 31.7758 29.0354 31.7758 29.7417V48.605C31.7758 49.3113 32.3488 49.8843 33.0551 49.8843C33.7612 49.8841 34.3334 49.3112 34.3334 48.605V29.7417C34.3334 29.0356 33.7612 28.4627 33.0551 28.4624ZM41.3676 28.4624C40.6613 28.4624 40.0883 29.0354 40.0883 29.7417V48.605C40.0883 49.3113 40.6613 49.8843 41.3676 49.8843C42.0738 49.8842 42.6459 49.3113 42.6459 48.605V29.7417C42.6459 29.0355 42.0738 28.4625 41.3676 28.4624Z" fill="var(--fill-0, #628D32)"/>
<path id="Subtract_4" d="M50.3195 14.3945C52.615 14.3945 54.4757 16.2553 54.4757 18.5508V19.5097C54.4757 21.8053 52.615 23.667 50.3195 23.667H15.7892C13.4938 23.6669 11.633 21.8052 11.633 19.5097V18.5508C11.6331 16.2554 13.4938 14.3946 15.7892 14.3945H50.3195ZM18.3468 22.3877C17.9938 22.3878 17.7082 22.6743 17.7082 23.0273C17.7083 23.3802 17.9939 23.6658 18.3468 23.666H47.7619C48.1149 23.666 48.4014 23.3803 48.4015 23.0273C48.4015 22.6742 48.115 22.3877 47.7619 22.3877H18.3468Z" fill="var(--fill-0, #628D32)"/>
</g>
</g>
</svg>
