<svg width="44" height="44" viewBox="0 0 44 44" fill="none" xmlns="http://www.w3.org/2000/svg">
<path d="M22 0C34.1503 0 44 9.84974 44 22C44 34.1503 34.1503 44 22 44C9.84974 44 0 34.1503 0 22C0 9.84974 9.84974 0 22 0ZM22 1.09961C10.4573 1.09963 1.09961 10.4573 1.09961 22C1.09961 33.5427 10.4573 42.9004 22 42.9004C33.5428 42.9004 42.9004 33.5428 42.9004 22C42.9004 10.4573 33.5427 1.09961 22 1.09961Z" fill="#628D32"/>
<path d="M9.39868 28.472C9.33892 28.728 9.30591 28.9947 9.30591 29.2689C9.30593 29.57 9.34453 29.8622 9.41626 30.141H7.33325V28.472H9.39868ZM30.2493 13.3333C30.2493 13.3333 31.0185 13.4248 31.426 13.6751C31.783 13.8946 32.1848 14.4339 32.1848 14.4339L37.1545 21.5667C37.1545 21.5667 37.489 22.0265 37.6106 22.3636C37.7081 22.6343 37.762 23.0843 37.762 23.0843V27.7132C37.762 27.7132 38.4447 27.7134 38.4827 28.7757C38.5203 29.8378 37.4202 30.141 37.4202 30.141H33.2854C33.2895 30.1215 33.4615 29.3009 33.3987 28.7757C33.181 26.958 31.6246 25.7457 29.7942 25.7777C28.096 25.8074 26.6457 26.9544 26.3801 28.472C26.2675 29.1161 26.4892 30.122 26.4934 30.141H16.177C16.2487 29.8622 16.2873 29.57 16.2874 29.2689C16.2874 28.9947 16.2543 28.728 16.1946 28.472H24.4827V13.3333H30.2493ZM23.4963 27.7132H15.9221C15.3502 26.5662 14.1658 25.7778 12.7971 25.7777C11.4284 25.7777 10.2441 26.5663 9.67212 27.7132H7.33325V13.3333H14.5422V14.472C14.5425 15.268 15.1876 15.9133 15.9836 15.9134C16.7798 15.9134 17.4258 15.2681 17.426 14.472V13.3333H23.4963V27.7132ZM35.2581 23.388C35.2581 23.388 35.1441 23.3876 34.9924 23.5013C34.8796 23.586 34.8782 23.8014 34.8782 23.805V26.3089C34.8782 26.3089 34.9019 26.5725 35.0305 26.6888C35.1044 26.7554 35.2581 26.8402 35.2581 26.8402H36.4338C36.4338 26.8402 36.5732 26.7981 36.6614 26.6888C36.7636 26.5618 36.7756 26.3089 36.7756 26.3089V23.805C36.7752 23.8029 36.7365 23.6145 36.6233 23.5013C36.528 23.4066 36.2908 23.3886 36.2825 23.388H35.2581ZM26.8352 15.2308C26.8352 15.2308 26.554 15.2557 26.4553 15.3441C26.3513 15.4374 26.342 15.6859 26.342 15.6859V20.0492C26.3453 20.0589 26.4222 20.2797 26.6077 20.4281C26.7024 20.5038 26.8064 20.5328 26.887 20.5423H33.968C33.9733 20.5404 34.2592 20.4362 34.3098 20.2767C34.3675 20.0949 34.1242 19.8269 34.1194 19.8216L31.2737 15.6859C31.2698 15.6814 31.0854 15.471 30.9329 15.3822C30.6967 15.2447 30.2493 15.2308 30.2493 15.2308H26.8352Z" fill="#628D32"/>
<path d="M29.946 26.4609C31.4966 26.4609 32.7536 27.7009 32.7537 29.2305C32.7537 30.7601 31.4967 32 29.946 32C28.3954 32 27.1384 30.7601 27.1384 29.2305C27.1385 27.7009 28.3955 26.4609 29.946 26.4609ZM29.946 27.9023C29.1917 27.9023 28.5798 28.5142 28.5798 29.2686C28.5798 30.0229 29.1917 30.6348 29.946 30.6348C30.7004 30.6348 31.3123 30.0229 31.3123 29.2686C31.3122 28.5142 30.7004 27.9024 29.946 27.9023Z" fill="#628D32"/>
<path d="M12.7966 26.4609C14.3472 26.4609 15.6042 27.7009 15.6042 29.2305C15.6042 30.7601 14.3472 32 12.7966 32C11.246 32 9.98901 30.7601 9.98901 29.2305C9.9891 27.7009 11.2461 26.4609 12.7966 26.4609ZM12.7966 27.9023C12.0423 27.9024 11.4304 28.5142 11.4304 29.2686C11.4304 30.0229 12.0423 30.6347 12.7966 30.6348C13.551 30.6348 14.1628 30.0229 14.1628 29.2686C14.1628 28.5142 13.551 27.9023 12.7966 27.9023Z" fill="#628D32"/>
<path d="M15.0732 13.3333H16.8185V14.4336C16.8185 14.9156 16.4278 15.3063 15.9459 15.3063C15.4639 15.3063 15.0732 14.9156 15.0732 14.4336V13.3333Z" fill="#628D32"/>
</svg>
