<svg width="70" height="70" viewBox="0 0 70 70" fill="none" xmlns="http://www.w3.org/2000/svg">
<path d="M35 0C54.33 0 70 15.67 70 35C70 54.33 54.33 70 35 70C15.67 70 0 54.33 0 35C0 15.67 15.67 0 35 0ZM35 1.75C16.6366 1.75003 1.75001 16.6366 1.75 35C1.75 53.3634 16.6366 68.25 35 68.25C53.3635 68.25 68.25 53.3635 68.25 35C68.25 16.6365 53.3635 1.75 35 1.75Z" fill="#628D32"/>
<path fill-rule="evenodd" clip-rule="evenodd" d="M35.117 12.7273C35.1456 12.7532 39.4502 16.6541 43.2489 17.6472C47.0797 18.6486 54.0542 18.8337 54.0907 18.8347C54.0903 18.8749 53.9206 39.1941 53.4129 42.2458C52.9047 45.2995 50.38 47.7034 47.6532 50.5593C43.6345 54.7681 35.1766 58.6744 35.117 58.7019C35.117 58.7019 26.5273 54.7796 22.411 50.5593C19.6274 47.7053 17.3283 44.7906 16.4813 42.2458C15.6353 39.7019 15.9767 18.8776 15.9774 18.8347C15.9774 18.8347 22.821 18.46 26.2323 17.6472C30.1207 16.7206 35.117 12.7273 35.117 12.7273ZM35.0496 15.8035C35.0496 15.8035 30.7558 19.2356 27.4139 20.032C24.4822 20.7306 18.6004 21.0525 18.6004 21.0525C18.6004 21.0525 18.306 38.9865 19.034 41.1736C19.7621 43.3605 21.7376 45.8645 24.1297 48.3171C27.6674 51.9443 35.0496 55.3161 35.0496 55.3161C35.0759 55.304 42.3644 51.9406 45.8241 48.3171C48.1673 45.8629 50.3374 43.7978 50.7743 41.1736C51.211 38.5491 51.3563 21.0525 51.3563 21.0525C51.3148 21.0514 45.3274 20.8919 42.0379 20.032C38.7624 19.1755 35.0496 15.8035 35.0496 15.8035Z" fill="#628D32"/>
<path d="M44.8383 25.5215C45.4545 24.6244 46.7775 24.6204 47.3991 25.5137C47.769 26.0452 47.7711 26.7502 47.4045 27.284L34.6631 45.8356C34.047 46.7327 32.724 46.7368 32.1024 45.8435C31.7325 45.312 31.7303 44.607 32.0969 44.0732L44.8383 25.5215Z" fill="#628D32"/>
<rect x="23.3271" y="37.4984" width="3.05249" height="13.9097" rx="1.52625" transform="rotate(-44.8725 23.3271 37.4984)" fill="#628D32"/>
</svg>
