<svg width="24" height="24" viewBox="0 0 24 24" fill="none" xmlns="http://www.w3.org/2000/svg">
<path d="M12 0C18.6274 0 24 5.37258 24 12C24 18.6274 18.6274 24 12 24C5.37258 24 0 18.6274 0 12C0 5.37258 5.37258 0 12 0ZM12 0.599609C5.70396 0.59962 0.599611 5.70396 0.599609 12C0.599609 18.296 5.70396 23.4004 12 23.4004C18.296 23.4004 23.4004 18.296 23.4004 12C23.4004 5.70396 18.296 0.599609 12 0.599609Z" fill="#628D32"/>
<ellipse cx="16.2797" cy="15.9231" rx="1.55245" ry="1.53147" fill="#628D32"/>
<path d="M4.96082 15.462C4.92781 15.6034 4.90906 15.7509 4.90906 15.9024C4.90909 16.0692 4.93273 16.2305 4.97253 16.3849H3.81824V15.462H4.96082ZM16.4891 7.09091C16.4891 7.09091 16.9141 7.14115 17.1395 7.27939C17.3361 7.40014 17.5574 7.69662 17.5594 7.69931L20.3075 11.6436C20.3109 11.6484 20.4929 11.8994 20.5594 12.0841C20.6133 12.2334 20.6433 12.4813 20.6434 12.4825V15.0421C20.6467 15.0421 21.0208 15.0445 21.0419 15.629C21.0626 16.2093 20.4694 16.3808 20.455 16.3849H18.1678C18.1678 16.3849 18.2655 15.9229 18.2303 15.629C18.1098 14.6243 17.25 13.9543 16.2382 13.9718C15.2991 13.9882 14.4963 14.6228 14.3495 15.462C14.2868 15.8216 14.413 16.3849 14.413 16.3849H8.70593C8.74574 16.2305 8.76938 16.0692 8.76941 15.9024C8.76941 15.7509 8.75066 15.6034 8.71765 15.462H13.3007V7.09091H16.4891ZM12.7557 15.0421H8.56531C8.24889 14.4083 7.59532 13.9718 6.83875 13.9718C6.08237 13.972 5.42951 14.4084 5.11316 15.0421H3.81824V7.09091H12.7557V15.0421ZM19.2587 12.6505C19.2554 12.6505 19.1937 12.652 19.1122 12.713C19.0506 12.7592 19.0487 12.8759 19.0487 12.881V14.2657C19.0487 14.2657 19.0616 14.4113 19.1327 14.4757C19.1732 14.5123 19.2574 14.559 19.2587 14.5597H19.9091C19.9091 14.5597 19.9863 14.5362 20.035 14.4757C20.0915 14.4055 20.0975 14.2657 20.0975 14.2657V12.881C20.0964 12.8753 20.0756 12.7741 20.0145 12.713C19.961 12.6595 19.8251 12.6505 19.8251 12.6505H19.2587ZM14.6014 8.13974C14.6 8.13987 14.4458 8.15455 14.3915 8.20322C14.3342 8.255 14.329 8.39169 14.329 8.39169V10.8038C14.329 10.8038 14.3707 10.9298 14.4755 11.0138C14.5281 11.0559 14.5861 11.072 14.6307 11.0772H18.5458C18.5509 11.0754 18.7064 11.0173 18.7343 10.9298C18.7652 10.8314 18.6377 10.6876 18.6298 10.6788L17.0555 8.39169C17.0509 8.38646 16.9504 8.2722 16.8671 8.22372C16.7365 8.1478 16.4891 8.13974 16.4891 8.13974H14.6014Z" fill="#628D32"/>
<ellipse cx="6.83919" cy="15.9231" rx="1.55245" ry="1.53147" fill="#628D32"/>
</svg>
