<svg width="24" height="24" viewBox="0 0 24 24" fill="none" xmlns="http://www.w3.org/2000/svg">
<path d="M12 0C18.6274 0 24 5.37258 24 12C24 18.6274 18.6274 24 12 24C5.37258 24 0 18.6274 0 12C0 5.37258 5.37258 0 12 0ZM12 2C6.47715 2 2 6.47715 2 12C2 17.5228 6.47715 22 12 22C17.5228 22 22 17.5228 22 12C22 6.47715 17.5228 2 12 2Z" fill="#628D32"/>
<rect x="18.189" y="7" width="1.59021" height="12.9558" rx="0.795103" transform="rotate(45.3237 18.189 7)" fill="#628D32"/>
<rect x="5" y="12.125" width="1.59021" height="7.21751" rx="0.795103" transform="rotate(-44.8725 5 12.125)" fill="#628D32"/>
</svg>
