<svg width="66" height="66" viewBox="0 0 66 66" fill="none" xmlns="http://www.w3.org/2000/svg">
<path d="M33 0C51.2254 0 66 14.7746 66 33C66 51.2254 51.2254 66 33 66C14.7746 66 0 51.2254 0 33C0 14.7746 14.7746 0 33 0ZM33 1.65039C15.6859 1.65042 1.6504 15.6859 1.65039 33C1.65039 50.3141 15.6859 64.3496 33 64.3496C50.3141 64.3496 64.3496 50.3141 64.3496 33C64.3496 15.6859 50.3141 1.65039 33 1.65039Z" fill="#628D32"/>
<ellipse cx="44.7692" cy="43.7885" rx="4.26923" ry="4.21154" fill="#628D32"/>
<path d="M13.6406 42.5195C13.5498 42.9086 13.5 43.3137 13.5 43.7305C13.5 44.1886 13.5579 44.6335 13.667 45.0576H10.5V42.5195H13.6406ZM45.3457 19.5C45.3457 19.5 46.5151 19.6388 47.1348 20.0195C47.6714 20.3494 48.2743 21.1544 48.2881 21.1729L55.8457 32.0195C55.8457 32.0195 56.3531 32.7179 56.5381 33.2305C56.6865 33.642 56.7695 34.3271 56.7695 34.3271V41.3652C56.7896 41.3654 57.808 41.3813 57.8652 42.9805C57.9228 44.5924 56.257 45.0557 56.25 45.0576H49.9619C49.9653 45.0418 50.231 43.7835 50.1348 42.9805C49.8036 40.2168 47.4373 38.3745 44.6543 38.4229C42.072 38.4679 39.8658 40.2118 39.4619 42.5195C39.2895 43.5054 39.6327 45.0485 39.6348 45.0576H23.9482C24.0574 44.6335 24.1152 44.1886 24.1152 43.7305C24.1152 43.3137 24.0655 42.9086 23.9746 42.5195H36.5771V19.5H45.3457ZM35.0771 41.3652H23.5586C22.6887 39.6215 20.8887 38.4229 18.8076 38.4229C16.7265 38.4229 14.9265 39.6215 14.0566 41.3652H10.5V19.5H35.0771V41.3652ZM52.9619 34.7881C52.9619 34.7881 52.7884 34.7888 52.5576 34.9619C52.3874 35.0898 52.3848 35.4129 52.3848 35.4229V39.2305C52.3848 39.2305 52.4197 39.6307 52.6152 39.8076C52.7273 39.909 52.9619 40.0381 52.9619 40.0381H54.75C54.7549 40.0366 54.9633 39.972 55.0957 39.8076C55.2511 39.6146 55.2695 39.2305 55.2695 39.2305V35.4229C55.2679 35.4149 55.2087 35.1326 55.0381 34.9619C54.8932 34.817 54.5304 34.7889 54.5195 34.7881H52.9619ZM40.1543 22.3848C40.1543 22.3848 39.7274 22.4233 39.5771 22.5576C39.4188 22.6994 39.4043 23.0771 39.4043 23.0771V29.7119C39.4091 29.726 39.5254 30.0622 39.8076 30.2881C40.0953 30.5182 40.4406 30.4622 40.4424 30.4619H51C51 30.4619 51.4418 30.3025 51.5195 30.0576C51.608 29.7785 51.2305 29.3652 51.2305 29.3652L46.9043 23.0771C46.9043 23.0771 46.6192 22.7517 46.3848 22.6152C46.0257 22.4063 45.3457 22.3848 45.3457 22.3848H40.1543Z" fill="#628D32"/>
<ellipse cx="18.8076" cy="43.7885" rx="4.26923" ry="4.21154" fill="#628D32"/>
</svg>
