<svg width="32" height="32" viewBox="0 0 32 32" fill="none" xmlns="http://www.w3.org/2000/svg">
<path d="M16 0C24.8366 0 32 7.16344 32 16C32 24.8366 24.8366 32 16 32C7.16344 32 0 24.8366 0 16C0 7.16344 7.16344 0 16 0ZM16 0.799805C7.6053 0.799836 0.799805 7.60529 0.799805 16C0.799813 24.3947 7.6053 31.2002 16 31.2002C24.3947 31.2002 31.2002 24.3947 31.2002 16C31.2002 7.60527 24.3947 0.799805 16 0.799805Z" fill="#628D32"/>
<path d="M18.3513 3.87878C19.6355 3.87878 20.6774 4.9198 20.6775 6.20398V7.59949H11.531V6.20398C11.531 4.91983 12.572 3.87882 13.8562 3.87878H18.3513ZM13.8562 4.80847C13.0857 4.8085 12.4607 5.4335 12.4607 6.20398V6.97937H19.7468V6.20398C19.7468 5.43348 19.1218 4.80847 18.3513 4.80847H13.8562Z" fill="#628D32"/>
<path d="M24.3977 23.5665C24.3975 25.2786 23.0093 26.6661 21.2971 26.6661H10.7561C9.04395 26.6661 7.65573 25.2786 7.65552 23.5665V11.4747H24.3977V23.5665ZM11.9963 13.7999C11.6539 13.7999 11.3763 14.0776 11.3762 14.42V23.5665C11.3764 23.9088 11.654 24.1866 11.9963 24.1866C12.3385 24.1864 12.6163 23.9086 12.6165 23.5665V14.42C12.6164 14.0777 12.3386 13.8001 11.9963 13.7999ZM16.0266 13.7999C15.6842 13.7999 15.4065 14.0776 15.4065 14.42V23.5665C15.4067 23.9088 15.6843 24.1866 16.0266 24.1866C16.3689 24.1865 16.6465 23.9087 16.6467 23.5665V14.42C16.6467 14.0776 16.369 13.7999 16.0266 13.7999ZM20.0569 13.7999C19.7145 13.7999 19.4368 14.0776 19.4368 14.42V23.5665C19.437 23.9087 19.7146 24.1865 20.0569 24.1866C20.3992 24.1866 20.6768 23.9088 20.677 23.5665V14.42C20.677 14.0776 20.3993 13.7999 20.0569 13.7999Z" fill="#628D32"/>
<path d="M24.3972 6.97919C25.5102 6.97919 26.4128 7.88183 26.4128 8.99481V9.45966C26.4127 10.5726 25.5101 11.4743 24.3972 11.4743H23.157C23.3282 11.4743 23.4675 11.3359 23.4675 11.1647C23.4675 10.9935 23.3282 10.8542 23.157 10.8542H8.89526C8.72423 10.8544 8.58569 10.9936 8.58569 11.1647C8.58575 11.3358 8.72426 11.4741 8.89526 11.4743H7.65601C6.54308 11.4743 5.64048 10.5726 5.64038 9.45966V8.99481C5.64038 7.88183 6.54302 6.97919 7.65601 6.97919H24.3972Z" fill="#628D32"/>
</svg>
