<svg width="32" height="32" viewBox="0 0 32 32" fill="none" xmlns="http://www.w3.org/2000/svg">
<path d="M16 0C24.8366 0 32 7.16344 32 16C32 24.8366 24.8366 32 16 32C7.16344 32 0 24.8366 0 16C0 7.16344 7.16344 0 16 0ZM16 0.799805C7.60528 0.799811 0.799811 7.60528 0.799805 16C0.799805 24.3947 7.60528 31.2002 16 31.2002C24.3947 31.2002 31.2002 24.3947 31.2002 16C31.2002 7.60528 24.3947 0.799805 16 0.799805Z" fill="#628D32"/>
<path d="M24.2095 25.5817H7.79053V12.2692H24.2095V25.5817ZM12.0806 21.4401H15.4829V18.6295H12.0806V21.4401ZM16.5181 18.6295V21.4401H19.9204V18.6295H16.5181ZM12.0806 17.5944H15.4819V14.7838H12.0806V17.5944ZM16.5181 17.5944H19.9204V14.7838H16.5181V17.5944Z" fill="#628D32"/>
<path d="M16.0001 3.39395L27.3371 14.7098H4.66303L16.0001 3.39395Z" fill="#628D32"/>
<rect x="20.5117" y="6.20447" width="2.81048" height="4.73344" fill="#628D32"/>
</svg>
