<svg width="44" height="44" viewBox="0 0 44 44" fill="none" xmlns="http://www.w3.org/2000/svg">
<path d="M22 0C34.1503 0 44 9.84974 44 22C44 34.1503 34.1503 44 22 44C9.84974 44 0 34.1503 0 22C0 9.84974 9.84974 0 22 0ZM22 1.09961C10.4573 1.09963 1.09961 10.4573 1.09961 22C1.09961 33.5427 10.4573 42.9004 22 42.9004C33.5428 42.9004 42.9004 33.5428 42.9004 22C42.9004 10.4573 33.5427 1.09961 22 1.09961Z" fill="#628D32"/>
<ellipse cx="29.8462" cy="29.1923" rx="2.84615" ry="2.80769" fill="#628D32"/>
<path d="M9.09375 28.3457C9.03308 28.6053 9 28.8762 9 29.1543C9.00004 29.4595 9.03866 29.7556 9.11133 30.0381H7V28.3457H9.09375ZM30.2305 13C30.2305 13 31.0096 13.0921 31.4229 13.3457C31.7826 13.5667 32.1875 14.1087 32.1924 14.1152L37.2305 21.3457C37.2305 21.3457 37.5691 21.8126 37.6924 22.1543C37.7912 22.4287 37.8457 22.8848 37.8457 22.8848V27.5771C37.8457 27.5771 38.5387 27.5774 38.5771 28.6543C38.6151 29.725 37.512 30.0347 37.5 30.0381H33.3076C33.3117 30.0187 33.4865 29.1868 33.4229 28.6543C33.2022 26.8117 31.6249 25.583 29.7695 25.6152C28.0481 25.6453 26.577 26.8075 26.3076 28.3457C26.1936 28.9973 26.4177 30.0148 26.4229 30.0381H15.9658C16.0385 29.7556 16.0771 29.4594 16.0771 29.1543C16.0771 28.8762 16.0441 28.6053 15.9834 28.3457H24.3848V13H30.2305ZM23.3848 27.5771H15.7061C15.1262 26.4145 13.9256 25.6152 12.5381 25.6152C11.1506 25.6154 9.94986 26.4144 9.37012 27.5771H7V13H23.3848V27.5771ZM35.3076 23.1924C35.304 23.1924 35.1894 23.1941 35.0381 23.3076C34.9247 23.3929 34.9229 23.6086 34.9229 23.6152V26.1543C34.9239 26.1661 34.9498 26.4229 35.0771 26.5381C35.1512 26.605 35.3048 26.6908 35.3076 26.6924H36.5C36.5 26.6924 36.6411 26.6491 36.7305 26.5381C36.8314 26.4125 36.8451 26.1665 36.8457 26.1543V23.6152C36.8441 23.6076 36.8054 23.4206 36.6924 23.3076C36.5943 23.2096 36.3457 23.1924 36.3457 23.1924H35.3076ZM26.7695 14.9229C26.7695 14.9229 26.4851 14.9486 26.3848 15.0381C26.2792 15.1326 26.2695 15.3848 26.2695 15.3848V19.8076C26.2702 19.8096 26.3468 20.0392 26.5381 20.1924C26.6343 20.2693 26.7405 20.298 26.8223 20.3076H34C34.0022 20.3068 34.2941 20.2007 34.3457 20.0381C34.4033 19.8558 34.1641 19.5879 34.1543 19.5771L31.2695 15.3848C31.2695 15.3848 31.0792 15.1681 30.9229 15.0771C30.6835 14.9379 30.2305 14.9229 30.2305 14.9229H26.7695Z" fill="#628D32"/>
<ellipse cx="12.5385" cy="29.1923" rx="2.84615" ry="2.80769" fill="#628D32"/>
</svg>
