<svg width="24" height="24" viewBox="0 0 24 24" fill="none" xmlns="http://www.w3.org/2000/svg">
<path d="M12 0C18.6274 0 24 5.37258 24 12C24 18.6274 18.6274 24 12 24C5.37258 24 0 18.6274 0 12C0 5.37258 5.37258 0 12 0ZM12 0.599609C5.70396 0.599615 0.599615 5.70396 0.599609 12C0.599609 18.296 5.70396 23.4004 12 23.4004C18.296 23.4004 23.4004 18.296 23.4004 12C23.4004 5.70396 18.296 0.599609 12 0.599609Z" fill="#628D32"/>
<path fill-rule="evenodd" clip-rule="evenodd" d="M20.3844 17.9535L13.2281 19.8021C13.2386 19.7118 13.2467 19.6199 13.2467 19.5267C13.2466 19.1374 13.15 18.7713 12.983 18.4476L20.0192 16.6605L20.3844 17.9535ZM6.92444 5.11169C6.94306 5.10843 7.71534 4.9771 8.04846 5.42126C8.30981 5.77266 10.0955 13.6188 10.8942 17.1664C10.8916 17.1664 10.889 17.1664 10.8864 17.1664C10.4739 17.1664 10.086 17.2725 9.74866 17.4584C8.87616 13.2592 7.37156 6.24888 7.03674 6.20739C6.55904 6.15119 3.88928 6.91051 3.88928 6.91051L3.63635 5.87048L6.92444 5.11169Z" fill="#628D32"/>
<path d="M10.8304 17.7849C11.8235 17.7851 12.6283 18.5906 12.6283 19.5837C12.6281 20.5766 11.8233 21.3813 10.8304 21.3815C9.83735 21.3815 9.03186 20.5767 9.03162 19.5837C9.03162 18.5905 9.8372 17.7849 10.8304 17.7849ZM10.8304 18.4597C10.2097 18.4597 9.70642 18.9629 9.70642 19.5837C9.70664 20.2043 10.2098 20.7077 10.8304 20.7077C11.4509 20.7075 11.9542 20.2041 11.9545 19.5837C11.9545 18.9631 11.451 18.4599 10.8304 18.4597Z" fill="#628D32"/>
<path fill-rule="evenodd" clip-rule="evenodd" d="M20.3265 15.4731C20.3716 15.6525 20.2627 15.8345 20.0833 15.8796L12.6526 17.7462C12.5412 17.7742 12.4243 17.7417 12.3351 17.6693C12.2189 17.5749 12.0934 17.4916 11.96 17.4211C11.8686 17.3727 11.7977 17.2911 11.7725 17.1907L10.5181 12.197C10.473 12.0176 10.5819 11.8357 10.7613 11.7906L18.5628 9.82982C18.7422 9.78473 18.9242 9.89362 18.9693 10.073L20.3265 15.4731Z" fill="#628D32"/>
</svg>
