<svg width="32" height="24" viewBox="0 0 32 24" fill="none" xmlns="http://www.w3.org/2000/svg">
<path d="M4.00151 6.18872C3.95545 4.83524 4.96862 0.99626 6.64955 0.405649C8.33048 -0.184963 9.71207 -0.160354 10.0805 0.676346C10.4489 1.51305 11.9687 5.32742 12.1299 6.18872C12.291 7.05003 11.8075 7.44378 11.3009 8.20665C10.7943 8.96952 10.2877 9.04335 10.0805 9.75701C9.87326 10.4707 11.3009 12.5132 13.166 14.5803C15.0312 16.6475 18.37 18.2963 19.0608 18.2963C19.7516 18.2963 21.2483 15.3678 21.87 14.9741C22.4918 14.5803 27.5115 17.1889 27.8569 18.001C28.2023 18.8131 27.8569 20.3142 27.5115 21.1263C27.1661 21.9384 25.278 23.784 23.3207 23.9809C21.3635 24.1778 14.3864 22.9227 9.36667 16.8936C4.3469 10.8644 4.04756 7.54221 4.00151 6.18872Z" fill="white"/>
</svg>
