<svg width="32" height="32" viewBox="0 0 32 32" fill="none" xmlns="http://www.w3.org/2000/svg">
<path d="M16 0C24.8366 0 32 7.16344 32 16C32 24.8366 24.8366 32 16 32C7.16344 32 0 24.8366 0 16C0 7.16344 7.16344 0 16 0ZM16 0.799805C7.60529 0.799819 0.799807 7.60528 0.799805 16C0.799805 24.3947 7.60528 31.2002 16 31.2002C24.3947 31.2002 31.2002 24.3947 31.2002 16C31.2002 7.60527 24.3947 0.799805 16 0.799805Z" fill="#628D32"/>
<ellipse cx="21.7062" cy="21.2308" rx="2.06993" ry="2.04196" fill="#628D32"/>
<path d="M6.61523 20.6157C6.57116 20.8044 6.54494 21.0005 6.54492 21.2026C6.54492 21.425 6.57682 21.6403 6.62988 21.8461H5.09082V20.6157H6.61523ZM21.9863 9.45454C22.0033 9.45659 22.5577 9.52474 22.8535 9.7065C23.1167 9.8684 23.4121 10.2661 23.4121 10.2661L27.0771 15.5249C27.0866 15.5379 27.3242 15.8682 27.4121 16.1118C27.4828 16.3077 27.523 16.6313 27.5244 16.643V20.0561C27.5287 20.0561 28.0278 20.0595 28.0557 20.8393C28.0835 21.6224 27.2725 21.8461 27.2725 21.8461H24.2236C24.2236 21.8461 24.3545 21.2311 24.3076 20.8393C24.1471 19.4992 22.9998 18.6059 21.6504 18.6293C20.3983 18.6512 19.3286 19.4968 19.1328 20.6157C19.049 21.0951 19.2168 21.8461 19.2168 21.8461H11.6074C11.6605 21.6402 11.6924 21.4251 11.6924 21.2026C11.6924 21.0004 11.6662 20.8044 11.6221 20.6157H17.7344V9.45454H21.9863ZM17.0068 20.0561H11.4209C10.9991 19.211 10.1279 18.6295 9.11914 18.6293C8.11037 18.6293 7.23927 19.211 6.81738 20.0561H5.09082V9.45454H17.0068V20.0561ZM25.6787 16.8667C25.6787 16.8667 25.5942 16.8669 25.4824 16.9506C25.3985 17.0136 25.3984 17.1752 25.3984 17.1752V19.021C25.3984 19.021 25.4159 19.2145 25.5107 19.3002C25.5651 19.3494 25.6787 19.4126 25.6787 19.4126H26.5449C26.5449 19.4126 26.6479 19.381 26.7129 19.3002C26.7881 19.2066 26.7969 19.021 26.7969 19.021V17.1752C26.7969 17.1752 26.7695 17.0346 26.6855 16.9506C26.615 16.8802 26.4376 16.8669 26.4336 16.8667H25.6787ZM19.4688 10.853C19.4688 10.853 19.2613 10.8718 19.1885 10.937C19.1118 11.0058 19.1045 11.1889 19.1045 11.1889V14.4057C19.105 14.4071 19.1616 14.5736 19.3008 14.685C19.3707 14.7409 19.4474 14.762 19.5068 14.769H24.7275C24.7375 14.7653 24.9414 14.6893 24.9785 14.5737C25.0215 14.4383 24.8389 14.2377 24.8389 14.2377L22.7412 11.1889C22.7412 11.1889 22.6029 11.0315 22.4893 10.9653C22.3186 10.866 21.999 10.8534 21.9863 10.853H19.4688Z" fill="#628D32"/>
<ellipse cx="9.11876" cy="21.2308" rx="2.06993" ry="2.04196" fill="#628D32"/>
</svg>
