<svg preserveAspectRatio="none" width="100%" height="100%" overflow="visible" style="display: block;" viewBox="0 0 66 66" fill="none" xmlns="http://www.w3.org/2000/svg">
<g id="Icon/Entr&#195;&#188;mpelung/66">
<path id="Subtract" d="M33 0C51.2254 0 66 14.7746 66 33C66 51.2254 51.2254 66 33 66C14.7746 66 0 51.2254 0 33C0 14.7746 14.7746 0 33 0ZM33 1.65039C15.6859 1.65042 1.6504 15.6859 1.65039 33C1.65039 50.3141 15.6859 64.3496 33 64.3496C50.3141 64.3496 64.3496 50.3141 64.3496 33C64.3496 15.6859 50.3141 1.65039 33 1.65039Z" fill="var(--fill-0, #628D32)"/>
<g id="Group 11">
<path id="Subtract_2" d="M56.0557 49.372L36.3828 54.4559C36.4116 54.2078 36.4277 53.955 36.4277 53.6991C36.4277 52.6289 36.1668 51.6203 35.708 50.7304L55.0518 45.8173L56.0557 49.372ZM19.041 14.0575C19.041 14.0575 21.2045 13.6717 22.1318 14.9081C22.8487 15.8647 27.7642 37.4514 29.9609 47.2089C29.953 47.2088 29.9445 47.2089 29.9365 47.2089C28.802 47.209 27.7356 47.5 26.8076 48.0116C24.4081 36.4632 20.271 17.1829 19.3506 17.0712C18.0369 16.9166 10.6953 19.0028 10.6953 19.0028L10 16.1444L19.041 14.0575Z" fill="var(--fill-0, #628D32)"/>
<path id="Subtract_3" d="M29.7822 48.9086C32.5135 48.9086 34.7284 51.1227 34.7285 53.8539C34.7285 56.5853 32.5136 58.8002 29.7822 58.8002C27.051 58.8 24.8369 56.5852 24.8369 53.8539C24.8371 51.1228 27.0511 48.9088 29.7822 48.9086ZM29.7822 50.7631C28.0753 50.7632 26.6916 52.147 26.6914 53.8539C26.6914 55.5609 28.0752 56.9446 29.7822 56.9447C31.4894 56.9447 32.8731 55.561 32.8731 53.8539C32.8729 52.1469 31.4893 50.7631 29.7822 50.7631Z" fill="var(--fill-0, #628D32)"/>
<path id="Subtract_4" d="M55.8968 42.5523C56.0208 43.0457 55.7214 43.5462 55.228 43.6701L34.8005 48.8042C34.4938 48.8813 34.1721 48.7918 33.9267 48.5924C33.606 48.3318 33.2594 48.102 32.8913 47.9074C32.6398 47.7745 32.445 47.5499 32.3757 47.2741L28.9249 33.5421C28.8009 33.0487 29.1004 32.5482 29.5937 32.4243L51.0473 27.0325C51.5407 26.9085 52.0411 27.2079 52.1651 27.7013L55.8968 42.5523Z" fill="var(--fill-0, #628D32)"/>
</g>
</g>
</svg>
