<svg width="44" height="44" viewBox="0 0 44 44" fill="none" xmlns="http://www.w3.org/2000/svg">
<path d="M22 0C34.1503 0 44 9.84974 44 22C44 34.1503 34.1503 44 22 44C9.84974 44 0 34.1503 0 22C0 9.84974 9.84974 0 22 0ZM22 1.09961C10.4573 1.09962 1.09962 10.4573 1.09961 22C1.09961 33.5427 10.4573 42.9004 22 42.9004C33.5428 42.9004 42.9004 33.5428 42.9004 22C42.9004 10.4573 33.5427 1.09961 22 1.09961Z" fill="#628D32"/>
<path d="M25.1606 5.33331C26.9664 5.33331 28.4309 6.7971 28.4312 8.60284V10.4485H15.855V8.60284C15.8552 6.79722 17.3189 5.33352 19.1245 5.33331H25.1606ZM19.0962 6.61261C18.0126 6.61261 17.1343 7.49097 17.1343 8.57452V9.59601H27.1519V8.57452C27.1519 7.49098 26.2735 6.61262 25.1899 6.61261H19.0962Z" fill="#628D32"/>
<path d="M33.5469 32.306C33.5469 34.7139 31.5944 36.6664 29.1865 36.6664H14.8867C12.4788 36.6664 10.5264 34.7139 10.5264 32.306V15.7777H33.5469V32.306ZM16.4941 18.975C16.0235 18.9752 15.6416 19.3568 15.6416 19.8275V32.4037C15.6418 32.8743 16.0236 33.256 16.4941 33.2562C16.9649 33.2562 17.3465 32.8744 17.3467 32.4037V19.8275C17.3467 19.3566 16.965 18.975 16.4941 18.975ZM22.0361 18.975C21.5654 18.9751 21.1836 19.3568 21.1836 19.8275V32.4037C21.1838 32.8743 21.5655 33.2561 22.0361 33.2562C22.5069 33.2562 22.8885 32.8744 22.8887 32.4037V19.8275C22.8887 19.3566 22.507 18.975 22.0361 18.975ZM27.5781 18.975C27.1074 18.9751 26.7256 19.3567 26.7256 19.8275V32.4037C26.7258 32.8743 27.1075 33.2561 27.5781 33.2562C28.0489 33.2562 28.4305 32.8744 28.4307 32.4037V19.8275C28.4307 19.3566 28.049 18.975 27.5781 18.975Z" fill="#628D32"/>
<path d="M33.4839 9.59637C35.0489 9.59657 36.3179 10.8653 36.3179 12.4304V12.944C36.3177 14.5089 35.0488 15.7778 33.4839 15.778H31.8413C32.0767 15.778 32.2671 15.5867 32.2671 15.3513C32.267 15.1159 32.0767 14.9255 31.8413 14.9255H12.2319C11.9965 14.9255 11.8052 15.1159 11.8052 15.3513C11.8052 15.5867 11.9965 15.778 12.2319 15.778H10.5894C9.0243 15.778 7.7555 14.5091 7.75537 12.944V12.4304C7.75537 10.8652 9.02422 9.59637 10.5894 9.59637H33.4839Z" fill="#628D32"/>
</svg>
