<svg width="16" height="19" viewBox="0 0 16 19" fill="none" xmlns="http://www.w3.org/2000/svg">
<path d="M0 16.4513C0 16.2021 0.202057 16 0.451306 16H15.5487C15.7979 16 16 16.2021 16 16.4513V18.5487C16 18.7979 15.7979 19 15.5487 19H0.451306C0.202057 19 0 18.7979 0 18.5487V16.4513Z" fill="#223344"/>
<path d="M0 8.45131C0 8.20206 0.202057 8 0.451306 8H15.5487C15.7979 8 16 8.20206 16 8.45131V10.5487C16 10.7979 15.7979 11 15.5487 11H0.451306C0.202057 11 0 10.7979 0 10.5487V8.45131Z" fill="#223344"/>
<path d="M0 0.451306C0 0.202057 0.202057 0 0.451306 0H15.5487C15.7979 0 16 0.202057 16 0.451306V2.54869C16 2.79794 15.7979 3 15.5487 3H8H0.451306C0.202057 3 0 2.79794 0 2.54869V0.451306Z" fill="#223344"/>
</svg>
