<svg width="44" height="44" viewBox="0 0 44 44" fill="none" xmlns="http://www.w3.org/2000/svg">
<path d="M22 0C34.1503 0 44 9.84974 44 22C44 34.1503 34.1503 44 22 44C9.84974 44 0 34.1503 0 22C0 9.84974 9.84974 0 22 0ZM22 1.09961C10.4573 1.09962 1.09962 10.4573 1.09961 22C1.09961 33.5427 10.4573 42.9004 22 42.9004C33.5428 42.9004 42.9004 33.5428 42.9004 22C42.9004 10.4573 33.5427 1.09961 22 1.09961Z" fill="#628D32"/>
<path d="M33.2881 35.1747H10.7119V16.8701H33.2881V35.1747ZM16.6104 29.4804H21.2881V25.6161H16.6104V29.4804ZM22.7119 25.6161V29.4804H27.3896V25.6161H22.7119ZM16.6104 24.1923H21.2881V20.3281H16.6104V24.1923ZM22.7119 24.1923H27.3896V20.3281H22.7119V24.1923Z" fill="#628D32"/>
<path d="M22 4.66666L37.5885 20.226H6.41154L22 4.66666Z" fill="#628D32"/>
<rect x="28.2036" y="8.53107" width="3.86441" height="6.50847" fill="#628D32"/>
</svg>
