<svg width="261" height="62" viewBox="0 0 261 62" fill="none" xmlns="http://www.w3.org/2000/svg">
<path d="M246.178 40.0645V19.1478H237.814V14.0001H260.896V19.1478H252.532V40.0645H246.178Z" fill="#223344"/>
<path d="M222.724 40.0645C220.578 40.0645 218.522 39.8005 216.554 39.2725C214.587 38.7205 213.003 38.0125 211.802 37.1485L213.91 32.7564C215.06 33.5244 216.414 34.1604 217.972 34.6644C219.556 35.1444 221.153 35.3845 222.763 35.3845C223.989 35.3845 224.973 35.2765 225.714 35.0604C226.48 34.8204 227.042 34.4964 227.4 34.0884C227.758 33.6804 227.936 33.2124 227.936 32.6844C227.936 32.0124 227.655 31.4844 227.093 31.1004C226.531 30.6924 225.79 30.3684 224.871 30.1284C223.951 29.8644 222.929 29.6244 221.805 29.4083C220.706 29.1683 219.595 28.8803 218.471 28.5443C217.372 28.2083 216.363 27.7763 215.443 27.2483C214.523 26.7203 213.77 26.0243 213.182 25.1603C212.62 24.2963 212.339 23.1922 212.339 21.8482C212.339 20.4082 212.748 19.1002 213.565 17.9241C214.408 16.7241 215.66 15.7761 217.321 15.0801C219.007 14.3601 221.115 14.0001 223.644 14.0001C225.33 14.0001 226.991 14.1921 228.626 14.5761C230.261 14.9361 231.705 15.4881 232.957 16.2321L231.041 20.6602C229.789 19.9882 228.537 19.4962 227.285 19.1842C226.033 18.8482 224.807 18.6802 223.606 18.6802C222.405 18.6802 221.421 18.8122 220.655 19.0762C219.889 19.3402 219.339 19.6882 219.007 20.1202C218.675 20.5282 218.509 21.0082 218.509 21.5602C218.509 22.2082 218.79 22.7362 219.352 23.1442C219.914 23.5282 220.655 23.8402 221.575 24.0803C222.495 24.3203 223.504 24.5603 224.602 24.8003C225.726 25.0403 226.838 25.3163 227.936 25.6283C229.06 25.9403 230.082 26.3603 231.002 26.8883C231.922 27.4163 232.663 28.1123 233.225 28.9763C233.813 29.8404 234.106 30.9324 234.106 32.2524C234.106 33.6684 233.685 34.9644 232.842 36.1405C231.999 37.3165 230.734 38.2645 229.048 38.9845C227.387 39.7045 225.279 40.0645 222.724 40.0645Z" fill="#223344"/>
<path d="M183.611 40.0645V14.0001H196.46C199.766 14.0001 202.246 14.6207 203.899 15.8618C205.577 17.103 206.416 18.7413 206.416 20.7768C206.416 22.1421 206.078 23.3336 205.401 24.3514C204.725 25.3443 203.799 26.1138 202.621 26.66C201.444 27.2061 200.092 27.4791 198.564 27.4791L199.278 25.9525C200.931 25.9525 202.396 26.2255 203.673 26.7717C204.951 27.2929 205.94 28.0749 206.641 29.1175C207.368 30.16 207.731 31.4384 207.731 32.9527C207.731 35.1868 206.842 36.9368 205.063 38.2028C203.285 39.4439 200.668 40.0645 197.211 40.0645H183.611ZM190.03 35.5219H196.761C198.338 35.5219 199.528 35.2736 200.33 34.7772C201.156 34.2559 201.569 33.4367 201.569 32.3197C201.569 31.2274 201.156 30.4207 200.33 29.8994C199.528 29.3533 198.338 29.0802 196.761 29.0802H189.209V24.6865H195.709C197.186 24.6865 198.313 24.4383 199.09 23.9418C199.891 23.4205 200.292 22.6386 200.292 21.596C200.292 20.5783 199.891 19.8211 199.09 19.3247C198.313 18.8034 197.186 18.5427 195.709 18.5427H190.03V35.5219Z" fill="#223344"/>
<path d="M154.823 40.0645V14.0001H166.205C169.91 14.0001 172.79 14.8441 174.846 16.5321C176.902 18.1952 177.929 20.5038 177.929 23.4578C177.929 25.394 177.46 27.0695 176.521 28.4845C175.582 29.8746 174.25 30.942 172.524 31.6867C170.798 32.4314 168.743 32.8037 166.357 32.8037H158.249L161.307 30.2252V40.0645H154.823ZM171.422 40.0645L164.808 30.6069H171.687L178.424 40.0645H171.422ZM161.307 30.8768L158.249 27.6839H166.205C168.108 27.6839 169.056 27.3705 169.995 26.5762C170.934 25.757 171.162 24.8727 171.162 23.4578C171.162 22.018 170.934 21.0499 169.995 20.2555C169.056 19.4612 168.108 19.3433 166.205 19.3433H158.249L161.307 16.0852V30.8768Z" fill="#223344"/>
<path d="M129.019 40.0645V14.0001H149.142V19.1478H135.373V34.982H149.637V40.0645H129.019ZM134.687 29.4433V24.2955H147.822V29.4433H134.687Z" fill="#223344"/>
<path d="M116.609 40.0645V14.0001H122.924V40.0645H116.609ZM110.086 30.0297L116.609 24.6865H117.077V30.0297H110.086Z" fill="#223344"/>
<path d="M98 40.0645V14H104.296V40.0645H98ZM103.83 29.9499V24.6333H115.532L108.919 29.9499H103.83Z" fill="#628D32"/>
<path d="M226.619 47.3911C226.876 47.5885 227.068 47.7801 227.261 47.9746L228.225 46.9372C227.839 46.5482 227.582 46.3537 227.39 46.224C227.197 46.0943 226.876 45.8998 226.362 45.7701C225.937 45.636 225.527 45.6405 225.032 45.6405C224.257 45.6405 223.562 45.8151 222.948 46.1643C222.335 46.5136 221.85 47.0179 221.494 47.6773C221.138 48.3339 220.96 49.1246 220.96 50.0494C220.96 50.9714 221.137 51.7621 221.49 52.4215C221.843 53.0809 222.326 53.5852 222.94 53.9344C223.553 54.2837 224.251 54.4583 225.032 54.4583C225.562 54.4583 226.056 54.4147 226.49 54.2638C226.925 54.1101 227.322 53.8864 227.647 53.6154C227.999 53.3117 228.268 53.0627 228.481 52.7232L227.39 51.8648C227.262 52.0604 226.679 52.5088 226.49 52.6429C226.305 52.777 226.035 52.8923 225.8 52.9621C225.569 53.0292 225.32 53.0627 225.054 53.0627C224.573 53.0627 224.147 52.9495 223.773 52.7232C223.403 52.4941 223.111 52.1561 222.896 51.709C222.685 51.2592 222.579 50.706 222.579 50.0494C222.579 49.404 222.685 48.8577 222.896 48.4107C223.108 47.9609 223.4 47.62 223.773 47.3881C224.147 47.1534 224.787 47.002 225.27 47.002C226.041 47.002 226.434 47.2514 226.619 47.3911Z" fill="#628D32"/>
<path d="M216.101 45.6405V54.4583H214.675V45.6405H216.101Z" fill="#628D32"/>
<path d="M203.525 45.6405L205.852 52.5811H205.943L208.266 45.6405H210.047L206.895 54.4583H204.896L201.748 45.6405H203.525Z" fill="#628D32"/>
<path d="M190.457 54.4583V45.6405H194.148C194.904 45.6405 195.539 45.7582 196.051 45.9935C196.567 46.2289 196.957 46.559 197.219 46.9838C197.485 47.4058 197.618 47.898 197.618 48.4606C197.618 49.0261 197.484 49.5169 197.214 49.9331C196.948 50.3465 196.556 50.6665 196.037 50.8933C195.518 51.1172 194.88 51.2291 194.124 51.2291H191.496V49.903H193.884C194.326 49.903 194.688 49.8485 194.97 49.7394C195.252 49.6274 195.46 49.4653 195.595 49.2529C195.733 49.0376 195.802 48.7735 195.802 48.4606C195.802 48.1478 195.733 47.8808 195.595 47.6598C195.457 47.4359 195.247 47.2665 194.965 47.1517C194.683 47.034 194.32 46.9752 193.874 46.9752H192.24V54.4583H190.457ZM195.542 50.4627L197.979 54.4583H195.989L193.596 50.4627H195.542Z" fill="#628D32"/>
<path d="M179.143 54.4583V45.6405H185.238V46.9795H180.813V49.2187H184.66V50.5606H180.813V52.9887H185.238V54.4583H179.143Z" fill="#628D32"/>
<path d="M158.348 47.101C158.587 47.0034 159.347 46.8416 160.105 46.9823C160.739 47.1002 161.26 47.3018 161.517 47.5574L162.33 46.535C162.03 46.2794 161.388 45.8961 160.747 45.7683C160.161 45.6516 159.86 45.6405 159.231 45.6405C158.61 45.6405 158.055 45.7465 157.564 45.9585C157.074 46.1678 156.686 46.4621 156.4 46.8416C156.117 47.221 155.976 47.6632 155.976 48.1682C155.976 48.782 156.186 49.2745 156.608 49.6455C157.032 50.0138 157.609 50.2886 158.339 50.47L159.347 50.7211C159.665 50.7992 159.942 50.8885 160.178 50.9889C160.418 51.0866 160.604 51.2093 160.737 51.3572C160.869 51.5023 160.937 51.6864 160.94 51.9096C160.937 52.1551 160.861 52.37 160.711 52.5541C160.561 52.7355 160.353 52.8778 160.088 52.981C159.825 53.0814 159.519 53.1316 159.17 53.1316C158.835 53.1316 158.532 53.0828 158.261 52.9852C157.993 52.8875 157.858 52.8609 157.537 52.6692C157.216 52.4775 157.216 52.4775 156.895 52.158L155.933 53.1316C156.189 53.4359 156.189 53.4359 156.51 53.6915C156.895 53.9471 156.882 53.9421 157.387 54.1486C157.895 54.3551 158.493 54.4583 159.183 54.4583C159.893 54.4583 160.497 54.3523 160.996 54.1402C161.499 53.9254 161.882 53.6283 162.148 53.2488C162.413 52.8666 162.546 52.4244 162.546 51.9222C162.546 51.5511 162.474 51.2275 162.33 50.9513C162.185 50.675 161.989 50.4393 161.741 50.244C161.496 50.0487 161.217 49.8869 160.906 49.7585C160.597 49.6302 160.275 49.5284 159.94 49.453L159.109 49.2521C158.928 49.2103 158.747 49.1587 158.568 49.0973C158.389 49.0359 158.226 48.9606 158.079 48.8713C157.932 48.7792 157.815 48.6676 157.729 48.5365C157.645 48.4054 157.603 48.2505 157.603 48.072C157.606 47.8571 157.671 47.666 157.798 47.4986C157.925 47.3312 158.108 47.1987 158.348 47.101Z" fill="#628D32"/>
<path d="M149.228 45.6405H150.907V51.3154C150.907 51.9375 150.75 52.4846 150.437 52.9569C150.126 53.4291 149.688 53.7981 149.124 54.0639C148.56 54.3268 147.901 54.4583 147.147 54.4583C146.389 54.4583 145.729 54.3268 145.165 54.0639C144.6 53.7981 144.163 53.4291 143.852 52.9569C143.541 52.4846 143.386 51.9375 143.386 51.3154V45.6405H145.065V51.184C145.065 51.5459 145.149 51.8682 145.318 52.151C145.49 52.4337 145.732 52.6557 146.042 52.8169C146.353 52.9752 146.721 53.0544 147.147 53.0544C147.572 53.0544 147.94 52.9752 148.251 52.8169C148.565 52.6557 148.806 52.4337 148.975 52.151C149.144 51.8682 149.228 51.5459 149.228 51.184V45.6405Z" fill="#628D32"/>
<path d="M132.544 54.4583H130.816L133.963 45.6405H135.963L139.115 54.4583H137.386L134.998 47.4488H134.928L132.544 54.4583ZM132.601 51.0009H137.316V52.284H132.601V51.0009Z" fill="#628D32"/>
<path d="M118.882 54.4583V45.6405H120.503V49.3734H124.649V45.6405H126.274V54.4583H124.649V50.7124H120.503V54.4583H118.882Z" fill="#628D32"/>
<path d="M233.088 54.4583V45.6405H239.312V46.9795H234.793V49.2187H238.722V50.5606H234.793V52.9887H239.312V54.4583H233.088Z" fill="#628D32"/>
<path d="M169.417 47.101C169.662 47.0034 170.437 46.8416 171.209 46.9823C171.855 47.1002 172.387 47.3018 172.649 47.5574L173.477 46.535C173.172 46.2794 172.518 45.8961 171.863 45.7683C171.266 45.6516 170.959 45.6405 170.318 45.6405C169.685 45.6405 169.119 45.7465 168.619 45.9585C168.118 46.1678 167.723 46.4621 167.431 46.8416C167.143 47.221 166.999 47.6632 166.999 48.1682C166.999 48.782 167.214 49.2745 167.643 49.6455C168.076 50.0138 168.664 50.2886 169.409 50.47L170.437 50.7211C170.76 50.7992 171.043 50.8885 171.284 50.9889C171.528 51.0866 171.718 51.2093 171.853 51.3572C171.989 51.5023 172.058 51.6864 172.061 51.9096C172.058 52.1551 171.98 52.37 171.827 52.5541C171.674 52.7355 171.462 52.8778 171.191 52.981C170.924 53.0814 170.612 53.1316 170.256 53.1316C169.915 53.1316 169.606 53.0828 169.329 52.9852C169.055 52.8875 168.918 52.8609 168.591 52.6692C168.264 52.4775 168.264 52.4775 167.937 52.158L166.955 53.1316C167.217 53.4359 167.217 53.4359 167.544 53.6915C167.937 53.9471 167.923 53.9421 168.438 54.1486C168.955 54.3551 169.566 54.4583 170.269 54.4583C170.993 54.4583 171.609 54.3523 172.118 54.1402C172.63 53.9254 173.021 53.6283 173.292 53.2488C173.563 52.8666 173.698 52.4244 173.698 51.9222C173.698 51.5511 173.624 51.2275 173.477 50.9513C173.33 50.675 173.13 50.4393 172.877 50.244C172.627 50.0487 172.343 49.8869 172.025 49.7585C171.711 49.6302 171.383 49.5284 171.041 49.453L170.194 49.2521C170.009 49.2103 169.825 49.1587 169.642 49.0973C169.46 49.0359 169.294 48.9606 169.144 48.8713C168.994 48.7792 168.875 48.6676 168.786 48.5365C168.701 48.4054 168.658 48.2505 168.658 48.072C168.661 47.8571 168.727 47.666 168.857 47.4986C168.986 47.3312 169.173 47.1987 169.417 47.101Z" fill="#628D32"/>
<rect x="244.013" y="49.5307" width="16.9873" height="0.907717" fill="#628D32"/>
<rect x="98" y="49.5307" width="16.2092" height="0.907717" fill="#628D32"/>
<path d="M2.65929 50.8671C2.65929 50.8671 -8.14253 26.1227 13.7943 8.27825C35.7311 -9.56623 61.808 6.99346 61.808 6.99346C61.808 6.99346 33.6373 -7.71041 13.3184 13.3699C-0.37497 27.5764 4.84822 45.2996 4.84822 45.2996C4.84822 45.2996 4.00445 46.2513 3.37307 47.8692C2.7417 49.4871 2.65929 50.8671 2.65929 50.8671Z" fill="#628D32"/>
<path d="M9.89197 60.7172C9.89188 59.2897 36.6809 59.2409 53.8608 59.1945C71.0379 59.1481 97.5441 59.2897 97.8297 60.4793C98.1152 61.6689 71.0342 61.5273 53.8608 61.5738C36.6887 61.6202 9.89205 62.1448 9.89197 60.7172Z" fill="#223344"/>
<path d="M38.3959 54.7215C38.3959 54.7215 38.3265 54.1856 38.2056 53.8649C38.1176 53.6317 37.9201 53.2939 37.9201 53.2939C37.9201 53.2939 36.8331 52.9162 36.3022 52.4374C35.5797 51.7858 35.1125 50.2485 35.1125 50.2485C35.1125 50.2485 36.6224 50.6114 37.2539 51.2953C37.8068 51.8942 38.1104 53.1988 38.1104 53.1988C38.1104 53.1988 38.2926 53.4841 38.3959 53.6746C38.4752 53.8207 38.5863 54.0553 38.5863 54.0553C38.5863 54.0553 38.7766 52.4374 38.5863 51.9615C38.3959 51.4857 38.2056 50.7719 38.2056 50.7719C38.2056 50.7719 37.1349 50.2536 36.6829 49.6774C36.0207 48.8335 36.0167 47.0127 36.0167 47.0127C36.0167 47.0127 37.6373 47.7119 38.1104 48.6306C38.4799 49.3478 38.3959 50.6767 38.3959 50.6767C38.3959 50.6767 38.5143 51.053 38.5863 51.2953C38.6633 51.5547 38.7766 51.9615 38.7766 51.9615C38.7766 51.9615 38.8909 51.2293 39.0145 50.7719C39.1219 50.3748 39.3476 49.7726 39.3476 49.7726C39.3476 49.7726 39.3356 48.3087 39.7759 47.5361C40.3428 46.5414 42.1552 45.823 42.1552 45.823C42.1552 45.823 42.1323 47.7348 41.4414 48.6306C40.8936 49.3407 39.538 49.9154 39.538 49.9154C39.538 49.9154 39.3038 50.4269 39.2049 50.7719C39.0753 51.2242 39.0619 51.4934 39.0145 51.9615C38.9323 52.7751 39.0145 54.0553 39.0145 54.0553C39.0145 54.0553 39.0987 53.694 39.2049 53.4843C39.3074 53.2819 39.538 53.0084 39.538 53.0084C39.538 53.0084 39.6953 51.624 40.2518 51.0098C40.8843 50.3117 42.4883 50.1057 42.4883 50.1057C42.4883 50.1057 42.0851 51.5503 41.4414 52.1995C40.8847 52.7609 39.6807 53.1988 39.6807 53.1988C39.6807 53.1988 39.4465 53.7103 39.3476 54.0553C39.2743 54.3111 39.2049 54.7215 39.2049 54.7215H38.3959Z" fill="#628D32"/>
<path d="M18.1718 51.7238V49.5349C18.1718 49.5349 18.0766 48.8687 17.3153 48.3452C16.5539 47.8218 15.7925 47.917 15.7925 47.917V45.728C15.7925 45.728 15.7925 44.9984 16.2684 44.4432C16.921 43.6819 17.8863 43.6819 17.8863 43.6819H29.4495C29.4495 43.6819 30.5916 43.6819 31.115 44.4432C31.6385 45.2046 31.6385 45.728 31.6385 45.728V47.917C31.6385 47.917 30.7343 47.7742 29.973 48.3452C29.2547 48.8839 29.3544 49.5349 29.3544 49.5349L29.3068 51.7714C29.3068 51.7714 28.9737 51.4859 28.593 51.2955C28.3459 51.172 27.8316 51.2003 27.8316 51.2003H19.5042C19.5042 51.2003 19.1711 51.1686 18.7904 51.2955C18.4097 51.4224 18.1718 51.7238 18.1718 51.7238Z" fill="#223344"/>
<path d="M14.0321 57.3863C14.0321 57.3863 13.2708 51.0575 13.4135 50.2009C13.5562 49.3444 14.2692 48.7639 15.1742 48.6782C16.1038 48.5902 16.9824 49.0113 17.2203 49.9154C17.4583 50.8196 17.2204 54.5312 17.2203 54.7216C17.2203 54.9119 17.3104 55.0514 17.4583 55.1974C17.6302 55.3671 17.8865 55.3877 18.0293 55.4353C18.1721 55.4829 29.307 55.4353 29.4973 55.4353C29.6877 55.4353 29.8199 55.3376 29.9732 55.1974C30.1331 55.0511 30.2112 54.8643 30.2587 54.7216C30.3063 54.5788 30.1735 50.8196 30.2587 49.9154C30.3439 49.0113 31.244 48.6485 32.1145 48.6782C33.0372 48.7097 33.6373 49.2492 33.9228 50.2009C34.2083 51.1527 33.3518 57.3863 33.3518 57.3863C33.3518 57.3863 33.3273 58.0059 33.0662 58.2429C32.8617 58.4285 32.4001 58.4808 32.4001 58.4808H31.8766L31.6863 59.6704C31.6863 59.6704 31.5435 60.289 31.0201 60.289C30.4967 60.289 30.2112 59.9559 30.1636 59.6704C30.116 59.3849 29.9732 58.4808 29.9732 58.4808H17.4583L17.2203 60.0035C17.2203 60.0035 16.9393 60.4679 16.6018 60.527C16.1986 60.5975 15.8404 60.0035 15.8404 60.0035L15.5549 58.4808C15.5549 58.4808 14.704 58.5741 14.3652 58.2429C14.1086 57.992 14.0321 57.3863 14.0321 57.3863Z" fill="#223344"/>
<path d="M57.9055 20.6505V24.1719L64.2344 29.3587V20.6505H57.9055Z" fill="#223344"/>
<path d="M72.0859 35.2591L39.1569 8.51616V14.845L64.4247 35.2591H72.0859Z" fill="#223344"/>
<path d="M6.2757 35.2591L39.2047 8.51616V14.845L13.9369 35.2591H6.2757Z" fill="#223344"/>
<rect x="34.7309" y="25.8372" width="3.99717" height="3.99717" fill="#223344"/>
<rect x="39.6807" y="25.8372" width="3.99717" height="3.99717" fill="#223344"/>
<rect x="39.7754" y="30.7861" width="3.99717" height="3.99717" fill="#223344"/>
<rect x="34.7309" y="30.7861" width="3.99717" height="3.99717" fill="#223344"/>
<path d="M80.0329 37.0673C80.0486 37.0692 81.0006 37.1846 81.5075 37.496C81.9544 37.7706 82.4576 38.4445 82.4597 38.4472L88.6931 47.3935C88.6959 47.3974 89.1124 47.9711 89.2643 48.3925C89.3868 48.7319 89.4548 49.2968 89.4548 49.2968V55.1024C89.469 55.1025 90.3119 55.1134 90.3591 56.4345C90.4067 57.7669 89.0261 58.1474 89.0261 58.1474H83.8395C83.8432 58.1303 84.0613 57.0955 83.9821 56.4345C83.709 54.1547 81.7573 52.6356 79.4616 52.6757C77.3318 52.7129 75.5126 54.1504 75.1794 56.0536C75.0376 56.8638 75.3183 58.1307 75.322 58.1474H57.8102V56.0536H72.7995V37.0673H80.0329ZM71.5622 55.1024H57.8102V48.6308C57.8102 48.6308 57.766 48.2684 57.6198 48.1073C57.481 47.9544 57.1482 47.87 57.1442 47.869H54.5749V42.2538C54.573 42.2453 54.5092 41.9562 54.3845 41.8261C54.2002 41.6343 53.7345 41.6355 53.7184 41.6357V37.0673H71.5622V55.1024ZM86.3141 49.6776C86.309 49.6777 86.168 49.6801 85.9811 49.8202C85.8385 49.9273 85.8386 50.2011 85.8386 50.2011V53.3417C85.8397 53.3536 85.8707 53.6741 86.029 53.8173C86.1207 53.9002 86.3109 54.0059 86.3141 54.0077H87.7897C87.7968 54.0055 87.9667 53.9517 88.0749 53.8173C88.2006 53.6611 88.2169 53.3534 88.2175 53.3417V50.2011C88.2175 50.2011 88.1698 49.963 88.027 49.8202C87.9076 49.7009 87.6089 49.6783 87.5993 49.6776H86.3141ZM48.9118 43.6337H50.3874V42.2538H53.9079V47.869H45.4382V42.2538H48.9118V43.6337ZM75.7507 39.4462C75.7507 39.4462 75.3979 39.4779 75.2741 39.5888C75.1435 39.7057 75.1315 40.0175 75.1315 40.0175V45.4901C75.1348 45.4997 75.2308 45.7787 75.4645 45.9657C75.6982 46.1526 75.9779 46.1099 75.988 46.1083H84.696C84.696 46.1083 85.0606 45.9772 85.1247 45.7753C85.1978 45.545 84.8864 45.204 84.8864 45.204L81.3181 40.0175C81.3181 40.0175 81.0827 39.7492 80.8893 39.6366C80.5931 39.4644 80.0329 39.4462 80.0329 39.4462H75.7507ZM53.0515 41.6357H47.3893V37.0673H53.0515V41.6357Z" fill="#223344"/>
<circle cx="79.6518" cy="57.0532" r="3.2358" fill="#223344"/>
<path d="M50.3386 48.3927V58.2492H46.0085L45.485 59.7179H44.8669L45.0095 58.2492H44.1052V48.3927H50.3386ZM49.1501 52.4211C48.9661 52.4211 48.8161 52.5701 48.8161 52.7541V53.9836C48.8163 54.1674 48.9662 54.3166 49.1501 54.3166C49.3337 54.3163 49.4829 54.1672 49.4831 53.9836V52.7541C49.4831 52.5703 49.3338 52.4213 49.1501 52.4211Z" fill="#223344"/>
<path d="M50.9106 48.3927V58.2492H55.2407L55.7641 59.7179H56.3823L56.2397 58.2492H57.144V48.3927H50.9106ZM52.1 52.4211C52.284 52.4211 52.433 52.5701 52.433 52.7541V53.9836C52.4329 54.1674 52.2839 54.3165 52.1 54.3166C51.9162 54.3166 51.7672 54.1674 51.767 53.9836V52.7541C51.767 52.5701 51.9161 52.4211 52.1 52.4211Z" fill="#223344"/>
<path d="M18.2196 54.4835H29.307C29.307 54.4835 29.3486 53.389 29.307 53.0559C29.2654 52.7228 29.0797 52.5908 28.8311 52.3897C28.5655 52.1749 28.3077 52.1042 28.0222 52.0566C27.7367 52.009 19.9327 52.009 19.5996 52.0566C19.2664 52.1042 18.9467 52.1332 18.6479 52.3897C18.4132 52.5912 18.2672 52.7704 18.2196 53.0559C18.1721 53.3414 18.2196 54.4835 18.2196 54.4835Z" fill="#223344"/>
<path d="M37.2214 59.3373L36.7032 55.4618H36.4205V54.5788H41.179V55.4618H40.8963L40.4252 59.3373H37.2214Z" fill="#223344"/>
<path d="M12.7469 39.5418C12.7469 39.5418 2.86561 47.7874 4.37187 54.8167C5.37115 59.48 8.55938 60.5269 8.55938 60.5269C8.55938 60.5269 8.46421 59.8112 9.89177 59.48C11.3193 59.1489 12.7469 59.0042 12.7469 59.0042C12.7469 59.0042 9.65502 57.0054 8.55938 54.8167C5.79063 49.2857 12.7469 39.5418 12.7469 39.5418Z" fill="#628D32"/>
</svg>
