<svg width="338" height="225" viewBox="0 0 338 225" fill="none" xmlns="http://www.w3.org/2000/svg">
<path d="M0.779541 129.117C1.61319 129.51 3.28468 130.571 6.28415 132.552C8.44019 133.976 10.5404 135.999 12.503 136.072C14.6259 136.152 14.8804 132.836 15.2993 130.911C15.8851 128.219 20.8835 128.457 21.6501 128.257C23.9443 127.656 24.792 132.685 25.8414 134.342C26.9348 136.068 27.8585 139.424 29.2598 141.629C30.8563 144.141 34.6995 142.229 36.6537 142.032C37.6998 141.927 37.921 140.644 38.3399 139.458C39.0022 137.583 38.2058 135.876 38.0634 135.083C37.6816 132.958 41.4064 132.566 42.1123 131.11C42.9243 129.434 39.7475 127.273 38.4865 125.547C36.7453 123.163 35.5499 119.065 35.2022 117.137C34.8352 115.103 34.7121 112.97 34.9194 111.315C35.146 109.506 38.7504 110.045 40.4952 110.307C42.5692 110.619 42.1102 113.613 43.1554 115.403C43.9923 116.836 46.2952 116.53 47.8955 117.062C48.7533 117.347 49.9105 116.545 50.6184 116.079C51.7175 115.354 51.8878 113.895 52.0951 112.57C52.1651 112.123 52.7172 112.294 53.0691 112.558C54.5281 113.654 54.6778 115.862 55.723 117.588C56.287 118.52 57.3295 119.049 58.2344 119.446C58.6976 119.649 59.2775 119.581 59.5624 118.794C61.0605 114.657 59.0094 112.966 59.1477 111.776C59.2112 111.229 59.5624 110.848 60.0504 110.58C60.5385 110.311 61.2297 110.18 61.9314 110.44C63.5099 111.026 64.4512 112.294 65.7708 112.691C67.9551 113.349 70.8648 112.433 73.0286 111.64C75.5241 110.726 75.3473 106.874 75.695 104.822C76.0849 102.521 76.1851 101.046 76.3925 99.9212C76.4849 99.4203 77.0146 99.1901 77.5047 98.9894C78.5148 98.5759 82.4354 98.5226 87.4625 98.2603C89.1913 98.1702 89.1716 97.4736 89.2408 97.0068C89.3099 96.5399 89.4481 96.1465 89.7267 95.8128C90.0053 95.479 90.42 95.2168 90.841 95.1473C91.2621 95.0777 91.6768 95.2088 91.9596 95.5386C93.2287 97.0188 93.2184 99.1742 93.7085 101.23C93.9092 102.072 94.0563 102.889 94.7517 103.616C96.6333 105.584 100.336 104.22 101.66 103.561C105.551 101.622 103.83 94.6844 104.942 94.1559C107.947 92.728 110.662 92.4355 112.903 90.9793C114.942 89.6547 116.397 87.7986 117.026 86.547C119.285 82.0478 114.868 77.8693 114.864 75.2887C114.861 73.3184 117.65 72.569 119.328 71.8379C119.755 71.6517 120.163 71.377 120.515 71.0452C125.132 66.6926 121.981 53.7673 123.031 52.0409C123.483 51.2965 122.97 48.2206 121.856 44.1817C121.356 42.3687 119.619 42.3679 118.297 41.7103C112.366 38.7595 115.011 27.9408 113.961 25.4893C112.931 23.0821 110.692 20.3916 108.387 18.4089C108.157 14.3045 109.556 9.53649 110.325 6.68764C110.398 5.43605 110.26 3.33814 110.118 1.17667" stroke="#F5F5F5" stroke-width="1.55882" stroke-linecap="round"/>
<path d="M123.089 46.2508C124.471 45.9885 126.866 45.2844 128.468 44.2295C131.816 42.0258 131.064 36.5709 130.716 33.5671C130.647 32.9709 130.645 32.1844 131.198 31.5169C133.904 28.2496 139.149 30.1819 141.319 31.0381C144.12 32.1435 147.1 32.5658 149.419 33.6863C150.945 34.424 152.977 34.6836 156.586 34.8823C163.502 35.263 169.173 34.6876 171.334 34.1591C174.025 33.5015 175.318 29.8004 176.095 25.9582C176.718 22.8806 180.605 19.3506 182.796 16.6786C184.41 14.7106 186.772 13.5019 187.616 11.9106C188.175 9.92596 188.594 7.93534 190.048 6.29039C191.363 5.0388 193.851 2.9409 196.415 0.779419" stroke="#F5F5F5" stroke-width="1.55882" stroke-linecap="round"/>
<path d="M120.166 72.1242C120.166 72.3864 121.286 73.8842 121.981 74.6769C122.801 75.6114 123.938 76.0059 128.091 76.2702C138.86 76.9552 146.421 77.194 147.048 78.1853C148.221 80.0432 149.354 81.4295 150.261 83.3506C151.041 85.0044 151.591 93.1507 151.243 99.3014C151.05 102.714 151.31 105.273 151.727 106.132C152.865 108.474 156.601 109.64 159.054 110.705C160.843 111.482 163.17 112.294 164.99 113.351C167.354 114.724 168.482 117.189 169.183 118.781C169.955 120.53 170.71 125.112 172.114 127.919C173.06 129.812 175.042 131.755 176.72 133.086C178.266 134.313 180.345 134.942 190.232 137.252C192.388 137.756 192.913 138.248 193.267 138.647C193.621 139.046 193.759 139.44 193.761 139.839C193.77 141.515 192.092 143.278 191.321 145.135C190.358 147.458 190.274 149.635 189.991 153.603C189.915 154.675 190.542 155.587 191.309 156.126C194.525 158.385 197.664 157.987 199.896 159.175C203.27 160.97 203.252 164.861 202.982 166.857C202.704 168.911 200.194 170.034 199.628 171.625C199.487 172.024 199.214 172.418 199.071 173.014C198.929 173.61 198.929 174.397 200.104 175.064C203.314 176.888 206.465 176.797 207.232 176.993C209.158 177.488 209.536 180.365 210.376 182.155C211.866 185.33 220.143 182.494 221.963 182.755C222.402 182.817 222.799 183.019 223.082 183.283C224.374 184.491 224.479 186.46 225.383 187.32C227.071 188.925 229.644 187.791 230.689 187.723C232.604 187.6 233.691 189.774 235.714 191.029C238.935 193.028 247.456 192.293 251.987 191.107C254.725 190.39 252.827 185.145 253.453 184.483C254.71 183.156 262.403 183.551 266.58 183.025C268.141 182.828 267.213 178.672 267.56 176.274C267.888 174.017 268.469 172.434 269.372 170.843C270.567 168.736 273.488 167.928 275.166 166.935C277.682 165.445 277.962 163.033 279.495 160.911C281.068 158.736 284.774 155.484 288.291 153.032C290.561 151.45 290.253 147.935 290.808 146.405C291.044 145.754 293.588 145.678 296.101 144.49C298.918 143.159 297.794 139.328 299.044 136.873C299.539 135.902 300.722 135.872 306.465 133.905C311.794 131.938 322.024 128.005 327.847 125.913C333.67 123.821 334.776 123.69 336.753 123.554" stroke="#F5F5F5" stroke-width="1.55882" stroke-linecap="round"/>
<path d="M267.279 182.456C268.251 182.587 270.254 184.068 273.767 185.204C275.869 185.884 277.677 187.254 278.938 188.711C280.617 190.649 278.398 195.058 277.617 197.055C276.64 199.549 277.543 203.672 278.588 205.663C279.536 207.468 281.448 208.972 283.957 210.363C286.709 211.889 287.74 214.404 287.602 215.66C287.471 216.844 286.902 218.636 287.109 220.753C287.37 223.417 291.778 224.603 293.46 226.389C293.838 226.791 293.881 227.25 293.883 227.649C293.894 229.718 290.957 231.62 289.977 233.277C288.975 234.97 289.415 237.835 290.04 240.228C290.873 243.425 291.929 246.83 292.832 249.699C293.878 253.022 298.9 253.609 300.929 254.405C302.542 255.038 301.145 266.498 300.45 272.547C300.244 274.338 298.774 276.646 297.798 278.573C296.795 280.552 295.842 282.081 295.421 283.673C294.948 285.461 297.509 287.247 300.087 289.762C301.789 291.421 303.927 292.809 306.579 293.806C311.744 295.594 315.38 296.393 317.259 296.655C318.308 296.918 319.553 297.442 321.672 297.982" stroke="#F5F5F5" stroke-width="1.55882" stroke-linecap="round"/>
<path d="M140.699 258.249C140.561 257.328 140.28 255.476 139.932 253.36C139.177 248.765 141.394 246.337 143.066 244.746C143.487 244.345 143.765 243.953 143.908 243.554C144.05 243.155 144.05 242.761 143.843 242.362C143.383 241.476 142.379 240.902 141.681 240.242C139.86 238.52 141.394 235.212 141.744 233.227C142.39 229.561 143.07 228.06 143.56 225.158C144.999 216.64 144.469 214.154 144.886 212.562C145.344 210.813 146.555 208.202 148.857 205.414C151.558 202.145 155.772 202.893 157.449 202.492C159.292 202.051 159.827 199.85 160.803 198.258C161.308 197.435 162.06 196.798 163.172 196.27C169.307 193.355 178.955 195.34 179.931 194.945C181.784 194.194 181.334 186.523 182.585 182.035C183.405 179.09 189.981 180.245 191.87 178.789C193.846 177.266 195.016 176.403 195.366 175.611C196.04 174.083 194.321 172.172 194.528 170.451C194.792 168.258 198.502 168.19 200.179 167.66C201.015 167.396 201.857 167.13 202.555 166.734C202.837 166.47 202.976 166.077 203.118 165.671" stroke="#F5F5F5" stroke-width="1.55882" stroke-linecap="round"/>
</svg>
